<svg width="368" height="251" viewBox="0 0 368 251" fill="none" xmlns="http://www.w3.org/2000/svg">
<g clip-path="url(#clip0_6779_13327)">
<rect width="368" height="250.667" rx="21.3333" fill="#0E5FD9"/>
<path d="M52.6287 39.418C52.558 38.7564 52.2601 38.2412 51.7348 37.8725C51.2146 37.5038 50.5378 37.3195 49.7045 37.3195C49.1186 37.3195 48.6161 37.4079 48.1969 37.5846C47.7777 37.7614 47.457 38.0013 47.2348 38.3043C47.0126 38.6074 46.8989 38.9533 46.8939 39.3422C46.8939 39.6654 46.9671 39.9457 47.1136 40.1831C47.2651 40.4205 47.4697 40.6225 47.7272 40.7892C47.9848 40.9508 48.2702 41.0872 48.5833 41.1983C48.8964 41.3094 49.2121 41.4028 49.5303 41.4786L50.9848 41.8422C51.5707 41.9786 52.1338 42.1629 52.6742 42.3952C53.2197 42.6276 53.707 42.9205 54.1363 43.274C54.5707 43.6276 54.9141 44.0543 55.1666 44.5543C55.4192 45.0543 55.5454 45.6402 55.5454 46.3119C55.5454 47.221 55.3131 48.0215 54.8484 48.7134C54.3838 49.4003 53.7121 49.9382 52.8333 50.3271C51.9596 50.7109 50.9015 50.9028 49.6591 50.9028C48.452 50.9028 47.404 50.7159 46.5151 50.3422C45.6313 49.9685 44.9394 49.423 44.4394 48.7058C43.9444 47.9887 43.6767 47.1149 43.6363 46.0846H46.4015C46.4419 46.625 46.6085 47.0745 46.9015 47.4331C47.1944 47.7917 47.5757 48.0594 48.0454 48.2362C48.5202 48.4129 49.0505 48.5013 49.6363 48.5013C50.2474 48.5013 50.7828 48.4104 51.2424 48.2286C51.707 48.0417 52.0707 47.7841 52.3333 47.4558C52.5959 47.1225 52.7298 46.7336 52.7348 46.2892C52.7298 45.8851 52.6111 45.5518 52.3787 45.2892C52.1464 45.0215 51.8207 44.7993 51.4015 44.6225C50.9873 44.4407 50.5025 44.2791 49.9469 44.1377L48.1818 43.6831C46.904 43.3548 45.8939 42.8574 45.1515 42.1907C44.4141 41.519 44.0454 40.6276 44.0454 39.5165C44.0454 38.6023 44.2929 37.8018 44.7878 37.1149C45.2878 36.4281 45.9671 35.8952 46.8257 35.5165C47.6843 35.1326 48.6565 34.9407 49.7424 34.9407C50.8434 34.9407 51.808 35.1326 52.6363 35.5165C53.4697 35.8952 54.1237 36.423 54.5984 37.0998C55.0732 37.7715 55.3181 38.5442 55.3333 39.418H52.6287ZM65.3466 45.774V39.0316H68.089V50.668H65.4299V48.5998H65.3087C65.046 49.2513 64.6142 49.7841 64.0132 50.1983C63.4173 50.6124 62.6824 50.8195 61.8087 50.8195C61.046 50.8195 60.3718 50.6503 59.7859 50.3119C59.2051 49.9685 58.7506 49.471 58.4223 48.8195C58.094 48.1629 57.9299 47.37 57.9299 46.4407V39.0316H60.6723V46.0165C60.6723 46.7538 60.8743 47.3397 61.2784 47.774C61.6824 48.2084 62.2127 48.4255 62.8693 48.4255C63.2733 48.4255 63.6647 48.3271 64.0435 48.1301C64.4223 47.9331 64.7329 47.6402 64.9753 47.2513C65.2228 46.8574 65.3466 46.3649 65.3466 45.774ZM70.9091 50.668V39.0316H73.5681V40.971H73.6894C73.9015 40.2993 74.2651 39.7816 74.7803 39.418C75.3005 39.0493 75.8939 38.8649 76.5606 38.8649C76.7121 38.8649 76.8813 38.8725 77.0681 38.8877C77.2601 38.8978 77.4192 38.9154 77.5454 38.9407V41.4634C77.4293 41.423 77.2449 41.3877 76.9924 41.3574C76.7449 41.322 76.505 41.3043 76.2727 41.3043C75.7727 41.3043 75.3232 41.4129 74.9242 41.6301C74.5303 41.8422 74.2197 42.1377 73.9924 42.5165C73.7651 42.8952 73.6515 43.3321 73.6515 43.8271V50.668H70.9091ZM90.1155 39.0316L85.9716 50.668H82.9412L78.7973 39.0316H81.7216L84.3958 47.6755H84.517L87.1988 39.0316H90.1155ZM96.7689 50.8952C95.6022 50.8952 94.5947 50.6528 93.7462 50.168C92.9027 49.6781 92.2537 48.9862 91.7992 48.0922C91.3447 47.1932 91.1174 46.1351 91.1174 44.918C91.1174 43.721 91.3447 42.6705 91.7992 41.7665C92.2588 40.8574 92.9002 40.1503 93.7234 39.6452C94.5467 39.1351 95.5138 38.8801 96.625 38.8801C97.3421 38.8801 98.0189 38.9963 98.6553 39.2286C99.2967 39.4558 99.8623 39.8094 100.352 40.2892C100.847 40.769 101.236 41.3801 101.519 42.1225C101.802 42.8599 101.943 43.7387 101.943 44.7589V45.5998H92.4053V43.7513H99.3144C99.3093 43.226 99.1957 42.7589 98.9734 42.3498C98.7512 41.9356 98.4406 41.6099 98.0416 41.3725C97.6477 41.1351 97.1881 41.0165 96.6628 41.0165C96.1022 41.0165 95.6098 41.1528 95.1856 41.4255C94.7613 41.6932 94.4305 42.0468 94.1931 42.4861C93.9608 42.9205 93.8421 43.3978 93.8371 43.918V45.5316C93.8371 46.2084 93.9608 46.7892 94.2083 47.274C94.4558 47.7538 94.8017 48.1225 95.2462 48.3801C95.6906 48.6326 96.2108 48.7589 96.8068 48.7589C97.2058 48.7589 97.5669 48.7033 97.8901 48.5922C98.2133 48.476 98.4936 48.3069 98.731 48.0846C98.9684 47.8624 99.1477 47.5872 99.2689 47.2589L101.83 47.5468C101.668 48.2235 101.36 48.8144 100.905 49.3195C100.456 49.8195 99.88 50.2084 99.178 50.4862C98.476 50.7589 97.6729 50.8952 96.7689 50.8952ZM105.634 55.0316C105.261 55.0316 104.915 55.0013 104.597 54.9407C104.283 54.8851 104.033 54.8195 103.847 54.7437L104.483 52.6074C104.882 52.7235 105.238 52.7791 105.551 52.774C105.864 52.769 106.139 52.6705 106.377 52.4786C106.619 52.2917 106.824 51.9786 106.99 51.5392L107.225 50.9104L103.006 39.0316H105.915L108.597 47.8195H108.718L111.407 39.0316H114.324L109.665 52.0771C109.448 52.6932 109.16 53.221 108.801 53.6604C108.443 54.1048 108.003 54.4432 107.483 54.6755C106.968 54.9129 106.352 55.0316 105.634 55.0316Z" fill="white"/>
<path d="M42.6666 85.3346C42.6666 79.4436 47.4423 74.668 53.3333 74.668H368V284.001H42.6666V85.3346Z" fill="white"/>
<rect x="65.3334" y="101.334" width="80" height="21.3333" rx="10.6667" fill="#F2F3F5"/>
<rect x="65.3334" y="136" width="277.333" height="21.3333" rx="10.6667" fill="#F2F3F5"/>
<rect x="65.3334" y="170.668" width="277.333" height="21.3333" rx="10.6667" fill="#F2F3F5"/>
<rect x="65.3334" y="205.334" width="277.333" height="21.3333" rx="10.6667" fill="#F2F3F5"/>
<rect x="164" y="101.334" width="80" height="21.3333" rx="10.6667" fill="#F2F3F5"/>
<rect x="262.667" y="101.334" width="80" height="21.3333" rx="10.6667" fill="#F2F3F5"/>
</g>
<defs>
<clipPath id="clip0_6779_13327">
<rect width="368" height="250.667" rx="21.3333" fill="white"/>
</clipPath>
</defs>
</svg>
