<svg width="368" height="251" viewBox="0 0 368 251" fill="none" xmlns="http://www.w3.org/2000/svg">
<g clip-path="url(#clip0_6779_13312)">
<rect width="368" height="250.667" rx="21.3333" fill="#5A51D8"/>
<path d="M49.4545 50.668H44.1969V35.1528H49.5606C51.101 35.1528 52.4242 35.4634 53.5303 36.0846C54.6414 36.7008 55.4949 37.5872 56.0909 38.7437C56.6868 39.9003 56.9848 41.2841 56.9848 42.8952C56.9848 44.5114 56.6843 45.9003 56.0833 47.0619C55.4873 48.2235 54.6262 49.1149 53.5 49.7362C52.3787 50.3574 51.0303 50.668 49.4545 50.668ZM47.0075 48.2362H49.3181C50.3989 48.2362 51.3005 48.0392 52.0227 47.6452C52.7449 47.2463 53.2878 46.6528 53.6515 45.8649C54.0151 45.072 54.1969 44.0821 54.1969 42.8952C54.1969 41.7084 54.0151 40.7235 53.6515 39.9407C53.2878 39.1528 52.75 38.5644 52.0378 38.1755C51.3308 37.7816 50.452 37.5846 49.4015 37.5846H47.0075V48.2362ZM62.8825 50.9028C62.1452 50.9028 61.481 50.7715 60.8901 50.5089C60.3043 50.2412 59.8396 49.8473 59.4962 49.3271C59.1578 48.8069 58.9886 48.1654 58.9886 47.4028C58.9886 46.7463 59.1098 46.2033 59.3522 45.774C59.5947 45.3447 59.9255 45.0013 60.3447 44.7437C60.7638 44.4862 61.2361 44.2917 61.7613 44.1604C62.2916 44.024 62.8396 43.9255 63.4053 43.8649C64.0871 43.7942 64.6401 43.7311 65.0644 43.6755C65.4886 43.6149 65.7967 43.524 65.9886 43.4028C66.1856 43.2766 66.2841 43.0821 66.2841 42.8195V42.774C66.2841 42.2033 66.1149 41.7614 65.7765 41.4483C65.4381 41.1351 64.9507 40.9786 64.3144 40.9786C63.6426 40.9786 63.1098 41.125 62.7159 41.418C62.327 41.7109 62.0644 42.0569 61.928 42.4558L59.3674 42.0922C59.5694 41.3851 59.9027 40.7942 60.3674 40.3195C60.832 39.8397 61.4002 39.4811 62.0719 39.2437C62.7436 39.0013 63.4861 38.8801 64.2992 38.8801C64.8598 38.8801 65.4179 38.9457 65.9734 39.0771C66.529 39.2084 67.0366 39.4255 67.4962 39.7286C67.9558 40.0266 68.3245 40.4331 68.6022 40.9483C68.8851 41.4634 69.0265 42.1074 69.0265 42.8801V50.668H66.3901V49.0695H66.2992C66.1325 49.3927 65.8977 49.6957 65.5947 49.9786C65.2967 50.2564 64.9204 50.4811 64.4659 50.6528C64.0164 50.8195 63.4886 50.9028 62.8825 50.9028ZM63.5947 48.8877C64.1452 48.8877 64.6224 48.7791 65.0265 48.5619C65.4305 48.3397 65.7411 48.0468 65.9583 47.6831C66.1805 47.3195 66.2916 46.923 66.2916 46.4937V45.1225C66.2058 45.1932 66.0593 45.2589 65.8522 45.3195C65.6502 45.3801 65.4229 45.4331 65.1704 45.4786C64.9179 45.524 64.6679 45.5644 64.4204 45.5998C64.1729 45.6351 63.9583 45.6654 63.7765 45.6907C63.3674 45.7463 63.0012 45.8372 62.678 45.9634C62.3548 46.0897 62.0997 46.2665 61.9128 46.4937C61.726 46.7159 61.6325 47.0038 61.6325 47.3574C61.6325 47.8624 61.8169 48.2437 62.1856 48.5013C62.5543 48.7589 63.024 48.8877 63.5947 48.8877ZM80.981 42.1074L78.481 42.3801C78.4103 42.1276 78.2866 41.8902 78.1098 41.668C77.9381 41.4457 77.7058 41.2665 77.4128 41.1301C77.1199 40.9937 76.7613 40.9255 76.3371 40.9255C75.7664 40.9255 75.2866 41.0493 74.8977 41.2968C74.5138 41.5442 74.3245 41.8649 74.3295 42.2589C74.3245 42.5973 74.4482 42.8725 74.7007 43.0846C74.9583 43.2968 75.3825 43.471 75.9734 43.6074L77.9583 44.0316C79.0593 44.269 79.8775 44.6452 80.4128 45.1604C80.9532 45.6755 81.226 46.3498 81.231 47.1831C81.226 47.9154 81.0113 48.5619 80.5871 49.1225C80.1679 49.6781 79.5846 50.1124 78.8371 50.4255C78.0896 50.7387 77.231 50.8952 76.2613 50.8952C74.8371 50.8952 73.6906 50.5973 72.8219 50.0013C71.9532 49.4003 71.4356 48.5644 71.2689 47.4937L73.9431 47.2362C74.0644 47.7614 74.3219 48.1579 74.7159 48.4255C75.1098 48.6932 75.6224 48.8271 76.2537 48.8271C76.9053 48.8271 77.428 48.6932 77.8219 48.4255C78.2209 48.1579 78.4204 47.8271 78.4204 47.4331C78.4204 47.0998 78.2916 46.8245 78.0341 46.6074C77.7815 46.3902 77.3876 46.2235 76.8522 46.1074L74.8674 45.6907C73.7512 45.4584 72.9255 45.067 72.3901 44.5165C71.8548 43.9609 71.5896 43.2589 71.5947 42.4104C71.5896 41.6932 71.7841 41.072 72.178 40.5468C72.577 40.0165 73.13 39.6074 73.8371 39.3195C74.5492 39.0266 75.3699 38.8801 76.2992 38.8801C77.6628 38.8801 78.7361 39.1705 79.5189 39.7513C80.3068 40.3321 80.7942 41.1175 80.981 42.1074ZM86.2348 43.8498V50.668H83.4924V35.1528H86.1742V41.0089H86.3106C86.5833 40.3523 87.005 39.8346 87.5757 39.4558C88.1515 39.072 88.8838 38.8801 89.7727 38.8801C90.5808 38.8801 91.2853 39.0493 91.8863 39.3877C92.4873 39.726 92.952 40.221 93.2803 40.8725C93.6136 41.524 93.7803 42.3195 93.7803 43.2589V50.668H91.0378V43.6831C91.0378 42.9003 90.8358 42.2917 90.4318 41.8574C90.0328 41.418 89.4722 41.1983 88.75 41.1983C88.2651 41.1983 87.8308 41.3043 87.4469 41.5165C87.0681 41.7235 86.7702 42.024 86.553 42.418C86.3409 42.8119 86.2348 43.2892 86.2348 43.8498ZM96.6969 50.668V35.1528H99.4394V40.9558H99.553C99.6944 40.673 99.8939 40.3725 100.151 40.0543C100.409 39.7311 100.758 39.4558 101.197 39.2286C101.636 38.9963 102.197 38.8801 102.879 38.8801C103.778 38.8801 104.588 39.1099 105.311 39.5695C106.038 40.024 106.614 40.6983 107.038 41.5922C107.467 42.4811 107.682 43.572 107.682 44.8649C107.682 46.1427 107.472 47.2286 107.053 48.1225C106.634 49.0165 106.063 49.6983 105.341 50.168C104.619 50.6377 103.8 50.8725 102.886 50.8725C102.22 50.8725 101.667 50.7614 101.227 50.5392C100.788 50.317 100.434 50.0493 100.167 49.7362C99.904 49.418 99.6995 49.1175 99.553 48.8346H99.3939V50.668H96.6969ZM99.3863 44.8498C99.3863 45.6023 99.4924 46.2614 99.7045 46.8271C99.9217 47.3927 100.232 47.8346 100.636 48.1528C101.045 48.4659 101.54 48.6225 102.121 48.6225C102.727 48.6225 103.235 48.4609 103.644 48.1377C104.053 47.8094 104.361 47.3624 104.568 46.7968C104.78 46.226 104.886 45.5771 104.886 44.8498C104.886 44.1276 104.783 43.4862 104.576 42.9255C104.369 42.3649 104.061 41.9255 103.651 41.6074C103.242 41.2892 102.732 41.1301 102.121 41.1301C101.535 41.1301 101.038 41.2841 100.629 41.5922C100.22 41.9003 99.9091 42.3321 99.6969 42.8877C99.4899 43.4432 99.3863 44.0973 99.3863 44.8498ZM115.089 50.8952C113.953 50.8952 112.968 50.6452 112.134 50.1452C111.301 49.6452 110.655 48.9457 110.195 48.0468C109.74 47.1478 109.513 46.0973 109.513 44.8952C109.513 43.6932 109.74 42.6402 110.195 41.7361C110.655 40.8321 111.301 40.1301 112.134 39.6301C112.968 39.1301 113.953 38.8801 115.089 38.8801C116.225 38.8801 117.21 39.1301 118.044 39.6301C118.877 40.1301 119.521 40.8321 119.975 41.7361C120.435 42.6402 120.665 43.6932 120.665 44.8952C120.665 46.0973 120.435 47.1478 119.975 48.0468C119.521 48.9457 118.877 49.6452 118.044 50.1452C117.21 50.6452 116.225 50.8952 115.089 50.8952ZM115.104 48.6983C115.72 48.6983 116.235 48.5291 116.65 48.1907C117.064 47.8473 117.372 47.3877 117.574 46.8119C117.781 46.2362 117.884 45.5947 117.884 44.8877C117.884 44.1755 117.781 43.5316 117.574 42.9558C117.372 42.375 117.064 41.9129 116.65 41.5695C116.235 41.226 115.72 41.0543 115.104 41.0543C114.473 41.0543 113.948 41.226 113.528 41.5695C113.114 41.9129 112.804 42.375 112.597 42.9558C112.395 43.5316 112.294 44.1755 112.294 44.8877C112.294 45.5947 112.395 46.2362 112.597 46.8119C112.804 47.3877 113.114 47.8473 113.528 48.1907C113.948 48.5291 114.473 48.6983 115.104 48.6983ZM126.341 50.9028C125.604 50.9028 124.939 50.7715 124.348 50.5089C123.763 50.2412 123.298 49.8473 122.955 49.3271C122.616 48.8069 122.447 48.1654 122.447 47.4028C122.447 46.7463 122.568 46.2033 122.811 45.774C123.053 45.3447 123.384 45.0013 123.803 44.7437C124.222 44.4862 124.694 44.2917 125.22 44.1604C125.75 44.024 126.298 43.9255 126.864 43.8649C127.545 43.7942 128.098 43.7311 128.523 43.6755C128.947 43.6149 129.255 43.524 129.447 43.4028C129.644 43.2766 129.742 43.0821 129.742 42.8195V42.774C129.742 42.2033 129.573 41.7614 129.235 41.4483C128.896 41.1351 128.409 40.9786 127.773 40.9786C127.101 40.9786 126.568 41.125 126.174 41.418C125.785 41.7109 125.523 42.0569 125.386 42.4558L122.826 42.0922C123.028 41.3851 123.361 40.7942 123.826 40.3195C124.29 39.8397 124.859 39.4811 125.53 39.2437C126.202 39.0013 126.944 38.8801 127.758 38.8801C128.318 38.8801 128.876 38.9457 129.432 39.0771C129.987 39.2084 130.495 39.4255 130.955 39.7286C131.414 40.0266 131.783 40.4331 132.061 40.9483C132.343 41.4634 132.485 42.1074 132.485 42.8801V50.668H129.848V49.0695H129.758C129.591 49.3927 129.356 49.6957 129.053 49.9786C128.755 50.2564 128.379 50.4811 127.924 50.6528C127.475 50.8195 126.947 50.9028 126.341 50.9028ZM127.053 48.8877C127.604 48.8877 128.081 48.7791 128.485 48.5619C128.889 48.3397 129.199 48.0468 129.417 47.6831C129.639 47.3195 129.75 46.923 129.75 46.4937V45.1225C129.664 45.1932 129.518 45.2589 129.311 45.3195C129.109 45.3801 128.881 45.4331 128.629 45.4786C128.376 45.524 128.126 45.5644 127.879 45.5998C127.631 45.6351 127.417 45.6654 127.235 45.6907C126.826 45.7463 126.46 45.8372 126.136 45.9634C125.813 46.0897 125.558 46.2665 125.371 46.4937C125.184 46.7159 125.091 47.0038 125.091 47.3574C125.091 47.8624 125.275 48.2437 125.644 48.5013C126.013 48.7589 126.482 48.8877 127.053 48.8877ZM135.242 50.668V39.0316H137.901V40.971H138.023C138.235 40.2993 138.598 39.7816 139.114 39.418C139.634 39.0493 140.227 38.8649 140.894 38.8649C141.045 38.8649 141.215 38.8725 141.401 38.8877C141.593 38.8978 141.752 38.9154 141.879 38.9407V41.4634C141.763 41.423 141.578 41.3877 141.326 41.3574C141.078 41.322 140.838 41.3043 140.606 41.3043C140.106 41.3043 139.657 41.4129 139.258 41.6301C138.864 41.8422 138.553 42.1377 138.326 42.5165C138.098 42.8952 137.985 43.3321 137.985 43.8271V50.668H135.242ZM147.54 50.8725C146.626 50.8725 145.807 50.6377 145.085 50.168C144.363 49.6983 143.792 49.0165 143.373 48.1225C142.954 47.2286 142.744 46.1427 142.744 44.8649C142.744 43.572 142.956 42.4811 143.381 41.5922C143.81 40.6983 144.388 40.024 145.115 39.5695C145.843 39.1099 146.653 38.8801 147.547 38.8801C148.229 38.8801 148.79 38.9963 149.229 39.2286C149.669 39.4558 150.017 39.7311 150.275 40.0543C150.532 40.3725 150.732 40.673 150.873 40.9558H150.987V35.1528H153.737V50.668H151.04V48.8346H150.873C150.732 49.1175 150.527 49.418 150.259 49.7362C149.992 50.0493 149.638 50.317 149.199 50.5392C148.759 50.7614 148.206 50.8725 147.54 50.8725ZM148.305 48.6225C148.886 48.6225 149.381 48.4659 149.79 48.1528C150.199 47.8346 150.509 47.3927 150.722 46.8271C150.934 46.2614 151.04 45.6023 151.04 44.8498C151.04 44.0973 150.934 43.4432 150.722 42.8877C150.514 42.3321 150.206 41.9003 149.797 41.5922C149.393 41.2841 148.896 41.1301 148.305 41.1301C147.694 41.1301 147.184 41.2892 146.775 41.6074C146.365 41.9255 146.057 42.3649 145.85 42.9255C145.643 43.4862 145.54 44.1276 145.54 44.8498C145.54 45.5771 145.643 46.226 145.85 46.7968C146.062 47.3624 146.373 47.8094 146.782 48.1377C147.196 48.4609 147.704 48.6225 148.305 48.6225Z" fill="white"/>
<path d="M42.6666 85.3346C42.6666 79.4436 47.4423 74.668 53.3333 74.668H368V284.001H42.6666V85.3346Z" fill="white"/>
<rect x="65.3334" y="101.334" width="80" height="21.3333" rx="10.6667" fill="#F2F3F5"/>
<rect x="164" y="101.334" width="80" height="21.3333" rx="10.6667" fill="#F2F3F5"/>
<rect x="262.667" y="101.334" width="80" height="21.3333" rx="10.6667" fill="#F2F3F5"/>
<rect x="262.667" y="136" width="80" height="98.6667" rx="10.6667" fill="#F2F3F5"/>
<rect x="65.3334" y="136" width="178.667" height="98.6667" rx="10.6667" fill="#F2F3F5"/>
</g>
<defs>
<clipPath id="clip0_6779_13312">
<rect width="368" height="250.667" rx="21.3333" fill="white"/>
</clipPath>
</defs>
</svg>
