<svg width="368" height="251" viewBox="0 0 368 251" fill="none" xmlns="http://www.w3.org/2000/svg">
<g clip-path="url(#clip0_6779_13343)">
<rect width="368" height="250.667" rx="21.3333" fill="#FF7C32"/>
<path d="M46.1895 50.668H43.1895L48.6516 35.1528H52.1213L57.591 50.668H54.591L50.4471 38.3346H50.3258L46.1895 50.668ZM46.288 44.5846H54.4698V46.8422H46.288V44.5846ZM63.4774 50.8725C62.5632 50.8725 61.745 50.6377 61.0228 50.168C60.3006 49.6983 59.7299 49.0165 59.3107 48.1225C58.8915 47.2286 58.6819 46.1427 58.6819 44.8649C58.6819 43.572 58.894 42.4811 59.3183 41.5922C59.7476 40.6983 60.3258 40.024 61.0531 39.5695C61.7804 39.1099 62.591 38.8801 63.4849 38.8801C64.1667 38.8801 64.7274 38.9963 65.1667 39.2286C65.6061 39.4558 65.9546 39.7311 66.2122 40.0543C66.4698 40.3725 66.6693 40.673 66.8107 40.9558H66.9243V35.1528H69.6743V50.668H66.9774V48.8346H66.8107C66.6693 49.1175 66.4647 49.418 66.1971 49.7362C65.9294 50.0493 65.5758 50.317 65.1364 50.5392C64.6971 50.7614 64.144 50.8725 63.4774 50.8725ZM64.2425 48.6225C64.8233 48.6225 65.3183 48.4659 65.7274 48.1528C66.1364 47.8346 66.4471 47.3927 66.6592 46.8271C66.8713 46.2614 66.9774 45.6023 66.9774 44.8498C66.9774 44.0973 66.8713 43.4432 66.6592 42.8877C66.4521 42.3321 66.144 41.9003 65.7349 41.5922C65.3309 41.2841 64.8334 41.1301 64.2425 41.1301C63.6314 41.1301 63.1213 41.2892 62.7122 41.6074C62.3031 41.9255 61.995 42.3649 61.788 42.9255C61.5809 43.4862 61.4774 44.1276 61.4774 44.8498C61.4774 45.5771 61.5809 46.226 61.788 46.7968C62.0001 47.3624 62.3107 47.8094 62.7198 48.1377C63.1339 48.4609 63.6415 48.6225 64.2425 48.6225ZM72.5967 50.668V39.0316H75.2179V41.0089H75.3542C75.5967 40.3422 75.9982 39.822 76.5588 39.4483C77.1194 39.0695 77.7886 38.8801 78.5664 38.8801C79.3542 38.8801 80.0184 39.072 80.5588 39.4558C81.1042 39.8346 81.4881 40.3523 81.7103 41.0089H81.8315C82.0891 40.3624 82.5234 39.8473 83.1346 39.4634C83.7507 39.0745 84.4805 38.8801 85.3239 38.8801C86.3947 38.8801 87.2684 39.2185 87.9452 39.8952C88.6219 40.572 88.9603 41.5594 88.9603 42.8574V50.668H86.2103V43.2816C86.2103 42.5594 86.0184 42.0316 85.6346 41.6983C85.2507 41.3599 84.781 41.1907 84.2255 41.1907C83.5638 41.1907 83.0462 41.3978 82.6724 41.8119C82.3037 42.221 82.1194 42.7538 82.1194 43.4104V50.668H79.43V43.168C79.43 42.567 79.2482 42.0872 78.8846 41.7286C78.526 41.37 78.0563 41.1907 77.4755 41.1907C77.0815 41.1907 76.7229 41.2917 76.3997 41.4937C76.0765 41.6907 75.8189 41.971 75.627 42.3346C75.4351 42.6932 75.3391 43.1124 75.3391 43.5922V50.668H72.5967ZM91.7425 50.668V39.0316H94.4849V50.668H91.7425ZM93.1213 37.3801C92.687 37.3801 92.3132 37.2362 92.0001 36.9483C91.687 36.6553 91.5304 36.3043 91.5304 35.8952C91.5304 35.4811 91.687 35.1301 92.0001 34.8422C92.3132 34.5493 92.687 34.4028 93.1213 34.4028C93.5607 34.4028 93.9344 34.5493 94.2425 34.8422C94.5556 35.1301 94.7122 35.4811 94.7122 35.8952C94.7122 36.3043 94.5556 36.6553 94.2425 36.9483C93.9344 37.2362 93.5607 37.3801 93.1213 37.3801ZM100.047 43.8498V50.668H97.305V39.0316H99.9262V41.0089H100.063C100.33 40.3574 100.757 39.8397 101.343 39.4558C101.934 39.072 102.664 38.8801 103.532 38.8801C104.335 38.8801 105.035 39.0518 105.631 39.3952C106.232 39.7387 106.696 40.2362 107.025 40.8877C107.358 41.5392 107.522 42.3296 107.517 43.2589V50.668H104.775V43.6831C104.775 42.9053 104.573 42.2968 104.169 41.8574C103.77 41.418 103.217 41.1983 102.51 41.1983C102.03 41.1983 101.603 41.3043 101.229 41.5165C100.861 41.7235 100.57 42.024 100.358 42.418C100.151 42.8119 100.047 43.2892 100.047 43.8498ZM115.597 55.0316V39.0316H118.294V40.9558H118.453C118.594 40.673 118.794 40.3725 119.051 40.0543C119.309 39.7311 119.657 39.4558 120.097 39.2286C120.536 38.9963 121.097 38.8801 121.778 38.8801C122.677 38.8801 123.488 39.1099 124.21 39.5695C124.938 40.024 125.513 40.6983 125.938 41.5922C126.367 42.4811 126.582 43.572 126.582 44.8649C126.582 46.1427 126.372 47.2286 125.953 48.1225C125.534 49.0165 124.963 49.6983 124.241 50.168C123.518 50.6377 122.7 50.8725 121.786 50.8725C121.119 50.8725 120.566 50.7614 120.127 50.5392C119.688 50.317 119.334 50.0493 119.066 49.7362C118.804 49.418 118.599 49.1175 118.453 48.8346H118.339V55.0316H115.597ZM118.286 44.8498C118.286 45.6023 118.392 46.2614 118.604 46.8271C118.821 47.3927 119.132 47.8346 119.536 48.1528C119.945 48.4659 120.44 48.6225 121.021 48.6225C121.627 48.6225 122.135 48.4609 122.544 48.1377C122.953 47.8094 123.261 47.3624 123.468 46.7968C123.68 46.226 123.786 45.5771 123.786 44.8498C123.786 44.1276 123.683 43.4862 123.475 42.9255C123.268 42.3649 122.96 41.9255 122.551 41.6074C122.142 41.2892 121.632 41.1301 121.021 41.1301C120.435 41.1301 119.938 41.2841 119.528 41.5922C119.119 41.9003 118.809 42.3321 118.597 42.8877C118.39 43.4432 118.286 44.0973 118.286 44.8498ZM132.278 50.9028C131.541 50.9028 130.877 50.7715 130.286 50.5089C129.7 50.2412 129.236 49.8473 128.892 49.3271C128.554 48.8069 128.385 48.1654 128.385 47.4028C128.385 46.7463 128.506 46.2033 128.748 45.774C128.991 45.3447 129.321 45.0013 129.741 44.7437C130.16 44.4862 130.632 44.2917 131.157 44.1604C131.688 44.024 132.236 43.9255 132.801 43.8649C133.483 43.7942 134.036 43.7311 134.46 43.6755C134.885 43.6149 135.193 43.524 135.385 43.4028C135.582 43.2766 135.68 43.0821 135.68 42.8195V42.774C135.68 42.2033 135.511 41.7614 135.172 41.4483C134.834 41.1351 134.347 40.9786 133.71 40.9786C133.039 40.9786 132.506 41.125 132.112 41.418C131.723 41.7109 131.46 42.0569 131.324 42.4558L128.763 42.0922C128.965 41.3851 129.299 40.7942 129.763 40.3195C130.228 39.8397 130.796 39.4811 131.468 39.2437C132.14 39.0013 132.882 38.8801 133.695 38.8801C134.256 38.8801 134.814 38.9457 135.369 39.0771C135.925 39.2084 136.433 39.4255 136.892 39.7286C137.352 40.0266 137.72 40.4331 137.998 40.9483C138.281 41.4634 138.422 42.1074 138.422 42.8801V50.668H135.786V49.0695H135.695C135.528 49.3927 135.294 49.6957 134.991 49.9786C134.693 50.2564 134.316 50.4811 133.862 50.6528C133.412 50.8195 132.885 50.9028 132.278 50.9028ZM132.991 48.8877C133.541 48.8877 134.018 48.7791 134.422 48.5619C134.826 48.3397 135.137 48.0468 135.354 47.6831C135.576 47.3195 135.688 46.923 135.688 46.4937V45.1225C135.602 45.1932 135.455 45.2589 135.248 45.3195C135.046 45.3801 134.819 45.4331 134.566 45.4786C134.314 45.524 134.064 45.5644 133.816 45.5998C133.569 45.6351 133.354 45.6654 133.172 45.6907C132.763 45.7463 132.397 45.8372 132.074 45.9634C131.751 46.0897 131.496 46.2665 131.309 46.4937C131.122 46.7159 131.028 47.0038 131.028 47.3574C131.028 47.8624 131.213 48.2437 131.582 48.5013C131.95 48.7589 132.42 48.8877 132.991 48.8877ZM143.922 43.8498V50.668H141.18V39.0316H143.801V41.0089H143.938C144.205 40.3574 144.632 39.8397 145.218 39.4558C145.809 39.072 146.539 38.8801 147.407 38.8801C148.21 38.8801 148.91 39.0518 149.506 39.3952C150.107 39.7387 150.571 40.2362 150.9 40.8877C151.233 41.5392 151.397 42.3296 151.392 43.2589V50.668H148.65V43.6831C148.65 42.9053 148.448 42.2968 148.044 41.8574C147.645 41.418 147.092 41.1983 146.385 41.1983C145.905 41.1983 145.478 41.3043 145.104 41.5165C144.736 41.7235 144.445 42.024 144.233 42.418C144.026 42.8119 143.922 43.2892 143.922 43.8498ZM159.332 50.8952C158.165 50.8952 157.157 50.6528 156.309 50.168C155.465 49.6781 154.816 48.9862 154.362 48.0922C153.907 47.1932 153.68 46.1351 153.68 44.918C153.68 43.721 153.907 42.6705 154.362 41.7665C154.821 40.8574 155.463 40.1503 156.286 39.6452C157.109 39.1351 158.076 38.8801 159.188 38.8801C159.905 38.8801 160.582 38.9963 161.218 39.2286C161.859 39.4558 162.425 39.8094 162.915 40.2892C163.41 40.769 163.799 41.3801 164.082 42.1225C164.364 42.8599 164.506 43.7387 164.506 44.7589V45.5998H154.968V43.7513H161.877C161.872 43.226 161.758 42.7589 161.536 42.3498C161.314 41.9356 161.003 41.6099 160.604 41.3725C160.21 41.1351 159.751 41.0165 159.225 41.0165C158.665 41.0165 158.172 41.1528 157.748 41.4255C157.324 41.6932 156.993 42.0468 156.756 42.4861C156.523 42.9205 156.405 43.3978 156.4 43.918V45.5316C156.4 46.2084 156.523 46.7892 156.771 47.274C157.018 47.7538 157.364 48.1225 157.809 48.3801C158.253 48.6326 158.773 48.7589 159.369 48.7589C159.768 48.7589 160.13 48.7033 160.453 48.5922C160.776 48.476 161.056 48.3069 161.294 48.0846C161.531 47.8624 161.71 47.5872 161.832 47.2589L164.392 47.5468C164.231 48.2235 163.922 48.8144 163.468 49.3195C163.018 49.8195 162.443 50.2084 161.741 50.4862C161.039 50.7589 160.236 50.8952 159.332 50.8952ZM169.568 35.1528V50.668H166.826V35.1528H169.568Z" fill="white"/>
<path d="M42.6667 85.3346C42.6667 79.4436 47.4424 74.668 53.3334 74.668H368V284.001H42.6667V85.3346Z" fill="white"/>
<rect x="65.3333" y="101.334" width="80" height="21.3333" rx="10.6667" fill="#F2F3F5"/>
<rect x="164" y="101.334" width="80" height="21.3333" rx="10.6667" fill="#F2F3F5"/>
<rect x="262.667" y="101.334" width="80" height="21.3333" rx="10.6667" fill="#F2F3F5"/>
<rect x="65.3333" y="136" width="178.667" height="21.3333" rx="10.6667" fill="#F2F3F5"/>
<rect x="65.3333" y="170.668" width="178.667" height="21.3333" rx="10.6667" fill="#F2F3F5"/>
<rect x="65.3333" y="205.334" width="178.667" height="21.3333" rx="10.6667" fill="#F2F3F5"/>
<path d="M292.667 148.001L298.863 155.231C299.848 156.379 301.59 156.48 302.7 155.452L318.667 140.668" stroke="#FF9882" stroke-width="4" stroke-linecap="round" stroke-linejoin="round"/>
<path d="M292.667 178.001L298.863 185.231C299.848 186.379 301.59 186.48 302.7 185.452L318.667 170.668" stroke="#FF9882" stroke-width="4" stroke-linecap="round" stroke-linejoin="round"/>
<path d="M292.667 212.001L298.863 219.231C299.848 220.379 301.59 220.48 302.7 219.452L318.667 204.668" stroke="#FF9882" stroke-width="4" stroke-linecap="round" stroke-linejoin="round"/>
</g>
<defs>
<clipPath id="clip0_6779_13343">
<rect width="368" height="250.667" rx="21.3333" fill="white"/>
</clipPath>
</defs>
</svg>
