<svg width="24" height="24" viewBox="0 0 24 24" fill="none" xmlns="http://www.w3.org/2000/svg">
<path d="M23.8565 4.15756C23.7912 4.10341 23.7084 4.07505 23.6237 4.07782C23.3924 4.07782 23.0934 4.23729 22.9332 4.31703C22.9052 4.33217 22.8837 4.34334 22.8686 4.34972C22.5996 4.48213 22.3061 4.55759 22.0066 4.57138C21.6989 4.58095 21.4334 4.59928 21.0897 4.63516C19.0421 4.84806 18.134 6.41085 17.2561 7.9258C16.7777 8.74865 16.2849 9.60021 15.608 10.2604C15.468 10.3962 15.3191 10.5224 15.1623 10.6384C14.4622 11.1598 13.5827 11.529 12.8954 11.7921C12.2368 12.0433 11.5176 12.2705 10.8223 12.489C10.1845 12.6891 9.58565 12.8789 9.03309 13.0838C8.78352 13.1763 8.57143 13.2433 8.38485 13.3095C7.88173 13.4769 7.51814 13.5981 6.9887 13.9609C6.78219 14.102 6.57488 14.2551 6.43056 14.3707C6.01069 14.7067 5.63909 15.099 5.32625 15.5364C5.05795 15.9399 4.74794 16.3141 4.40133 16.6527C4.2897 16.7619 4.09116 16.8122 3.79375 16.8122C3.44532 16.8122 3.02272 16.7404 2.57542 16.6647C2.11535 16.5849 1.63854 16.5052 1.2303 16.5052C0.897807 16.5052 0.644253 16.5586 0.453688 16.6694C0.453688 16.6694 0.134751 16.856 0 17.0968L0.132359 17.1566C0.337314 17.267 0.527521 17.4029 0.698472 17.5609C0.875633 17.725 1.07313 17.8657 1.28611 17.9795C1.35416 18.0066 1.4158 18.0476 1.46711 18.0999C1.4113 18.1796 1.32917 18.2873 1.24385 18.3997C0.771827 19.0168 0.496744 19.4067 0.654618 19.6188C0.728177 19.6579 0.810551 19.6774 0.893821 19.6754C1.92239 19.6754 2.47415 19.4075 3.17342 19.0695C3.37595 18.9714 3.58485 18.8701 3.82405 18.7665C4.23229 18.5894 4.67243 18.3072 5.13807 18.0074C5.75522 17.6087 6.39309 17.2013 7.01103 17.0027C7.52016 16.8476 8.05043 16.7731 8.58259 16.7819C9.2388 16.7819 9.92452 16.8696 10.5879 16.9549C11.0831 17.0179 11.595 17.0833 12.0973 17.1144C12.2926 17.1263 12.4736 17.1319 12.649 17.1319C12.8842 17.1329 13.1193 17.1204 13.3531 17.0944L13.4089 17.0753C13.7613 16.8584 13.9264 16.3936 14.0866 15.9447C14.1895 15.6552 14.2756 15.3953 14.4096 15.2271C14.418 15.2189 14.4271 15.2114 14.4367 15.2047C14.4431 15.2011 14.4506 15.1999 14.4579 15.2012C14.4652 15.2025 14.4718 15.2063 14.4765 15.2119C14.4765 15.2119 14.4765 15.2159 14.4765 15.2239C14.392 16.9828 13.6872 18.0983 12.9712 19.0902L12.4928 19.6029C12.4928 19.6029 13.1617 19.6029 13.5421 19.4562C14.931 19.0407 15.9803 18.1254 16.7434 16.6655C16.9315 16.2908 17.0997 15.9065 17.2473 15.5141C17.2601 15.4814 17.3813 15.4208 17.3693 15.5898C17.3693 15.6401 17.3621 15.6951 17.3581 15.7493C17.3581 15.7836 17.3534 15.8187 17.3518 15.8538C17.3318 16.093 17.272 16.6168 17.272 16.6168L17.701 16.3872C18.7375 15.7318 19.5349 14.4146 20.1377 12.363C20.3896 11.5083 20.5738 10.6591 20.7365 9.91038C20.931 9.01497 21.0993 8.24154 21.2946 7.94254C21.596 7.47291 22.0561 7.15556 22.501 6.84779L22.6828 6.72181C23.2409 6.32872 23.7991 5.87503 23.9219 5.02985V5.01071C24.0175 4.39277 23.9418 4.23171 23.8565 4.15756Z" fill="#003545"/>
</svg>
