<svg width="24" height="24" viewBox="0 0 24 24" fill="none" xmlns="http://www.w3.org/2000/svg">
<g clip-path="url(#clip0_4722_1360)">
<path d="M22.0919 18.3948C20.7871 18.3623 19.7758 18.4929 18.9276 18.8516C18.683 18.9494 18.2915 18.9495 18.2588 19.2594C18.3894 19.39 18.4057 19.602 18.5198 19.7813C18.7157 20.1075 19.0581 20.548 19.368 20.7764C19.7105 21.0373 20.0531 21.2982 20.4118 21.5266C21.048 21.9181 21.7657 22.1464 22.3855 22.5379C22.7445 22.7661 23.1031 23.0598 23.462 23.3045C23.6414 23.4349 23.7555 23.647 23.9839 23.7285V23.6796C23.8697 23.5328 23.8371 23.3208 23.723 23.1577C23.56 22.9946 23.3968 22.8477 23.2337 22.6846C22.7606 22.0486 22.1735 21.494 21.5373 21.0373C21.0155 20.6784 19.8736 20.1891 19.6616 19.5856C19.6616 19.5856 19.6452 19.5693 19.629 19.5531C19.9878 19.5204 20.4118 19.39 20.7544 19.292C21.309 19.1452 21.8146 19.1778 22.3855 19.0311C22.6464 18.9658 22.9075 18.8843 23.1684 18.8027V18.656C22.8749 18.3623 22.6628 17.9709 22.3529 17.6936C21.5211 16.9758 20.6076 16.2746 19.6616 15.6874C19.1559 15.3612 18.5035 15.1491 17.9653 14.8719C17.7696 14.7738 17.4433 14.725 17.3292 14.5619C17.0355 14.2031 16.8724 13.7301 16.6604 13.306C16.1876 12.4088 15.7307 11.414 15.3229 10.468C15.0294 9.83184 14.85 9.19568 14.4911 8.60855C12.8111 5.83574 10.9843 4.15576 8.17887 2.50832C7.57536 2.16584 6.85775 2.01901 6.09113 1.83963C5.68347 1.82326 5.27559 1.79072 4.86783 1.77435C4.6069 1.66015 4.34586 1.35031 4.11747 1.20347C3.18795 0.616228 0.790161 -0.655882 0.105095 1.0241C-0.335313 2.08429 0.757521 3.12811 1.13264 3.66644C1.41005 4.04156 1.7688 4.4656 1.96455 4.88974C2.07874 5.16684 2.11128 5.46061 2.22548 5.75419C2.48651 6.47169 2.73106 7.27105 3.07365 7.93986C3.25313 8.28234 3.44877 8.6412 3.67716 8.95103C3.80763 9.13041 4.03592 9.21206 4.08493 9.50563C3.85664 9.83185 3.84027 10.3212 3.7097 10.7289C3.12256 12.572 3.35095 14.8555 4.18275 16.2093C4.44368 16.6169 5.06357 17.5142 5.89537 17.1716C6.62935 16.8781 6.46625 15.9483 6.67826 15.1328C6.72728 14.937 6.69464 14.8066 6.79246 14.6761C6.79254 14.6924 6.79246 14.7088 6.79246 14.7088C7.02085 15.1654 7.24914 15.6059 7.46115 16.0625C7.96685 16.8617 8.84756 17.6936 9.58154 18.2482C9.97314 18.5417 10.283 19.0474 10.7723 19.2268V19.1778H10.7397C10.6417 19.031 10.495 18.9658 10.3645 18.8516C10.071 18.558 9.74464 18.1992 9.51636 17.873C8.83139 16.9595 8.22777 15.9483 7.68954 14.9044C7.42862 14.3988 7.20023 13.8442 6.98821 13.3386C6.89028 13.1428 6.89028 12.8493 6.72718 12.7515C6.48252 13.1102 6.12376 13.4202 5.94429 13.8606C5.63455 14.5619 5.6018 15.4264 5.48761 16.3235C5.42243 16.3398 5.45497 16.3235 5.42232 16.3561C4.90047 16.2255 4.72099 15.6874 4.52523 15.2306C4.03591 14.0726 3.95436 12.2132 4.3785 10.8758C4.4927 10.5332 4.98201 9.45672 4.78627 9.13051C4.68844 8.82057 4.36213 8.64119 4.18275 8.39653C3.97073 8.08659 3.74234 7.69519 3.59561 7.35261C3.20411 6.43925 3.00836 5.42798 2.58433 4.51451C2.38858 4.09037 2.0461 3.65007 1.7688 3.25868C1.45896 2.81827 1.11637 2.50832 0.871709 1.98636C0.790259 1.80699 0.67596 1.51341 0.806425 1.31767C0.839067 1.1872 0.904248 1.13829 1.03482 1.10565C1.24683 0.926168 1.85035 1.15456 2.06236 1.25238C2.66588 1.49694 3.17147 1.72543 3.67716 2.06791C3.90544 2.23102 4.1501 2.54096 4.44368 2.62252H4.78626C5.30822 2.73661 5.89536 2.65516 6.38468 2.80189C7.24923 3.07909 8.03201 3.48696 8.73346 3.92737C10.8702 5.28113 12.6316 7.20587 13.8224 9.50564C14.0182 9.88066 14.0996 10.2233 14.2791 10.6147C14.6217 11.414 15.0457 12.2295 15.3882 13.0124C15.7307 13.7789 16.0569 14.5619 16.5462 15.1981C16.791 15.5405 17.7695 15.72 18.2099 15.8994C18.5361 16.0462 19.0418 16.1767 19.3354 16.3561C19.8899 16.6985 20.4445 17.0901 20.9664 17.4652C21.2275 17.6609 22.0429 18.0687 22.0919 18.3948L22.0919 18.3948Z" fill="#00546B"/>
<path d="M5.45507 4.2207C5.17777 4.2207 4.98213 4.25345 4.78638 4.30236C4.78638 4.30228 4.78638 4.31873 4.78638 4.335H4.81902C4.94959 4.59593 5.17777 4.77541 5.34088 5.0037C5.47145 5.26463 5.58554 5.52566 5.7161 5.78669C5.73237 5.77032 5.74864 5.75405 5.74864 5.75405C5.97714 5.59084 6.09123 5.32991 6.09123 4.93852C5.9933 4.82432 5.97703 4.71013 5.89548 4.59593C5.79766 4.43272 5.58554 4.35127 5.45507 4.2207Z" fill="#00546B"/>
</g>
<defs>
<clipPath id="clip0_4722_1360">
<rect width="24" height="24" fill="white"/>
</clipPath>
</defs>
</svg>
