<svg width="24" height="24" viewBox="0 0 24 24" fill="none" xmlns="http://www.w3.org/2000/svg">
<g clip-path="url(#clip0_4722_1351)">
<path d="M8.42186 2.00334C9.82964 0.595558 12.5279 0.830187 13.701 1.12347C16.6339 0.243598 22.4996 -0.108376 22.4996 5.52273C22.4996 9.40377 20.8946 10.6099 19.4546 11.9435C19.0033 13.3227 22.4996 14.23 22.4996 15.2013C22.4996 16.1725 20.3293 17.8408 17.2115 17.8408C17.113 22.4376 16.1881 23.9998 13.701 23.9998C11.5894 23.9998 11.0614 21.9468 11.0614 20.4804C11.0614 20.098 11.0016 19.6096 10.9132 19.0966H7.71356C6.30578 19.0966 6.24713 17.5647 5.95384 16.9609C5.37401 17.1582 4.05668 17.8408 3.31426 17.337C1.01194 15.7747 -0.37673 3.763 1.38299 2.00334C2.79076 0.595596 6.66215 1.41678 8.42186 2.00334Z" fill="#3D6288"/>
<path d="M13.701 1.12347C12.5279 0.830187 9.82964 0.595558 8.42186 2.00334M13.701 1.12347L8.42186 2.00334M13.701 1.12347C16.6339 0.243598 22.4996 -0.108376 22.4996 5.52273C22.4996 9.40377 20.8946 10.6099 19.4546 11.9435M13.701 1.12347L19.4546 11.9435M13.701 1.12347C14.8817 2.06803 17.1271 4.11534 18.3247 5.97949M13.701 1.12347L18.3247 5.97949M8.42186 2.00334C6.66215 1.41678 2.79076 0.595596 1.38299 2.00334C-0.37673 3.763 1.01194 15.7747 3.31426 17.337C4.05668 17.8408 5.37401 17.1582 5.95384 16.9609M8.42186 2.00334L5.95384 16.9609M8.42186 2.00334C8.00899 3.03552 7.30549 5.14299 6.92506 7.28248M8.42186 2.00334L6.92506 7.28248M19.4546 11.9435C19.0033 13.3227 22.4996 14.23 22.4996 15.2013C22.4996 16.1725 20.3293 17.8408 17.2115 17.8408M19.4546 11.9435L17.2115 17.8408M19.4546 11.9435C18.6887 12.6528 17.9693 13.3982 17.563 14.6013M19.4546 11.9435L17.563 14.6013M18.3247 5.97949C18.6146 6.43062 18.8431 6.87103 18.9802 7.28248C19.6841 9.39415 17.2204 14.3214 17.2204 16.9609M18.3247 5.97949L17.2204 16.9609M18.3247 5.97949C17.3701 5.82724 15.2848 5.8747 14.5809 7.28248C13.877 8.69026 16.2757 12.7483 17.563 14.6013M18.3247 5.97949L17.563 14.6013M5.95384 16.9609C6.66214 16.4571 7.99606 15.1881 8.42186 14.23M5.95384 16.9609L8.42186 14.23M5.95384 16.9609C6.24713 17.5647 6.30578 19.0966 7.71356 19.0966C9.47329 19.0966 10.4332 19.0966 10.9132 19.0966M6.92506 7.28248C6.76501 8.18257 6.66214 9.08832 6.66214 9.92206C6.66214 12.7376 7.83529 13.6434 8.42186 14.23M6.92506 7.28248L8.42186 14.23M6.92506 7.28248C7.71728 6.9892 9.4777 6.57859 10.1816 7.28248C11.0614 8.16234 11.6179 10.5688 11.0614 11.6818C10.1816 13.4415 10.3245 14.3149 9.95603 15.6772M6.92506 7.28248L9.95603 15.6772M8.42186 14.23C9.03017 14.5341 9.63848 15.2589 9.95603 15.6772M8.42186 14.23L9.95603 15.6772M9.95603 15.6772C9.99044 15.7225 10.0214 15.7644 10.0486 15.8016C10.1388 15.9249 10.2033 16.0641 10.2442 16.2112C10.3826 16.7095 10.7177 17.9634 10.9132 19.0966M9.95603 15.6772L10.9132 19.0966M17.2204 16.9609C17.2204 17.2659 17.2175 17.559 17.2115 17.8408M17.2204 16.9609L17.2115 17.8408M17.2204 16.9609C17.2204 16.0042 17.3479 15.2386 17.563 14.6013M17.2204 16.9609L17.563 14.6013M17.2115 17.8408C17.113 22.4376 16.1881 23.9998 13.701 23.9998C11.5894 23.9998 11.0614 21.9468 11.0614 20.4804C11.0614 20.098 11.0016 19.6096 10.9132 19.0966M17.2115 17.8408L10.9132 19.0966" stroke="white" stroke-width="1.05" stroke-linecap="round" stroke-linejoin="round"/>
<g clip-path="url(#clip1_4722_1351)">
<path d="M119.648 80.2117C105.73 79.8646 94.9428 81.2573 85.8955 85.084C83.2858 86.1274 79.1099 86.1285 78.7617 89.4335C80.1544 90.8262 80.328 93.0877 81.546 95.0011C83.6351 98.4796 87.2872 103.178 90.5933 105.615C94.2464 108.398 97.9006 111.181 101.727 113.617C108.513 117.793 116.169 120.228 122.78 124.404C126.609 126.838 130.434 129.972 134.262 132.581C136.176 133.972 137.393 136.235 139.829 137.104V136.583C138.611 135.017 138.263 132.755 137.046 131.015C135.308 129.275 133.567 127.709 131.827 125.969C126.781 119.185 120.518 113.269 113.732 108.398C108.166 104.57 95.9863 99.3506 93.7247 92.9131C93.7247 92.9131 93.5501 92.7395 93.3765 92.566C97.2043 92.2178 101.727 90.8262 105.382 89.7816C111.297 88.2154 116.69 88.5636 122.78 86.9984C125.563 86.302 128.347 85.4322 131.13 84.5623V82.9971C128 79.8645 125.738 75.6897 122.431 72.7318C113.559 65.0751 103.815 57.5953 93.7247 51.3324C88.3306 47.8528 81.3714 45.5902 75.6304 42.6334C73.5435 41.5877 70.0627 41.0671 68.8458 39.3273C65.7132 35.4995 63.9734 30.4548 61.7119 25.9306C56.6683 16.3606 51.7948 5.74932 47.4453 -4.34132C44.315 -11.127 42.4006 -17.9127 38.5728 -24.1755C20.6531 -53.7521 1.16704 -71.6719 -28.7578 -89.2445C-35.1952 -92.8977 -42.8497 -94.4639 -51.027 -96.3773C-55.3754 -96.5519 -59.726 -96.899 -64.0756 -97.0736C-66.8588 -98.2917 -69.6431 -101.597 -72.0793 -103.163C-81.9942 -109.427 -107.571 -122.996 -114.878 -105.076C-119.576 -93.7675 -107.919 -82.6335 -103.918 -76.8913C-100.959 -72.89 -97.1318 -68.3669 -95.0439 -63.8427C-93.8258 -60.8871 -93.4787 -57.7534 -92.2606 -54.622C-89.4763 -46.9687 -86.8677 -38.4421 -83.2134 -31.3082C-81.299 -27.655 -79.2121 -23.8272 -76.7759 -20.5223C-75.3843 -18.609 -72.9493 -17.738 -72.4264 -14.6066C-74.8615 -11.127 -75.0361 -5.90753 -76.4289 -1.55799C-82.6917 18.1015 -80.2555 42.4588 -71.383 56.8989C-68.5998 61.2473 -61.9877 70.8185 -53.115 67.1642C-45.2859 64.0328 -47.0257 54.1156 -44.7642 45.4166C-44.2414 43.3275 -44.5896 41.937 -43.5461 40.5454C-43.5452 40.7189 -43.5461 40.8936 -43.5461 40.8936C-41.11 45.7648 -38.6749 50.4625 -36.4134 55.3337C-31.0193 63.858 -21.625 72.7317 -13.796 78.6475C-9.61888 81.7778 -6.31392 87.1719 -1.09454 89.0863V88.5635H-1.44272C-2.48726 86.9973 -4.05241 86.302 -5.44404 85.0839C-8.57547 81.9525 -12.0562 78.1247 -14.4912 74.6451C-21.7975 64.9015 -28.2361 54.1157 -33.9772 42.9805C-36.7605 37.5876 -39.1966 31.6718 -41.4581 26.2788C-42.5027 24.1897 -42.5027 21.0594 -44.2425 20.016C-46.8522 23.8427 -50.6789 27.1487 -52.5933 31.8464C-55.8972 39.3274 -56.2465 48.5481 -57.4645 58.117C-58.1598 58.2916 -57.8127 58.117 -58.1609 58.4651C-63.7274 57.0724 -65.6418 51.3324 -67.7299 46.4601C-72.9493 34.1079 -73.8192 14.2737 -69.295 0.008255C-68.0769 -3.646 -62.8575 -15.1283 -64.9455 -18.6079C-65.989 -21.914 -69.4697 -23.8273 -71.383 -26.437C-73.6445 -29.7431 -76.0807 -33.9179 -77.6459 -37.5721C-81.8218 -47.3146 -83.9098 -58.1016 -88.4328 -67.8452C-90.5208 -72.3693 -94.174 -77.0659 -97.1318 -81.2408C-100.437 -85.9385 -104.091 -89.2445 -106.701 -94.8121C-107.57 -96.7255 -108.789 -99.8569 -107.397 -101.945C-107.049 -103.337 -106.354 -103.858 -104.961 -104.206C-102.699 -106.121 -96.262 -103.685 -94.0005 -102.641C-87.563 -100.033 -82.1701 -97.5954 -76.776 -93.9422C-74.341 -92.2024 -71.7313 -88.8964 -68.5998 -88.0265H-64.9456C-59.378 -86.8095 -53.1151 -87.6783 -47.8957 -86.1131C-38.6739 -83.1563 -30.3242 -78.8057 -22.8421 -74.108C-0.0500336 -59.6679 18.7385 -39.1374 31.44 -14.6065C33.528 -10.6063 34.3968 -6.95097 36.3112 -2.77609C39.9655 5.74938 44.4885 14.4484 48.1417 22.7992C51.7948 30.9754 55.2744 39.3274 60.4938 46.1131C63.1046 49.7651 73.5423 51.6796 78.24 53.594C81.7196 55.1592 87.1136 56.5519 90.2451 58.4652C96.1597 62.1173 102.076 66.2943 107.643 70.2957C110.427 72.3826 119.125 76.7332 119.648 80.2117L119.648 80.2117Z" fill="#00546B"/>
</g>
</g>
<defs>
<clipPath id="clip0_4722_1351">
<rect width="24" height="24" fill="white"/>
</clipPath>
<clipPath id="clip1_4722_1351">
<rect width="256" height="252" fill="white" transform="translate(-116 -114)"/>
</clipPath>
</defs>
</svg>
