<svg width="24" height="24" viewBox="0 0 24 24" fill="none" xmlns="http://www.w3.org/2000/svg">
<g clip-path="url(#clip0_4722_1781)">
<path d="M23.5429 17.6924C22.2354 18.374 15.4615 21.1592 14.0194 21.9108C12.5773 22.6626 11.7761 22.6556 10.6369 22.1111C9.49771 21.5666 2.28915 18.6548 0.990634 18.0341C0.341595 17.7239 0.000366211 17.4623 0.000366211 17.2148V14.738C0.000366211 14.738 9.38493 12.695 10.9001 12.1515C12.4152 11.6081 12.9407 11.5898 14.23 12.0608C15.5193 12.5318 23.2287 13.9241 24.5028 14.3907L24.5022 16.8323C24.5024 17.0771 24.2083 17.3457 23.5429 17.6925V17.6924Z" fill="#A41E11"/>
<path d="M23.5429 15.2149C22.2353 15.8962 15.4614 18.6816 14.0193 19.4334C12.5772 20.1852 11.7761 20.1781 10.6369 19.6336C9.49766 19.0891 2.28909 16.1769 0.990576 15.5566C-0.307935 14.9362 -0.33516 14.5087 0.940449 14.0093L10.9002 10.1534C12.4152 9.61009 12.9408 9.59166 14.2301 10.0627C15.5193 10.5337 22.2531 13.2151 23.5271 13.6818C24.8011 14.1485 24.8505 14.5335 23.5415 15.2151L23.5429 15.2149Z" fill="#D82C20"/>
<path d="M23.5429 13.6553C22.2354 14.3369 15.4615 17.122 14.0194 17.8743C12.5773 18.6264 11.7761 18.6186 10.6369 18.0739C9.49771 17.5294 2.28915 14.6177 0.990634 13.997C0.341595 13.6867 0.000366211 13.4252 0.000366211 13.178V10.701C0.000366211 10.701 9.38493 8.65804 10.9001 8.11444C12.4152 7.57084 12.9407 7.55269 14.23 8.02371C15.5193 8.49471 23.2287 9.88669 24.5028 10.3535L24.5022 12.7954C24.5024 13.0403 24.2083 13.3088 23.5429 13.6556V13.6553Z" fill="#A41E11"/>
<path d="M23.5429 11.1763C22.2353 11.8579 15.4614 14.643 14.0193 15.3951C12.5772 16.1474 11.7761 16.1396 10.6369 15.5949C9.49766 15.0504 2.28909 12.1385 0.990576 11.5179C-0.307935 10.8974 -0.33516 10.4702 0.940449 9.97052L10.9002 6.11489C12.4152 5.57142 12.9408 5.55314 14.2301 6.02414C15.5193 6.49515 22.2531 9.17643 23.5271 9.64326C24.8011 10.1101 24.8505 10.495 23.5415 11.1766L23.5429 11.1763Z" fill="#D82C20"/>
<path d="M23.5429 9.46556C22.2354 10.1471 15.4615 12.9326 14.0194 13.6859C12.5773 14.4392 11.7761 14.4303 10.6369 13.8857C9.49771 13.3411 2.28915 10.4292 0.990634 9.80865C0.341595 9.49839 0.000366211 9.23681 0.000366211 8.98964V6.51131C0.000366211 6.51131 9.38493 4.4684 10.9001 3.92495C12.4152 3.38148 12.9407 3.3632 14.23 3.8342C15.5193 4.30521 23.2287 5.6972 24.5028 6.16403L24.5022 8.60577C24.5024 8.85036 24.2083 9.11898 23.5429 9.46569V9.46556Z" fill="#A41E11"/>
<path d="M23.5429 6.98818C22.2353 7.66978 15.4614 10.4552 14.0193 11.2071C12.5772 11.959 11.7761 11.9515 10.6369 11.407C9.49766 10.8625 2.28909 7.95051 0.990576 7.32999C-0.307935 6.70947 -0.33516 6.2821 0.940449 5.78259L10.9002 1.92694C12.4152 1.38334 12.9408 1.36519 14.2301 1.83621C15.5193 2.30721 22.2531 4.98849 23.5271 5.45532C24.8011 5.92215 24.8505 6.30688 23.5415 6.98833L23.5429 6.98818Z" fill="#D82C20"/>
<path d="M12.0963 4.69051L9.64477 4.47014L11.474 3.81044L10.9267 2.79785L12.6408 3.46763L14.254 2.93902L13.8175 3.98617L15.464 4.60265L13.3408 4.82303L12.8655 5.96669L12.0963 4.69051ZM8.77478 8.50751L14.4528 7.63609L12.7387 10.151L8.77478 8.50751Z" fill="white"/>
<path d="M7.24359 7.59099C8.91963 7.59099 10.2783 7.06432 10.2783 6.41463C10.2783 5.76495 8.91963 5.23828 7.24359 5.23828C5.56756 5.23828 4.20886 5.76495 4.20886 6.41463C4.20886 7.06432 5.56756 7.59099 7.24359 7.59099Z" fill="white"/>
<path d="M21.3319 6.24402L17.9758 7.56916V4.91455L21.3319 6.24402Z" fill="#7A0C00"/>
<path d="M17.9727 4.91602V7.57064L17.6084 7.71467L14.2522 6.38953L17.9727 4.91602Z" fill="#AD2115"/>
</g>
<defs>
<clipPath id="clip0_4722_1781">
<rect width="24" height="24" fill="white"/>
</clipPath>
</defs>
</svg>
