<svg xmlns="http://www.w3.org/2000/svg" width="30" height="26" viewBox="0 0 30 26" fill="#888">
<path fill-rule="evenodd" clip-rule="evenodd" d="M30 12.8571C30 13.7447 29.2805 14.4643 28.3929 14.4643L5.59731 14.4643L14.5068 22.9487C15.1466 23.5639 15.1665 24.5813 14.5513 25.2211C13.9361 25.8609 12.9187 25.8808 12.2789 25.2656L0.493215 14.0156C0.17809 13.7126 -2.48846e-06 13.2943 -2.46935e-06 12.8571C-2.45024e-06 12.42 0.178091 12.0017 0.493215 11.6987L12.2789 0.448662C12.9187 -0.166541 13.9361 -0.146592 14.5513 0.493219C15.1665 1.13303 15.1466 2.15042 14.5068 2.76563L5.59731 11.25L28.3929 11.25C29.2805 11.25 30 11.9695 30 12.8571Z" fill="white"></path>
</svg>
