<svg xmlns="http://www.w3.org/2000/svg" width="498" height="268" fill="none" viewBox="0 0 498 268"><path fill="#26252A" stroke="#3B3A3F" stroke-width=".1" d="M44.527 12.206c0-6.613 5.36-11.973 11.972-11.973h376.705c6.612 0 11.972 5.36 11.972 11.973v9.968H44.526v-9.968Z"/><mask id="b" width="498" height="257" x="0" y="11" maskUnits="userSpaceOnUse" style="mask-type:alpha"><path fill="url(#a)" d="M.391 11.204h496.93v256.48H.391z"/></mask><g mask="url(#b)"><rect width="432.71" height="235.34" x="32.503" y="20.271" fill="#26252A" stroke="#3B3A3F" stroke-width=".1" rx="11.972"/><path fill="#569CD6" d="M56.347 58.27v-.353c-.376.2-.792.35-1.247.448a5.671 5.671 0 0 1-1.24.154c-.807 0-1.463-.213-1.967-.638-.504-.43-.755-.905-.755-1.424 0-.631.32-1.216.96-1.754.647-.543 1.537-.814 2.672-.814.455 0 .98.049 1.577.146v-.359a.652.652 0 0 0-.293-.55c-.19-.142-.558-.213-1.1-.213-.446 0-1.023.088-1.733.264a2.83 2.83 0 0 1-.616.095.7.7 0 0 1-.514-.212.785.785 0 0 1-.205-.558.7.7 0 0 1 .073-.33.556.556 0 0 1 .206-.22c.088-.06.271-.128.55-.206.372-.103.751-.183 1.137-.242a6.517 6.517 0 0 1 1.05-.096c.934 0 1.658.204 2.172.61.518.4.778.951.778 1.65v3.097h.257c.361 0 .618.071.77.213a.686.686 0 0 1 .235.543.7.7 0 0 1-.235.543c-.152.137-.408.206-.77.206h-1.762Zm0-2.694a8.743 8.743 0 0 0-1.665-.176c-.612 0-1.138.15-1.578.448-.274.19-.41.384-.41.58 0 .142.065.257.197.345.245.161.58.242 1.006.242.361 0 .77-.071 1.225-.213.46-.142.868-.335 1.225-.58v-.645Zm9.298-2.208a2.908 2.908 0 0 0-.77-.338 3.008 3.008 0 0 0-.845-.117c-.582 0-1.044.095-1.387.286-.151.083-.227.174-.227.272 0 .112.103.222.308.33.157.078.506.154 1.05.227.997.137 1.692.274 2.083.411.514.181.91.45 1.19.807.278.357.417.734.417 1.13 0 .538-.237.989-.711 1.35-.68.524-1.563.786-2.65.786-.435 0-.838-.04-1.21-.118a4.317 4.317 0 0 1-1.013-.33.853.853 0 0 1-.235.147.668.668 0 0 1-.256.051.737.737 0 0 1-.566-.227c-.136-.157-.205-.416-.205-.778v-.506c0-.362.069-.62.206-.77a.709.709 0 0 1 .55-.236c.18 0 .332.052.455.154.122.098.218.27.286.514.23.196.506.345.83.448a3.85 3.85 0 0 0 1.115.146c.69 0 1.225-.107 1.607-.322.18-.108.271-.22.271-.338 0-.196-.13-.357-.389-.484-.26-.127-.795-.235-1.607-.323-1.208-.127-2.015-.372-2.421-.734-.406-.357-.61-.797-.61-1.32 0-.539.228-.986.683-1.344.616-.489 1.424-.734 2.422-.734.347 0 .68.035.997.103.323.064.632.164.925.301a1.37 1.37 0 0 1 .257-.154.604.604 0 0 1 .227-.051c.206 0 .377.078.514.235.137.151.205.408.205.77v.367c0 .328-.039.55-.117.668a.738.738 0 0 1-.638.337.73.73 0 0 1-.477-.169.763.763 0 0 1-.264-.447Zm6.56 4.85L69.6 53.111c-.245-.03-.43-.113-.558-.25a.707.707 0 0 1-.19-.498c0-.226.075-.407.227-.544.156-.141.416-.212.778-.212h1.372c.362 0 .619.07.77.212a.686.686 0 0 1 .235.543.7.7 0 0 1-.235.544c-.151.136-.394.205-.726.205l1.776 3.456 1.76-3.456c-.322 0-.562-.069-.718-.205a.72.72 0 0 1-.228-.55c0-.221.076-.4.228-.537.156-.141.415-.212.777-.212h1.417c.357 0 .611.07.763.212a.686.686 0 0 1 .235.543c0 .201-.067.372-.198.514-.133.137-.328.215-.588.235l-3.448 6.795c.376 0 .623.037.74.11a.725.725 0 0 1 .353.646c0 .22-.078.398-.235.535-.151.142-.408.213-.77.213h-3.28c-.362 0-.622-.07-.778-.213a.688.688 0 0 1-.228-.535.72.72 0 0 1 .228-.55c.156-.138.416-.206.778-.206h1.496l.852-1.688Zm8.343-6.611v.506a2.86 2.86 0 0 1 .903-.528 3.217 3.217 0 0 1 1.078-.177c.89 0 1.595.277 2.114.83.41.44.616 1.017.616 1.731v2.796c.318 0 .553.071.704.213a.696.696 0 0 1 .228.543.7.7 0 0 1-.235.543c-.152.137-.408.206-.77.206h-1.358c-.362 0-.621-.069-.778-.206a.72.72 0 0 1-.227-.55c0-.22.076-.399.227-.536.152-.142.387-.213.705-.213v-2.84c0-.327-.088-.567-.264-.719-.23-.195-.575-.293-1.035-.293-.347 0-.653.068-.917.205-.26.132-.59.416-.991.851v2.796c.386 0 .636.037.748.11.24.147.36.362.36.646a.7.7 0 0 1-.235.543c-.152.137-.408.206-.77.206h-1.71c-.362 0-.621-.069-.778-.206a.72.72 0 0 1-.227-.55.72.72 0 0 1 .352-.639c.117-.073.37-.11.756-.11v-3.654c-.318 0-.553-.071-.705-.213a.711.711 0 0 1-.227-.543c0-.22.076-.399.227-.535.157-.142.416-.213.778-.213h1.431Zm12.893.271c.18-.171.367-.257.557-.257a.67.67 0 0 1 .529.235c.142.152.213.406.213.763v.969c0 .362-.071.619-.213.77a.696.696 0 0 1-.543.228.79.79 0 0 1-.521-.176c-.103-.088-.184-.267-.242-.536a.886.886 0 0 0-.426-.609c-.396-.235-.903-.352-1.519-.352-.71 0-1.28.208-1.71.624-.425.415-.638.941-.638 1.577 0 .587.205 1.052.616 1.394.411.338 1.094.507 2.048.507.626 0 1.137-.064 1.533-.191.235-.078.458-.21.668-.396.21-.191.401-.286.572-.286a.71.71 0 0 1 .529.227c.151.152.227.33.227.536 0 .332-.227.648-.682.946-.675.445-1.664.668-2.965.668-1.169 0-2.079-.242-2.73-.726-.88-.651-1.32-1.541-1.32-2.672 0-1.07.357-1.956 1.071-2.656.714-.704 1.646-1.057 2.796-1.057.416 0 .802.04 1.16.118.356.078.686.196.99.352Zm15.696 1.233v3.654h2.142c.362 0 .619.071.771.213a.688.688 0 0 1 .235.543c0 .22-.079.401-.235.543-.152.137-.409.206-.771.206h-4.542c-.362 0-.621-.069-.778-.206a.721.721 0 0 1-.227-.55.69.69 0 0 1 .227-.536c.157-.142.416-.213.778-.213h.895v-3.654h-.719c-.362 0-.621-.069-.778-.205a.721.721 0 0 1-.227-.55.69.69 0 0 1 .227-.537c.157-.141.416-.212.778-.212h.719v-.573c0-.655.245-1.198.734-1.629.494-.435 1.208-.653 2.143-.653.416 0 .895.04 1.438.118.548.073.898.178 1.049.315a.669.669 0 0 1 .235.529c0 .23-.068.418-.205.565a.677.677 0 0 1-.507.212c-.093 0-.232-.017-.418-.051a8.657 8.657 0 0 0-1.651-.183c-.499 0-.844.075-1.035.227a.676.676 0 0 0-.278.55v.573h2.318c.362 0 .619.07.771.212a.688.688 0 0 1 .235.543c0 .22-.079.402-.235.544-.152.136-.409.205-.771.205h-2.318Zm12.232-1.504v5.158c.318 0 .553.071.704.213a.71.71 0 0 1 .228.543c0 .22-.078.401-.235.543-.152.137-.408.206-.77.206h-1.431v-.345a7.259 7.259 0 0 1-1.233.44 4.596 4.596 0 0 1-1.115.147c-.495 0-.923-.103-1.285-.309a2.312 2.312 0 0 1-.858-.865c-.152-.265-.228-.595-.228-.991v-3.236h-.256c-.362 0-.622-.069-.778-.205a.719.719 0 0 1-.228-.55c0-.221.076-.4.228-.537.156-.141.416-.212.778-.212h1.761v4.476c0 .318.076.553.227.704.157.147.394.22.712.22.303 0 .629-.058.976-.176.352-.122.785-.34 1.299-.653v-3.067h-.543c-.362 0-.622-.069-.778-.205a.719.719 0 0 1-.228-.55c0-.221.076-.4.228-.537.156-.141.416-.212.778-.212h2.047Zm4.307 0v.506a2.86 2.86 0 0 1 .903-.528 3.218 3.218 0 0 1 1.079-.177c.89 0 1.594.277 2.113.83.411.44.616 1.017.616 1.731v2.796c.318 0 .553.071.705.213a.698.698 0 0 1 .227.543c0 .22-.078.401-.235.543-.151.137-.408.206-.77.206h-1.358c-.362 0-.621-.069-.777-.206a.719.719 0 0 1-.228-.55c0-.22.076-.399.228-.536.151-.142.386-.213.704-.213v-2.84c0-.327-.088-.567-.264-.719-.23-.195-.575-.293-1.035-.293-.347 0-.653.068-.917.205-.259.132-.589.416-.991.851v2.796c.387 0 .636.037.749.11a.71.71 0 0 1 .359.646c0 .22-.078.401-.234.543-.152.137-.409.206-.771.206h-1.71c-.362 0-.621-.069-.777-.206a.719.719 0 0 1-.228-.55c0-.274.117-.487.352-.639.118-.073.37-.11.756-.11v-3.654c-.318 0-.553-.071-.704-.213a.71.71 0 0 1-.228-.543c0-.22.076-.399.228-.535.156-.142.415-.213.777-.213h1.431Zm12.893.271c.181-.171.367-.257.558-.257a.67.67 0 0 1 .528.235c.142.152.213.406.213.763v.969c0 .362-.071.619-.213.77a.696.696 0 0 1-.543.228.791.791 0 0 1-.521-.176c-.103-.088-.183-.267-.242-.536a.888.888 0 0 0-.426-.609c-.396-.235-.902-.352-1.519-.352-.709 0-1.279.208-1.709.624-.426.415-.639.941-.639 1.577 0 .587.206 1.052.617 1.394.411.338 1.093.507 2.047.507.626 0 1.137-.064 1.534-.191.234-.078.457-.21.667-.396.211-.191.402-.286.573-.286a.71.71 0 0 1 .528.227c.152.152.228.33.228.536 0 .332-.228.648-.683.946-.675.445-1.663.668-2.964.668-1.17 0-2.08-.242-2.73-.726-.881-.651-1.321-1.541-1.321-2.672 0-1.07.357-1.956 1.071-2.656.715-.704 1.647-1.057 2.796-1.057.416 0 .802.04 1.16.118.357.078.687.196.99.352Zm6.311 1.233v3.016c0 .323.066.535.198.638.205.162.572.242 1.101.242.768 0 1.477-.163 2.128-.491.249-.127.445-.191.587-.191.195 0 .364.073.506.22.147.147.22.325.22.536a.66.66 0 0 1-.235.506c-.239.23-.714.443-1.423.638-.705.191-1.299.287-1.783.287-.935 0-1.637-.2-2.106-.602-.465-.406-.697-.903-.697-1.49v-3.309h-.544c-.362 0-.621-.069-.777-.205a.719.719 0 0 1-.228-.55c0-.221.076-.4.228-.537.156-.141.415-.212.777-.212h.544v-1.358c0-.362.068-.619.205-.77a.708.708 0 0 1 .55-.235c.22 0 .399.078.536.235.142.151.213.408.213.77v1.358h2.781c.362 0 .619.07.77.212a.685.685 0 0 1 .235.543c0 .22-.078.402-.235.544-.151.136-.408.205-.77.205h-2.781Zm9.935-4.359v1.592h-1.79v-1.592h1.79Zm.206 2.855v5.158h1.805c.362 0 .619.071.77.213a.685.685 0 0 1 .235.543c0 .22-.078.401-.235.543-.151.137-.408.206-.77.206h-5.115c-.362 0-.621-.069-.777-.206a.719.719 0 0 1-.228-.55c0-.22.076-.399.228-.536.156-.142.415-.213.777-.213h1.806v-3.654h-1.211c-.357 0-.614-.069-.771-.205a.71.71 0 0 1-.235-.55c0-.221.076-.4.228-.537.157-.141.416-.212.778-.212h2.715Zm12.188 3.456c0 .577-.161 1.137-.484 1.68-.318.538-.795.969-1.431 1.292a4.348 4.348 0 0 1-3.948.007c-.626-.318-1.103-.748-1.431-1.291a3.244 3.244 0 0 1-.491-1.703c0-.602.166-1.191.499-1.768a3.516 3.516 0 0 1 1.43-1.373 4.128 4.128 0 0 1 1.96-.498c.685 0 1.343.17 1.974.513.636.338 1.115.795 1.438 1.372.323.573.484 1.162.484 1.769Zm-1.504.007c0-.484-.174-.93-.521-1.335-.475-.548-1.098-.822-1.871-.822-.68 0-1.248.218-1.703.653-.455.435-.682.94-.682 1.511 0 .47.23.91.69 1.321.459.406 1.025.61 1.695.61.675 0 1.242-.204 1.702-.61.46-.41.69-.853.69-1.328Zm5.1-3.463v.506c.274-.235.575-.41.902-.528a3.222 3.222 0 0 1 1.079-.177c.89 0 1.595.277 2.113.83.411.44.617 1.017.617 1.731v2.796c.318 0 .553.071.704.213a.696.696 0 0 1 .228.543c0 .22-.079.401-.235.543-.152.137-.409.206-.771.206h-1.357c-.362 0-.621-.069-.778-.206a.718.718 0 0 1-.227-.55c0-.22.075-.399.227-.536.152-.142.386-.213.704-.213v-2.84c0-.327-.088-.567-.264-.719-.23-.195-.575-.293-1.034-.293-.348 0-.653.068-.918.205-.259.132-.589.416-.99.851v2.796c.386 0 .636.037.748.11.24.147.36.362.36.646 0 .22-.078.401-.235.543-.152.137-.408.206-.771.206h-1.709c-.362 0-.622-.069-.778-.206a.719.719 0 0 1-.228-.55.72.72 0 0 1 .353-.639c.117-.073.369-.11.755-.11v-3.654c-.317 0-.552-.071-.704-.213a.71.71 0 0 1-.227-.543c0-.22.075-.399.227-.535.157-.142.416-.213.778-.213h1.431Zm-98.072 49v.939c.631-.455 1.128-.758 1.49-.91.367-.152.709-.227 1.027-.227.49 0 .964.181 1.424.543.313.244.47.494.47.748a.748.748 0 0 1-.228.55.729.729 0 0 1-.536.221c-.186 0-.382-.093-.587-.279-.206-.186-.389-.279-.55-.279-.21 0-.526.132-.947.396-.416.264-.937.66-1.563 1.189v2.267h2.143c.362 0 .619.071.77.213a.686.686 0 0 1 .235.543.7.7 0 0 1-.235.543c-.151.137-.408.206-.77.206h-4.543c-.361 0-.62-.069-.777-.206a.72.72 0 0 1-.228-.55.69.69 0 0 1 .228-.536c.156-.142.416-.213.778-.213h.895v-3.654h-.543c-.362 0-.622-.069-.778-.206a.718.718 0 0 1-.228-.55c0-.22.076-.399.228-.536.156-.141.416-.212.778-.212h2.047Zm13.113 4.094h-6.171c.156.392.433.707.829.947.401.24.942.359 1.622.359.557 0 1.298-.119 2.223-.359.382-.098.646-.147.792-.147.201 0 .37.071.507.213a.74.74 0 0 1 .205.536.659.659 0 0 1-.22.499c-.195.181-.672.354-1.43.521-.759.161-1.488.242-2.187.242-1.204 0-2.168-.34-2.892-1.02-.719-.68-1.078-1.517-1.078-2.51 0-1.057.389-1.915 1.166-2.575a4.045 4.045 0 0 1 2.7-.998c.612 0 1.172.107 1.681.322.514.216.895.448 1.145.698.352.362.643.809.873 1.342.157.372.235.803.235 1.292v.638Zm-1.666-1.504c-.23-.431-.53-.751-.902-.961-.372-.216-.815-.323-1.329-.323-.508 0-.948.107-1.32.323-.372.21-.675.53-.91.961h4.461Zm6.546-1.086v3.016c0 .323.066.536.198.638.205.162.572.242 1.1.242.769 0 1.478-.163 2.129-.491.249-.127.445-.191.587-.191a.68.68 0 0 1 .506.22.73.73 0 0 1 .22.536.662.662 0 0 1-.235.506c-.24.23-.714.443-1.423.639-.705.19-1.3.286-1.784.286-.934 0-1.636-.201-2.106-.602-.464-.406-.697-.903-.697-1.49v-3.309h-.543c-.362 0-.62-.069-.777-.206a.717.717 0 0 1-.228-.55c0-.22.076-.399.228-.536.156-.141.415-.212.777-.212h.543v-1.358c0-.362.069-.619.206-.77a.708.708 0 0 1 .55-.235c.22 0 .399.078.536.235.142.151.213.408.213.77v1.358h2.78c.363 0 .62.071.771.212a.686.686 0 0 1 .235.543.698.698 0 0 1-.235.543c-.151.137-.408.206-.77.206h-2.781Zm12.592-1.504v5.158c.318 0 .552.071.704.213a.71.71 0 0 1 .228.543c0 .22-.079.401-.235.543-.152.137-.409.206-.771.206h-1.431v-.345c-.43.195-.841.342-1.232.44a4.603 4.603 0 0 1-1.116.147c-.494 0-.922-.103-1.284-.309a2.31 2.31 0 0 1-.858-.865c-.152-.265-.228-.595-.228-.991v-3.236h-.257c-.362 0-.621-.069-.778-.206a.717.717 0 0 1-.227-.55c0-.22.076-.399.227-.536.157-.141.416-.212.778-.212H98.6v4.476c0 .318.076.553.228.704.156.147.394.22.712.22.303 0 .628-.058.976-.176.352-.122.785-.34 1.298-.653v-3.067h-.543c-.362 0-.621-.069-.777-.206a.717.717 0 0 1-.228-.55c0-.22.076-.399.228-.536.156-.141.415-.212.777-.212h2.048Zm5.518 0v.939c.631-.455 1.127-.758 1.489-.91.367-.152.71-.227 1.028-.227.489 0 .963.181 1.423.543.313.244.47.494.47.748a.747.747 0 0 1-.228.55.727.727 0 0 1-.535.221c-.186 0-.382-.093-.587-.279-.206-.186-.389-.279-.551-.279-.21 0-.526.132-.946.396-.416.264-.937.66-1.563 1.189v2.267h2.142c.362 0 .619.071.771.213a.688.688 0 0 1 .235.543c0 .22-.079.401-.235.543-.152.137-.409.206-.771.206h-4.542c-.362 0-.621-.069-.778-.206a.72.72 0 0 1-.227-.55.69.69 0 0 1 .227-.536c.157-.142.416-.213.778-.213h.895v-3.654h-.543c-.362 0-.621-.069-.777-.206a.717.717 0 0 1-.228-.55c0-.22.076-.399.228-.536.156-.141.415-.212.777-.212h2.048Zm7.815 0v.506c.274-.235.574-.411.902-.528a3.205 3.205 0 0 1 1.079-.176c.89 0 1.595.276 2.113.829.411.44.617 1.017.617 1.731v2.796c.318 0 .552.071.704.213a.696.696 0 0 1 .228.543c0 .22-.079.401-.235.543-.152.137-.409.206-.771.206h-1.357c-.362 0-.622-.069-.778-.206a.718.718 0 0 1-.228-.55c0-.22.076-.399.228-.536.152-.142.386-.213.704-.213v-2.84c0-.327-.088-.567-.264-.719-.23-.195-.575-.293-1.034-.293-.348 0-.654.068-.918.205-.259.132-.589.416-.99.851v2.796c.386 0 .636.037.748.11.24.147.36.362.36.646 0 .22-.079.401-.235.543-.152.137-.409.206-.771.206h-1.709c-.362 0-.622-.069-.778-.206a.718.718 0 0 1-.228-.55.72.72 0 0 1 .353-.639c.117-.073.369-.11.755-.11v-3.654c-.318 0-.552-.071-.704-.213a.71.71 0 0 1-.228-.543c0-.22.076-.399.228-.536.157-.141.416-.212.778-.212h1.431Z"/><path fill="#BBBAC1" d="M190.368 53.111v3.654h2.142c.362 0 .619.071.771.213a.688.688 0 0 1 .235.543c0 .22-.079.401-.235.543-.152.137-.409.206-.771.206h-4.542c-.362 0-.621-.069-.778-.206a.721.721 0 0 1-.227-.55.69.69 0 0 1 .227-.536c.157-.142.416-.213.778-.213h.895v-3.654h-.719c-.362 0-.621-.069-.777-.205a.719.719 0 0 1-.228-.55c0-.221.076-.4.228-.537.156-.141.415-.212.777-.212h.719v-.573c0-.655.245-1.198.734-1.629.494-.435 1.209-.653 2.143-.653.416 0 .895.04 1.438.118.548.073.898.178 1.05.315a.671.671 0 0 1 .234.529c0 .23-.068.418-.205.565a.676.676 0 0 1-.506.212c-.093 0-.233-.017-.419-.051a8.657 8.657 0 0 0-1.651-.183c-.499 0-.844.075-1.034.227a.674.674 0 0 0-.279.55v.573h2.319c.362 0 .618.07.77.212a.685.685 0 0 1 .235.543c0 .22-.078.402-.235.544-.152.136-.408.205-.77.205h-2.319Zm10.39 5.159v-.353c-.376.2-.792.35-1.247.448a5.67 5.67 0 0 1-1.24.154c-.807 0-1.463-.213-1.967-.638-.504-.43-.756-.905-.756-1.424 0-.631.321-1.216.962-1.754.645-.543 1.536-.814 2.671-.814.455 0 .98.049 1.577.146v-.359a.653.653 0 0 0-.293-.55c-.191-.142-.558-.213-1.101-.213-.445 0-1.022.088-1.732.264a2.825 2.825 0 0 1-.616.095.7.7 0 0 1-.514-.212.785.785 0 0 1-.205-.558c0-.127.024-.237.073-.33a.559.559 0 0 1 .206-.22c.088-.06.271-.128.55-.206a9.812 9.812 0 0 1 1.137-.242 6.531 6.531 0 0 1 1.05-.096c.934 0 1.658.204 2.172.61.518.4.778.951.778 1.65v3.097h.256c.362 0 .619.071.771.213a.688.688 0 0 1 .235.543c0 .22-.079.401-.235.543-.152.137-.409.206-.771.206h-1.761Zm0-2.694a8.736 8.736 0 0 0-1.665-.176c-.612 0-1.138.15-1.578.448-.274.19-.411.384-.411.58 0 .142.066.257.198.345.245.161.58.242 1.005.242.362 0 .771-.071 1.226-.213.46-.142.868-.335 1.225-.58v-.645Zm9.297-2.208a2.897 2.897 0 0 0-.77-.338 3.007 3.007 0 0 0-.844-.117c-.582 0-1.044.095-1.387.286-.151.083-.227.174-.227.272 0 .112.103.222.308.33.157.078.506.154 1.049.227.998.137 1.693.274 2.084.411.514.181.91.45 1.189.807.279.357.418.734.418 1.13 0 .538-.237.989-.711 1.35-.68.524-1.563.786-2.649.786-.436 0-.839-.04-1.211-.118a4.315 4.315 0 0 1-1.013-.33.851.851 0 0 1-.235.147.664.664 0 0 1-.257.051.738.738 0 0 1-.565-.227c-.137-.157-.205-.416-.205-.778v-.506c0-.362.068-.62.205-.77a.71.71 0 0 1 .551-.236c.181 0 .332.052.455.154.122.098.217.27.286.514.23.196.506.345.829.448.323.098.695.146 1.115.146.69 0 1.226-.107 1.607-.322.181-.108.272-.22.272-.338 0-.196-.13-.357-.389-.484s-.795-.235-1.607-.323c-1.208-.127-2.015-.372-2.421-.734-.406-.357-.61-.797-.61-1.32 0-.539.228-.986.683-1.344.616-.489 1.423-.734 2.421-.734.348 0 .68.035.998.103.323.064.631.164.925.301a1.38 1.38 0 0 1 .257-.154.603.603 0 0 1 .227-.051c.206 0 .377.078.514.235.137.151.205.408.205.77v.367c0 .328-.039.55-.117.668a.738.738 0 0 1-.638.337.73.73 0 0 1-.477-.169.769.769 0 0 1-.265-.447Zm7.03-.257v3.016c0 .323.066.535.198.638.206.162.573.242 1.101.242.768 0 1.477-.163 2.128-.491.25-.127.445-.191.587-.191.196 0 .365.073.506.22a.729.729 0 0 1 .221.536.663.663 0 0 1-.235.506c-.24.23-.714.443-1.424.638-.704.191-1.299.287-1.783.287-.934 0-1.636-.2-2.106-.602-.465-.406-.697-.903-.697-1.49v-3.309h-.543c-.362 0-.621-.069-.778-.205a.718.718 0 0 1-.227-.55c0-.221.075-.4.227-.537.157-.141.416-.212.778-.212h.543v-1.358c0-.362.068-.619.205-.77a.71.71 0 0 1 .551-.235c.22 0 .398.078.535.235.142.151.213.408.213.77v1.358h2.781c.362 0 .619.07.771.212a.688.688 0 0 1 .235.543c0 .22-.079.402-.235.544-.152.136-.409.205-.771.205h-2.781Zm11.051-1.057v-.447h1.761c.362 0 .619.07.771.212a.688.688 0 0 1 .235.543c0 .22-.079.402-.235.544-.152.136-.409.205-.771.205h-.257v5.474c0 .528-.112.988-.337 1.38-.22.396-.56.736-1.02 1.02-.46.283-.978.425-1.556.425h-1.702c-.362 0-.621-.07-.778-.213a.687.687 0 0 1-.227-.535c0-.225.075-.409.227-.55.157-.138.416-.206.778-.206h1.658c.46 0 .817-.125 1.072-.374.254-.25.381-.565.381-.947v-.734a4.105 4.105 0 0 1-1.02.485 3.498 3.498 0 0 1-1.056.161c-1.023 0-1.879-.34-2.569-1.02-.69-.685-1.034-1.529-1.034-2.532 0-1.007.344-1.851 1.034-2.531.69-.685 1.546-1.028 2.569-1.028.381 0 .743.057 1.086.17.347.107.677.273.99.498Zm-.007 2.884c0-.553-.206-1.032-.617-1.438a2 2 0 0 0-1.467-.61c-.572 0-1.064.204-1.475.61-.406.406-.609.885-.609 1.438 0 .558.203 1.04.609 1.446.411.4.903.601 1.475.601.572 0 1.061-.2 1.467-.601.411-.406.617-.888.617-1.446Zm11.154.763h-6.172c.157.392.433.707.83.947.401.24.941.36 1.621.36.558 0 1.299-.12 2.224-.36.381-.098.645-.147.792-.147.201 0 .369.071.506.213a.74.74 0 0 1 .206.536.66.66 0 0 1-.22.498c-.196.181-.673.355-1.431.522-.758.161-1.487.242-2.187.242-1.203 0-2.167-.34-2.891-1.02-.719-.68-1.079-1.517-1.079-2.51 0-1.056.389-1.915 1.167-2.575a4.049 4.049 0 0 1 2.7-.998c.612 0 1.172.107 1.681.322.513.216.895.448 1.145.697.352.363.643.81.873 1.343.156.372.235.803.235 1.292v.638Zm-1.666-1.504c-.23-.43-.531-.75-.903-.961-.372-.216-.814-.323-1.328-.323-.509 0-.949.107-1.321.323-.372.21-.675.53-.91.961h4.462Zm5.393-2.59v.506a2.86 2.86 0 0 1 .903-.528 3.212 3.212 0 0 1 1.078-.177c.891 0 1.595.277 2.114.83.411.44.616 1.017.616 1.731v2.796c.318 0 .553.071.705.213a.698.698 0 0 1 .227.543c0 .22-.078.401-.235.543-.151.137-.408.206-.77.206h-1.358c-.362 0-.621-.069-.778-.206a.721.721 0 0 1-.227-.55.69.69 0 0 1 .227-.536c.152-.142.387-.213.705-.213v-2.84c0-.327-.088-.567-.264-.719-.23-.195-.575-.293-1.035-.293-.347 0-.653.068-.917.205-.259.132-.59.416-.991.851v2.796c.387 0 .636.037.749.11a.712.712 0 0 1 .359.646c0 .22-.078.401-.235.543-.151.137-.408.206-.77.206h-1.71c-.362 0-.621-.069-.778-.206a.721.721 0 0 1-.227-.55c0-.274.117-.487.352-.639.118-.073.369-.11.756-.11v-3.654c-.318 0-.553-.071-.705-.213a.713.713 0 0 1-.227-.543.69.69 0 0 1 .227-.535c.157-.142.416-.213.778-.213h1.431Zm21.919.271c.181-.171.367-.257.557-.257a.67.67 0 0 1 .529.235c.142.152.212.406.212.763v.969c0 .362-.07.619-.212.77a.696.696 0 0 1-.543.228.79.79 0 0 1-.521-.176c-.103-.088-.184-.267-.242-.536a.888.888 0 0 0-.426-.609c-.396-.235-.903-.352-1.519-.352-.709 0-1.279.208-1.71.624-.425.415-.638.941-.638 1.577 0 .587.205 1.052.616 1.394.411.338 1.094.507 2.048.507.626 0 1.137-.064 1.533-.191.235-.078.458-.21.668-.396.21-.191.401-.286.572-.286a.71.71 0 0 1 .529.227c.151.152.227.33.227.536 0 .332-.227.648-.682.946-.675.445-1.664.668-2.965.668-1.169 0-2.079-.242-2.73-.726-.88-.651-1.32-1.541-1.32-2.672 0-1.07.357-1.956 1.071-2.656.714-.704 1.646-1.057 2.796-1.057.415 0 .802.04 1.159.118.357.078.687.196.991.352Zm10.588 3.185c0 .577-.161 1.137-.484 1.68-.318.538-.795.969-1.431 1.292a4.345 4.345 0 0 1-3.948.007c-.626-.318-1.103-.748-1.431-1.291a3.253 3.253 0 0 1-.491-1.703c0-.602.166-1.191.499-1.768a3.512 3.512 0 0 1 1.431-1.373 4.121 4.121 0 0 1 1.959-.498c.685 0 1.343.17 1.974.513.636.338 1.115.795 1.438 1.372.323.573.484 1.162.484 1.769Zm-1.504.007c0-.484-.174-.93-.521-1.335-.474-.548-1.098-.822-1.871-.822-.68 0-1.248.218-1.703.653-.454.435-.682.94-.682 1.511 0 .47.23.91.69 1.321.46.406 1.025.61 1.695.61.675 0 1.242-.204 1.702-.61.46-.41.69-.853.69-1.328Zm5.1-3.463v.506a2.86 2.86 0 0 1 .903-.528 3.212 3.212 0 0 1 1.078-.177c.891 0 1.595.277 2.114.83.41.44.616 1.017.616 1.731v2.796c.318 0 .553.071.704.213a.696.696 0 0 1 .228.543c0 .22-.078.401-.235.543-.152.137-.408.206-.77.206h-1.358c-.362 0-.621-.069-.778-.206a.721.721 0 0 1-.227-.55.69.69 0 0 1 .227-.536c.152-.142.387-.213.705-.213v-2.84c0-.327-.088-.567-.265-.719-.229-.195-.574-.293-1.034-.293-.348 0-.653.068-.917.205-.26.132-.59.416-.991.851v2.796c.386 0 .636.037.748.11.24.147.36.362.36.646 0 .22-.078.401-.235.543-.151.137-.408.206-.77.206h-1.71c-.362 0-.621-.069-.778-.206a.718.718 0 0 1-.227-.55c0-.274.117-.487.352-.639.117-.073.369-.11.756-.11v-3.654c-.318 0-.553-.071-.705-.213a.713.713 0 0 1-.227-.543.69.69 0 0 1 .227-.535c.157-.142.416-.213.778-.213h1.431Zm10.178 1.504v3.016c0 .323.066.535.198.638.205.162.572.242 1.1.242.769 0 1.478-.163 2.128-.491.25-.127.446-.191.588-.191.195 0 .364.073.506.22.147.147.22.325.22.536a.66.66 0 0 1-.235.506c-.24.23-.714.443-1.423.638-.705.191-1.299.287-1.784.287-.934 0-1.636-.2-2.106-.602-.464-.406-.697-.903-.697-1.49v-3.309h-.543c-.362 0-.621-.069-.777-.205a.719.719 0 0 1-.228-.55c0-.221.076-.4.228-.537.156-.141.415-.212.777-.212h.543v-1.358c0-.362.069-.619.206-.77a.708.708 0 0 1 .55-.235c.22 0 .399.078.536.235.142.151.213.408.213.77v1.358h2.781c.362 0 .619.07.77.212a.685.685 0 0 1 .235.543c0 .22-.078.402-.235.544-.151.136-.408.205-.77.205h-2.781Zm13.171 2.59h-6.171c.157.392.433.707.829.947.401.24.942.36 1.622.36.558 0 1.299-.12 2.223-.36.382-.098.646-.147.793-.147.2 0 .369.071.506.213a.74.74 0 0 1 .206.536.657.657 0 0 1-.221.498c-.195.181-.672.355-1.43.522-.759.161-1.488.242-2.187.242-1.204 0-2.167-.34-2.891-1.02-.719-.68-1.079-1.517-1.079-2.51 0-1.056.389-1.915 1.167-2.575a4.049 4.049 0 0 1 2.7-.998c.612 0 1.172.107 1.681.322.513.216.895.448 1.144.697.352.363.644.81.873 1.343.157.372.235.803.235 1.292v.638Zm-1.665-1.504c-.23-.43-.531-.75-.903-.961-.372-.216-.814-.323-1.328-.323-.509 0-.949.107-1.321.323-.372.21-.675.53-.91.961h4.462Zm8.042.609 2.282 1.96c.274.014.479.092.616.234.137.137.206.31.206.521 0 .22-.078.401-.235.543-.152.137-.408.206-.77.206h-1.71c-.362 0-.621-.069-.778-.206a.727.727 0 0 1-.227-.558c0-.176.053-.33.161-.462a.84.84 0 0 1 .455-.279l-1.123-.968-1.144.968c.229.059.393.15.491.272a.704.704 0 0 1 .154.47.73.73 0 0 1-.227.557c-.152.137-.409.206-.771.206h-1.695c-.362 0-.621-.069-.778-.206a.721.721 0 0 1-.227-.55c0-.206.068-.377.205-.514.137-.142.343-.22.617-.235l2.231-1.966-1.974-1.688c-.26-.02-.458-.098-.595-.235a.736.736 0 0 1-.198-.52c0-.221.076-.4.228-.537.156-.141.415-.212.777-.212h1.409c.362 0 .619.07.771.212a.672.672 0 0 1 .235.529c0 .288-.137.523-.411.704l.91.756.895-.77c-.269-.191-.404-.411-.404-.66 0-.236.076-.422.228-.559.156-.141.416-.212.778-.212h1.394c.362 0 .619.07.77.212a.685.685 0 0 1 .235.543c0 .201-.068.372-.205.514-.132.137-.331.215-.595.235l-1.981 1.695Zm7.529-1.695v3.016c0 .323.066.535.198.638.205.162.572.242 1.101.242.768 0 1.477-.163 2.128-.491.249-.127.445-.191.587-.191.195 0 .364.073.506.22.147.147.22.325.22.536a.66.66 0 0 1-.235.506c-.239.23-.714.443-1.423.638-.705.191-1.299.287-1.783.287-.935 0-1.637-.2-2.106-.602-.465-.406-.698-.903-.698-1.49v-3.309h-.543c-.362 0-.621-.069-.777-.205a.719.719 0 0 1-.228-.55c0-.221.076-.4.228-.537.156-.141.415-.212.777-.212h.543v-1.358c0-.362.069-.619.206-.77a.708.708 0 0 1 .55-.235c.22 0 .399.078.536.235.142.151.213.408.213.77v1.358h2.781c.362 0 .619.07.77.212a.685.685 0 0 1 .235.543c0 .22-.078.402-.235.544-.151.136-.408.205-.77.205h-2.781ZM75.389 76.878c.181-.171.367-.257.558-.257a.67.67 0 0 1 .528.235c.142.152.213.406.213.763v.969c0 .362-.07.619-.213.77a.696.696 0 0 1-.543.228.79.79 0 0 1-.52-.176c-.103-.088-.184-.267-.243-.536a.886.886 0 0 0-.425-.609c-.397-.235-.903-.352-1.52-.352-.709 0-1.279.208-1.71.624-.425.415-.638.941-.638 1.577 0 .587.206 1.052.617 1.394.41.338 1.093.507 2.047.507.626 0 1.138-.064 1.534-.191.235-.078.457-.21.668-.396.21-.191.4-.287.572-.287a.71.71 0 0 1 .528.228c.152.152.228.33.228.536 0 .332-.228.648-.683.946-.675.445-1.663.668-2.964.668-1.17 0-2.08-.242-2.73-.726-.88-.651-1.32-1.541-1.32-2.672 0-1.07.356-1.956 1.07-2.656.715-.704 1.647-1.056 2.796-1.056.416 0 .803.039 1.16.117.357.078.687.196.99.352Zm10.589 3.185c0 .577-.161 1.137-.484 1.68-.318.538-.795.969-1.431 1.292a4.347 4.347 0 0 1-3.948.007c-.626-.318-1.103-.748-1.43-1.291a3.247 3.247 0 0 1-.493-1.703c0-.602.167-1.191.5-1.768a3.52 3.52 0 0 1 1.43-1.373 4.122 4.122 0 0 1 1.96-.498c.684 0 1.342.17 1.974.513.636.338 1.115.795 1.438 1.372.323.573.484 1.162.484 1.769Zm-1.504.007c0-.484-.174-.93-.521-1.335-.475-.548-1.099-.822-1.871-.822-.68 0-1.248.218-1.703.653-.455.435-.682.94-.682 1.511 0 .47.23.91.69 1.321.46.406 1.024.61 1.695.61.675 0 1.242-.204 1.702-.61.46-.41.69-.853.69-1.328Zm5.1-3.463v.506c.274-.235.574-.41.902-.528a3.217 3.217 0 0 1 1.079-.176c.89 0 1.595.276 2.113.829.411.44.617 1.017.617 1.731v2.796c.318 0 .552.071.704.213a.696.696 0 0 1 .227.543.7.7 0 0 1-.234.543c-.152.137-.409.206-.77.206h-1.358c-.362 0-.622-.069-.778-.206a.72.72 0 0 1-.228-.55c0-.22.076-.399.228-.536.152-.142.386-.213.704-.213v-2.84c0-.327-.088-.567-.264-.719-.23-.195-.575-.293-1.035-.293-.347 0-.653.068-.917.205-.259.132-.59.416-.99.852v2.795c.386 0 .636.037.748.11.24.147.36.362.36.646a.7.7 0 0 1-.235.543c-.152.137-.409.206-.77.206h-1.71c-.362 0-.622-.069-.778-.206a.72.72 0 0 1-.228-.55.72.72 0 0 1 .353-.639c.117-.073.369-.11.755-.11v-3.654c-.318 0-.552-.071-.704-.213a.711.711 0 0 1-.228-.543c0-.22.076-.399.228-.535.157-.142.416-.213.778-.213h1.43Zm12.173 1.76a2.897 2.897 0 0 0-.77-.337 3.012 3.012 0 0 0-.844-.117c-.582 0-1.044.095-1.387.286-.152.083-.227.174-.227.272 0 .112.102.222.308.33.156.078.506.154 1.05.227.997.137 1.692.274 2.083.411.514.181.91.45 1.189.807.279.357.418.734.418 1.13 0 .538-.237.989-.712 1.35-.68.524-1.563.786-2.649.786-.435 0-.839-.04-1.21-.118a4.317 4.317 0 0 1-1.013-.33.852.852 0 0 1-.235.147.667.667 0 0 1-.257.051.737.737 0 0 1-.565-.227c-.137-.157-.205-.416-.205-.778v-.506c0-.362.068-.62.205-.77a.708.708 0 0 1 .55-.236c.182 0 .333.052.456.154.122.098.217.27.286.514.23.196.506.345.829.448a3.85 3.85 0 0 0 1.115.146c.69 0 1.226-.107 1.607-.323.181-.107.272-.22.272-.337 0-.196-.13-.357-.389-.484s-.795-.235-1.607-.323c-1.208-.127-2.016-.372-2.422-.734-.406-.357-.609-.797-.609-1.32 0-.539.228-.987.683-1.344.616-.489 1.423-.733 2.421-.733.348 0 .68.034.998.102.323.064.631.164.925.301a1.35 1.35 0 0 1 .257-.154.603.603 0 0 1 .227-.051c.206 0 .377.078.514.234.137.152.205.409.205.771v.367c0 .328-.039.55-.117.668a.74.74 0 0 1-.639.337.73.73 0 0 1-.477-.169.762.762 0 0 1-.264-.447Zm11.308 1.696c0 .577-.161 1.137-.484 1.68-.318.538-.795.969-1.431 1.292a4.348 4.348 0 0 1-3.948.007c-.626-.318-1.103-.748-1.431-1.291a3.244 3.244 0 0 1-.491-1.703c0-.602.166-1.191.499-1.768a3.516 3.516 0 0 1 1.43-1.373 4.128 4.128 0 0 1 1.96-.498c.685 0 1.342.17 1.974.513.636.338 1.115.795 1.438 1.372.323.573.484 1.162.484 1.769Zm-1.504.007c0-.484-.174-.93-.521-1.335-.475-.548-1.098-.822-1.871-.822-.68 0-1.248.218-1.703.653-.455.435-.682.94-.682 1.511 0 .47.23.91.69 1.321.459.406 1.024.61 1.695.61.675 0 1.242-.204 1.702-.61.46-.41.69-.853.69-1.328Zm7.374-6.318v8.013h1.806c.362 0 .618.071.77.213a.685.685 0 0 1 .235.543c0 .22-.078.401-.235.543-.152.137-.408.206-.77.206h-5.115c-.362 0-.621-.069-.778-.206a.721.721 0 0 1-.227-.55.69.69 0 0 1 .227-.536c.157-.142.416-.213.778-.213h1.805v-6.508h-1.211c-.357 0-.614-.069-.77-.206a.707.707 0 0 1-.235-.55c0-.22.076-.399.228-.536.156-.142.415-.213.777-.213h2.715Zm12.049 6.95h-6.171c.157.39.433.706.829.946.401.24.942.36 1.622.36.558 0 1.299-.12 2.223-.36.382-.098.646-.147.793-.147.2 0 .369.071.506.213a.74.74 0 0 1 .206.536.66.66 0 0 1-.22.499c-.196.18-.673.354-1.431.52a10.5 10.5 0 0 1-2.187.243c-1.203 0-2.167-.34-2.891-1.02-.719-.68-1.079-1.517-1.079-2.51 0-1.056.389-1.915 1.167-2.576a4.049 4.049 0 0 1 2.7-.998c.612 0 1.172.108 1.681.323.513.216.895.448 1.144.698.353.361.644.81.874 1.342.156.372.234.803.234 1.292v.638Zm-1.665-1.505c-.23-.43-.531-.75-.903-.961-.372-.216-.814-.323-1.328-.323-.509 0-.949.107-1.321.323-.372.21-.675.53-.91.961h4.462Zm8.064 3.317a.94.94 0 0 1-.301.712c-.2.19-.477.286-.829.286s-.629-.096-.829-.287a.94.94 0 0 1-.301-.711c0-.284.1-.521.301-.712.2-.19.477-.286.829-.286s.629.095.829.286c.201.19.301.428.301.712Zm8.629-8.762v8.013h1.806c.362 0 .618.071.77.213a.685.685 0 0 1 .235.543c0 .22-.078.401-.235.543-.152.137-.408.206-.77.206h-5.115c-.362 0-.621-.069-.778-.206a.721.721 0 0 1-.227-.55.69.69 0 0 1 .227-.536c.157-.142.416-.213.778-.213h1.805v-6.508h-1.211c-.357 0-.613-.069-.77-.206a.707.707 0 0 1-.235-.55c0-.22.076-.399.228-.536.156-.142.415-.213.777-.213h2.715Zm12.181 6.31c0 .578-.161 1.138-.484 1.681-.318.538-.795.969-1.431 1.292a4.345 4.345 0 0 1-3.948.007c-.626-.318-1.103-.748-1.43-1.291a3.245 3.245 0 0 1-.492-1.703c0-.602.166-1.191.499-1.768.333-.582.81-1.04 1.431-1.373a4.121 4.121 0 0 1 1.959-.498c.685 0 1.343.17 1.974.513.636.338 1.115.795 1.438 1.372.323.573.484 1.162.484 1.769Zm-1.504.008c0-.484-.173-.93-.521-1.335-.474-.548-1.098-.822-1.871-.822-.68 0-1.247.218-1.702.653-.455.435-.683.94-.683 1.511 0 .47.23.91.69 1.321.46.406 1.025.61 1.695.61.675 0 1.243-.204 1.702-.61.46-.41.69-.853.69-1.328Zm8.277-3.016v-.447h1.762c.362 0 .618.07.77.213a.685.685 0 0 1 .235.543c0 .22-.078.4-.235.543-.152.136-.408.205-.77.205h-.257v5.474c0 .528-.113.988-.338 1.38-.22.396-.56.736-1.02 1.02-.46.283-.978.425-1.555.425h-1.703c-.362 0-.621-.07-.778-.213a.69.69 0 0 1-.227-.535c0-.225.076-.409.227-.55.157-.138.416-.206.778-.206h1.659c.459 0 .816-.125 1.071-.374.254-.25.381-.565.381-.947v-.734a4.105 4.105 0 0 1-1.02.485 3.498 3.498 0 0 1-1.056.161c-1.023 0-1.879-.34-2.569-1.02-.689-.685-1.034-1.529-1.034-2.532 0-1.007.345-1.851 1.034-2.531.69-.685 1.546-1.028 2.569-1.028.381 0 .743.057 1.086.17.347.107.677.273.99.498Zm-.007 2.884c0-.553-.205-1.032-.616-1.438a2.002 2.002 0 0 0-1.468-.61c-.572 0-1.064.204-1.475.61-.406.406-.609.885-.609 1.438 0 .558.203 1.04.609 1.446.411.4.903.601 1.475.601.572 0 1.062-.2 1.468-.601.411-.406.616-.888.616-1.446Zm18.749-3.06c.181-.171.366-.257.557-.257.215 0 .392.079.529.235.141.152.212.406.212.763v.969c0 .362-.071.619-.212.77a.696.696 0 0 1-.543.228.788.788 0 0 1-.521-.176c-.103-.088-.184-.267-.243-.536a.883.883 0 0 0-.425-.609c-.396-.235-.903-.352-1.519-.352-.709 0-1.279.208-1.71.624-.425.415-.638.941-.638 1.577 0 .587.205 1.052.616 1.394.411.338 1.093.507 2.047.507.627 0 1.138-.064 1.534-.191.235-.078.457-.21.668-.396.21-.191.401-.287.572-.287.206 0 .382.076.528.228.152.152.228.33.228.536 0 .332-.228.648-.682.946-.676.445-1.664.668-2.965.668-1.169 0-2.079-.242-2.73-.726-.88-.651-1.321-1.541-1.321-2.672 0-1.07.358-1.956 1.072-2.656.714-.704 1.646-1.056 2.796-1.056.415 0 .802.039 1.159.117.357.078.687.196.991.352Zm10.588 3.185c0 .577-.161 1.137-.484 1.68-.318.538-.795.969-1.431 1.292a4.345 4.345 0 0 1-3.948.007c-.626-.318-1.103-.748-1.431-1.291a3.253 3.253 0 0 1-.491-1.703c0-.602.166-1.191.499-1.768a3.512 3.512 0 0 1 1.431-1.373 4.121 4.121 0 0 1 1.959-.498c.685 0 1.343.17 1.974.513.636.338 1.115.795 1.438 1.372.323.573.484 1.162.484 1.769Zm-1.504.007c0-.484-.174-.93-.521-1.335-.475-.548-1.098-.822-1.871-.822-.68 0-1.248.218-1.703.653-.455.435-.682.94-.682 1.511 0 .47.23.91.69 1.321.46.406 1.025.61 1.695.61.675 0 1.242-.204 1.702-.61.46-.41.69-.853.69-1.328Zm5.1-3.463v.506c.274-.235.575-.41.902-.528a3.222 3.222 0 0 1 1.079-.176c.89 0 1.595.276 2.113.829.411.44.617 1.017.617 1.731v2.796c.318 0 .553.071.704.213a.696.696 0 0 1 .228.543c0 .22-.079.401-.235.543-.152.137-.409.206-.771.206h-1.357c-.362 0-.621-.069-.778-.206a.718.718 0 0 1-.227-.55c0-.22.075-.399.227-.536.152-.142.387-.213.704-.213v-2.84c0-.327-.088-.567-.264-.719-.23-.195-.574-.293-1.034-.293-.348 0-.653.068-.918.205-.259.132-.589.416-.99.852v2.795c.386 0 .636.037.748.11.24.147.36.362.36.646 0 .22-.078.401-.235.543-.152.137-.408.206-.77.206h-1.71c-.362 0-.621-.069-.778-.206a.719.719 0 0 1-.228-.55.72.72 0 0 1 .353-.639c.117-.073.369-.11.756-.11v-3.654c-.318 0-.553-.071-.705-.213a.71.71 0 0 1-.227-.543c0-.22.075-.399.227-.535.157-.142.416-.213.778-.213h1.431Zm10.178 1.504v3.016c0 .323.066.535.198.638.205.162.572.242 1.1.242.768 0 1.478-.163 2.128-.491.25-.127.446-.191.587-.191.196 0 .365.073.507.22.146.147.22.325.22.536a.66.66 0 0 1-.235.506c-.24.23-.714.443-1.424.638-.704.191-1.298.287-1.783.287-.934 0-1.636-.2-2.106-.602-.464-.406-.697-.903-.697-1.49v-3.309h-.543c-.362 0-.621-.069-.778-.206a.721.721 0 0 1-.227-.55.69.69 0 0 1 .227-.535c.157-.142.416-.213.778-.213h.543v-1.358c0-.362.069-.619.206-.77a.708.708 0 0 1 .55-.235c.22 0 .399.078.536.235.142.151.213.408.213.77v1.358h2.781c.362 0 .618.07.77.213a.685.685 0 0 1 .235.543c0 .22-.078.4-.235.543-.152.136-.408.205-.77.205h-2.781Zm13.171 2.59h-6.171c.156.392.433.707.829.947.401.24.942.36 1.622.36.558 0 1.299-.12 2.223-.36.382-.098.646-.147.793-.147.2 0 .369.071.506.213a.74.74 0 0 1 .206.536.657.657 0 0 1-.221.499c-.195.18-.672.354-1.431.52a10.49 10.49 0 0 1-2.186.243c-1.204 0-2.167-.34-2.891-1.02-.72-.68-1.079-1.517-1.079-2.51 0-1.056.389-1.915 1.167-2.576a4.047 4.047 0 0 1 2.7-.998c.612 0 1.172.108 1.68.323.514.216.896.448 1.145.698.352.361.643.81.873 1.342.157.372.235.803.235 1.292v.638Zm-1.666-1.504c-.229-.43-.53-.75-.902-.961-.372-.216-.815-.323-1.328-.323-.509 0-.949.107-1.321.323-.372.21-.675.53-.91.961h4.461Zm8.043.609 2.282 1.96c.274.014.479.092.616.234.137.137.206.31.206.521 0 .22-.078.401-.235.543-.152.137-.408.206-.77.206h-1.71c-.362 0-.622-.069-.778-.206a.728.728 0 0 1-.228-.558c0-.176.054-.33.162-.462a.837.837 0 0 1 .455-.279l-1.123-.968-1.145.968c.23.059.394.15.492.272a.704.704 0 0 1 .154.47.73.73 0 0 1-.227.557c-.152.137-.409.206-.771.206h-1.695c-.362 0-.621-.069-.778-.206a.721.721 0 0 1-.227-.55c0-.206.068-.377.205-.514.137-.142.343-.22.617-.235l2.23-1.966-1.973-1.688c-.26-.02-.458-.098-.595-.235a.736.736 0 0 1-.198-.52.69.69 0 0 1 .227-.536c.157-.142.416-.213.778-.213h1.409c.362 0 .619.07.771.213a.672.672 0 0 1 .235.528c0 .288-.137.523-.411.704l.909.756.896-.77c-.269-.191-.404-.411-.404-.66 0-.236.076-.422.228-.558.156-.142.415-.213.777-.213h1.395c.362 0 .618.07.77.213a.685.685 0 0 1 .235.543c0 .2-.069.371-.206.513-.132.137-.33.215-.594.235l-1.981 1.695Zm7.529-1.695v3.016c0 .323.066.535.198.638.205.162.572.242 1.1.242.768 0 1.478-.163 2.128-.491.25-.127.446-.191.587-.191.196 0 .365.073.507.22.147.147.22.325.22.536a.66.66 0 0 1-.235.506c-.24.23-.714.443-1.423.638-.705.191-1.299.287-1.784.287-.934 0-1.636-.2-2.106-.602-.464-.406-.697-.903-.697-1.49v-3.309h-.543c-.362 0-.621-.069-.778-.206a.721.721 0 0 1-.227-.55.69.69 0 0 1 .227-.535c.157-.142.416-.213.778-.213h.543v-1.358c0-.362.069-.619.206-.77a.708.708 0 0 1 .55-.235c.22 0 .399.078.536.235.142.151.213.408.213.77v1.358h2.781c.362 0 .619.07.77.213a.685.685 0 0 1 .235.543c0 .22-.078.4-.235.543-.151.136-.408.205-.77.205h-2.781Z"/><path fill="gold" d="M253.019 54.615c0-.856.142-1.722.426-2.597.21-.646.535-1.365.976-2.158.318-.567.553-.915.704-1.042a.754.754 0 0 1 .506-.198c.216 0 .397.074.543.22a.72.72 0 0 1 .221.529c0 .142-.059.31-.176.506-.529.866-.915 1.678-1.16 2.436a7.593 7.593 0 0 0 0 4.616c.245.758.631 1.57 1.16 2.436.117.19.176.36.176.506a.72.72 0 0 1-.221.529.735.735 0 0 1-.543.22.707.707 0 0 1-.476-.176c-.196-.172-.455-.556-.778-1.153-.465-.865-.783-1.58-.954-2.142a8.463 8.463 0 0 1-.404-2.532Zm73.387 0c0 .856-.142 1.725-.426 2.605-.21.646-.535 1.363-.976 2.15-.317.568-.552.918-.704 1.05a.752.752 0 0 1-.506.198.735.735 0 0 1-.543-.22.72.72 0 0 1-.22-.529c0-.147.058-.315.176-.506.528-.866.912-1.678 1.152-2.436a7.504 7.504 0 0 0 .367-2.312c0-.778-.123-1.546-.367-2.304-.24-.758-.624-1.57-1.152-2.436-.118-.196-.176-.364-.176-.506a.72.72 0 0 1 .22-.529.735.735 0 0 1 .543-.22.71.71 0 0 1 .477.176c.195.167.455.55.778 1.152.464.866.782 1.578.953 2.136.27.865.404 1.71.404 2.531Zm17.714.008c.176.2.296.396.359.587.064.185.096.489.096.91v2.392c0 .2.036.342.11.425.078.088.22.14.425.154.206.02.375.1.507.242a.737.737 0 0 1 .198.522.725.725 0 0 1-.228.543.763.763 0 0 1-.565.22c-.327 0-.643-.088-.946-.265-.303-.17-.568-.452-.793-.843a1.79 1.79 0 0 1-.212-.888v-2.65c0-.21-.035-.354-.103-.432-.069-.078-.215-.13-.44-.154-.226-.03-.399-.11-.521-.242a.753.753 0 0 1-.177-.521c0-.22.059-.397.177-.529.122-.132.295-.21.521-.235.229-.029.369-.075.418-.139.083-.098.125-.25.125-.455v-2.51c0-.538.195-1.002.587-1.394.391-.396.843-.594 1.357-.594.235 0 .426.073.572.22a.725.725 0 0 1 .228.543c0 .2-.066.372-.198.514a.774.774 0 0 1-.514.242c-.21.02-.342.063-.396.132-.088.103-.132.254-.132.455v2.392c0 .338-.034.6-.103.785a1.864 1.864 0 0 1-.352.573Zm-289.468 121a1.96 1.96 0 0 1-.36-.58c-.063-.191-.095-.45-.095-.778v-2.392c0-.201-.039-.343-.117-.426-.073-.088-.213-.142-.418-.161a.767.767 0 0 1-.507-.242.727.727 0 0 1-.198-.514c0-.215.074-.396.22-.543a.789.789 0 0 1 .573-.22c.328 0 .643.088.946.264.304.171.568.453.793.844.142.254.213.548.213.88v2.51c0 .21.034.357.102.44.069.079.216.13.44.154.226.025.397.103.514.235.123.132.184.308.184.529a.738.738 0 0 1-.184.521c-.117.132-.29.212-.52.242-.226.024-.363.068-.412.132-.083.098-.124.249-.124.455v2.649c0 .543-.196 1.01-.587 1.401-.392.397-.844.595-1.358.595a.802.802 0 0 1-.58-.22.738.738 0 0 1-.22-.543c0-.201.066-.372.198-.514a.77.77 0 0 1 .514-.242c.21-.02.343-.064.396-.132.088-.103.132-.255.132-.455v-2.392c0-.421.03-.724.088-.91a1.79 1.79 0 0 1 .367-.587Z"/><path fill="orchid" d="M171.788 79.615c0-.856.142-1.722.426-2.597.21-.646.535-1.365.976-2.158.318-.567.552-.915.704-1.042a.752.752 0 0 1 .506-.198c.216 0 .397.073.543.22a.72.72 0 0 1 .221.529c0 .141-.059.31-.177.506-.528.866-.914 1.678-1.159 2.436a7.594 7.594 0 0 0 0 4.616c.245.758.631 1.57 1.159 2.436.118.19.177.36.177.506a.72.72 0 0 1-.221.528.735.735 0 0 1-.543.22.71.71 0 0 1-.477-.175c-.195-.172-.455-.556-.777-1.152-.465-.866-.783-1.58-.954-2.143a8.463 8.463 0 0 1-.404-2.532Zm73.387 0c0 .856-.142 1.725-.426 2.605-.21.646-.535 1.363-.976 2.15-.318.568-.552.917-.704 1.05a.754.754 0 0 1-.506.198.735.735 0 0 1-.543-.22.72.72 0 0 1-.221-.529c0-.147.059-.315.177-.506.528-.866.912-1.678 1.152-2.436a7.504 7.504 0 0 0 .367-2.312c0-.778-.123-1.546-.367-2.304-.24-.758-.624-1.57-1.152-2.436-.118-.196-.177-.365-.177-.506a.72.72 0 0 1 .221-.529.735.735 0 0 1 .543-.22.71.71 0 0 1 .477.176c.195.167.455.55.777 1.152.465.866.783 1.578.954 2.136.269.865.404 1.71.404 2.531Zm-108.646 24.008c.176.2.296.396.36.587.063.186.095.489.095.91v2.392c0 .2.037.342.11.425.078.088.22.14.426.154.205.02.374.101.506.243a.734.734 0 0 1 .198.521.768.768 0 0 1-.792.763 1.86 1.86 0 0 1-.947-.264c-.303-.172-.567-.453-.792-.844a1.795 1.795 0 0 1-.213-.888v-2.649c0-.211-.034-.355-.103-.433-.068-.078-.215-.13-.44-.154-.225-.03-.399-.11-.521-.242a.754.754 0 0 1-.176-.521c0-.221.058-.397.176-.529.122-.132.296-.21.521-.235.23-.029.369-.075.418-.139.083-.098.125-.249.125-.455v-2.51c0-.538.196-1.002.587-1.394.391-.396.844-.594 1.357-.594.235 0 .426.073.573.22a.728.728 0 0 1 .227.543c0 .2-.066.372-.198.514a.772.772 0 0 1-.514.242c-.21.02-.342.063-.396.132-.088.103-.132.254-.132.455v2.392c0 .338-.034.599-.103.785a1.851 1.851 0 0 1-.352.573Zm-63.825 48a1.96 1.96 0 0 1-.36-.58c-.063-.191-.095-.45-.095-.778v-2.392c0-.201-.04-.343-.118-.426-.073-.088-.213-.142-.418-.161a.767.767 0 0 1-.506-.242.727.727 0 0 1-.198-.514c0-.215.073-.396.22-.543a.789.789 0 0 1 .572-.22c.328 0 .643.088.947.264.303.171.567.453.792.844.142.254.213.548.213.88v2.51c0 .21.034.357.103.44.068.079.215.13.44.154.225.025.396.103.514.235.122.132.183.308.183.529a.738.738 0 0 1-.183.521c-.118.132-.291.212-.521.242-.225.024-.362.068-.411.132-.083.098-.125.249-.125.455v2.649c0 .543-.196 1.01-.587 1.401-.391.397-.844.595-1.358.595a.802.802 0 0 1-.58-.22.738.738 0 0 1-.22-.543c0-.201.067-.372.199-.514a.77.77 0 0 1 .513-.242c.21-.02.343-.064.397-.132.088-.103.132-.255.132-.455v-2.392c0-.421.03-.724.088-.91a1.79 1.79 0 0 1 .367-.587Z"/><path fill="#CE9178" d="M88.524 122.192h1.938l-.477 3.596c-.025.186-.079.316-.162.389a.434.434 0 0 1-.308.11.444.444 0 0 1-.316-.11c-.078-.073-.13-.201-.154-.382l-.52-3.603Zm3.134 0h1.937l-.477 3.596c-.025.186-.076.316-.154.389a.445.445 0 0 1-.316.11.444.444 0 0 1-.315-.11c-.079-.073-.13-.201-.154-.382l-.521-3.603Zm6.912-.44v3.207a3.88 3.88 0 0 1 .947-.411 3.51 3.51 0 0 1 .976-.139c.518 0 .98.088 1.386.264.406.176.742.455 1.006.836.269.377.403.854.403 1.431v2.825c.382 0 .631.037.749.11a.725.725 0 0 1 .352.646.71.71 0 0 1-.228.543c-.151.137-.408.206-.77.206h-1.717c-.357 0-.614-.069-.771-.206a.72.72 0 0 1-.227-.55.72.72 0 0 1 .352-.639c.122-.078.372-.115.749-.11v-2.722c0-.387-.088-.658-.265-.815-.229-.21-.569-.315-1.019-.315-.333 0-.63.066-.888.198-.255.127-.6.406-1.035.836v2.818c.386 0 .636.037.748.11.24.152.36.367.36.646a.7.7 0 0 1-.235.543c-.151.137-.408.206-.77.206h-1.71c-.362 0-.621-.069-.778-.206a.72.72 0 0 1-.227-.55c0-.274.12-.487.36-.639.117-.078.366-.115.748-.11v-6.509h-.257c-.362 0-.621-.068-.778-.205a.72.72 0 0 1-.227-.55c0-.22.075-.399.227-.536.157-.142.416-.213.778-.213h1.761Zm14.353 6.949h-6.171c.156.392.433.707.829.947.401.24.942.359 1.622.359.557 0 1.298-.119 2.223-.359.382-.098.646-.147.793-.147.2 0 .369.071.506.213a.74.74 0 0 1 .205.536.657.657 0 0 1-.22.499c-.195.181-.672.354-1.431.521-.758.161-1.487.242-2.186.242-1.204 0-2.168-.34-2.892-1.02-.719-.68-1.078-1.517-1.078-2.51 0-1.057.389-1.915 1.166-2.575a4.046 4.046 0 0 1 2.701-.998c.611 0 1.171.107 1.68.322.514.216.895.448 1.145.698.352.362.643.809.873 1.342.157.372.235.803.235 1.292v.638Zm-1.666-1.504c-.23-.431-.53-.751-.902-.961-.372-.216-.815-.323-1.328-.323-.509 0-.949.107-1.321.323-.372.21-.675.53-.91.961h4.461Zm7.668-5.445v8.013h1.806c.362 0 .618.071.77.213a.685.685 0 0 1 .235.543.7.7 0 0 1-.235.543c-.152.137-.408.206-.77.206h-5.115c-.362 0-.621-.069-.778-.206a.72.72 0 0 1-.227-.55.69.69 0 0 1 .227-.536c.157-.142.416-.213.778-.213h1.805v-6.509h-1.211c-.357 0-.614-.068-.77-.205a.707.707 0 0 1-.235-.55c0-.22.076-.399.228-.536.156-.142.415-.213.777-.213h2.715Zm9.026 0v8.013h1.805c.362 0 .619.071.771.213a.688.688 0 0 1 .235.543c0 .22-.079.401-.235.543-.152.137-.409.206-.771.206h-5.114c-.362 0-.622-.069-.778-.206a.718.718 0 0 1-.228-.55c0-.22.076-.399.228-.536.156-.142.416-.213.778-.213h1.805v-6.509h-1.211c-.357 0-.614-.068-.77-.205a.707.707 0 0 1-.235-.55.69.69 0 0 1 .227-.536c.157-.142.416-.213.778-.213h2.715Zm12.181 6.311c0 .577-.161 1.137-.484 1.68-.318.538-.795.969-1.431 1.292a4.348 4.348 0 0 1-3.948.007c-.626-.318-1.103-.748-1.431-1.291a3.246 3.246 0 0 1-.491-1.703c0-.602.166-1.191.499-1.768a3.511 3.511 0 0 1 1.43-1.372 4.123 4.123 0 0 1 1.96-.499c.685 0 1.343.171 1.974.513.636.338 1.115.795 1.438 1.372.323.573.484 1.162.484 1.769Zm-1.504.007c0-.484-.174-.929-.521-1.335-.475-.548-1.098-.822-1.871-.822-.68 0-1.248.218-1.703.653-.455.435-.682.939-.682 1.512 0 .469.23.909.69 1.32.459.406 1.024.609 1.695.609.675 0 1.242-.203 1.702-.609.46-.411.69-.853.69-1.328Zm4.05-5.878h1.938l-.477 3.596c-.025.186-.079.316-.162.389a.433.433 0 0 1-.308.11.447.447 0 0 1-.316-.11c-.078-.073-.129-.201-.154-.382l-.521-3.603Zm3.134 0h1.937l-.477 3.596c-.025.186-.076.316-.154.389a.445.445 0 0 1-.316.11.443.443 0 0 1-.315-.11c-.078-.073-.13-.201-.154-.382l-.521-3.603Zm9.598 3.42a.945.945 0 0 1-.301.712c-.201.191-.477.286-.829.286-.353 0-.629-.095-.829-.286a.941.941 0 0 1-.301-.712c0-.284.1-.521.301-.712.2-.191.476-.286.829-.286.352 0 .628.095.829.286.2.191.301.428.301.712Zm.014 4.924c0 .283-.1.521-.3.712-.201.19-.477.286-.83.286-.352 0-.628-.096-.829-.286a.946.946 0 0 1-.301-.712c0-.284.101-.521.301-.712.201-.191.477-.286.829-.286.353 0 .629.095.83.286.2.191.3.428.3.712Zm14.331-8.344h1.938l-.477 3.596c-.025.186-.079.316-.162.389a.433.433 0 0 1-.308.11.443.443 0 0 1-.315-.11c-.079-.073-.13-.201-.155-.382l-.521-3.603Zm3.134 0h1.937l-.477 3.596c-.024.186-.076.316-.154.389a.445.445 0 0 1-.316.11.443.443 0 0 1-.315-.11c-.078-.073-.13-.201-.154-.382l-.521-3.603Zm8.475 6.304-1.042 2.774h-1.416l-1.262-5.159c-.274-.015-.482-.091-.624-.228a.729.729 0 0 1-.205-.528c0-.22.075-.399.227-.536.157-.141.416-.212.778-.212h1.401c.362 0 .619.071.771.212a.688.688 0 0 1 .235.543.738.738 0 0 1-.264.573c-.133.117-.392.176-.778.176l.572 2.385.932-2.444h1.335l.94 2.444.587-2.385c-.372 0-.617-.037-.734-.11a.725.725 0 0 1-.352-.646.69.69 0 0 1 .227-.536c.157-.141.416-.212.778-.212h1.416c.362 0 .619.071.771.212a.688.688 0 0 1 .235.543.713.713 0 0 1-.206.514c-.132.137-.33.215-.594.235l-1.233 5.159h-1.394l-1.101-2.774Zm12.922-.433c0 .577-.161 1.137-.484 1.68-.318.538-.795.969-1.431 1.292a4.345 4.345 0 0 1-3.948.007c-.626-.318-1.103-.748-1.431-1.291a3.255 3.255 0 0 1-.491-1.703c0-.602.166-1.191.499-1.768a3.508 3.508 0 0 1 1.431-1.372 4.116 4.116 0 0 1 1.959-.499c.685 0 1.343.171 1.974.513.636.338 1.115.795 1.438 1.372.323.573.484 1.162.484 1.769Zm-1.504.007c0-.484-.174-.929-.521-1.335-.475-.548-1.098-.822-1.871-.822-.68 0-1.248.218-1.703.653-.455.435-.682.939-.682 1.512 0 .469.23.909.69 1.32.46.406 1.025.609 1.695.609.675 0 1.242-.203 1.702-.609.46-.411.69-.853.69-1.328Zm6.311-3.463v.939c.631-.455 1.127-.758 1.489-.91.367-.152.71-.227 1.027-.227.49 0 .964.181 1.424.543.313.244.47.494.47.748a.747.747 0 0 1-.228.55.728.728 0 0 1-.535.221c-.186 0-.382-.093-.588-.279-.205-.186-.388-.279-.55-.279-.21 0-.526.132-.946.396-.416.264-.937.66-1.563 1.189v2.267h2.142c.362 0 .619.071.771.213a.688.688 0 0 1 .235.543c0 .22-.079.401-.235.543-.152.137-.409.206-.771.206h-4.542c-.362 0-.621-.069-.778-.206a.72.72 0 0 1-.227-.55.69.69 0 0 1 .227-.536c.157-.142.416-.213.778-.213h.895v-3.654h-.543c-.362 0-.621-.069-.778-.206a.72.72 0 0 1-.227-.55.69.69 0 0 1 .227-.536c.157-.141.416-.212.778-.212h2.048Zm10.089-2.855v8.013h1.805c.362 0 .619.071.771.213a.688.688 0 0 1 .235.543c0 .22-.079.401-.235.543-.152.137-.409.206-.771.206h-5.114c-.362 0-.621-.069-.778-.206a.717.717 0 0 1-.227-.55c0-.22.075-.399.227-.536.157-.142.416-.213.778-.213h1.805v-6.509h-1.211c-.357 0-.614-.068-.77-.205a.707.707 0 0 1-.235-.55.69.69 0 0 1 .227-.536c.157-.142.416-.213.778-.213h2.715Zm11.726 0v8.013h.257c.357 0 .614.071.771.213a.687.687 0 0 1 .234.543c0 .22-.078.401-.234.543-.152.137-.409.206-.771.206h-1.761v-.367c-.342.2-.702.352-1.079.455a4.356 4.356 0 0 1-1.159.154c-1.13 0-2.04-.326-2.73-.976-.69-.656-1.034-1.47-1.034-2.444 0-1.017.362-1.886 1.086-2.605.724-.719 1.607-1.078 2.649-1.078.391 0 .775.061 1.152.183.376.117.748.296 1.115.536v-1.872h-.257c-.362 0-.621-.068-.778-.205a.713.713 0 0 1-.227-.543c0-.225.076-.406.227-.543.157-.142.416-.213.778-.213h1.761Zm-1.504 6.384c0-.621-.218-1.147-.653-1.577-.435-.431-.969-.646-1.6-.646-.626 0-1.157.215-1.592.646-.435.43-.653.949-.653 1.555 0 .553.196 1.008.587 1.365.391.352.944.528 1.658.528.71 0 1.262-.176 1.659-.528.396-.357.594-.805.594-1.343Zm16.863-4.916v8.952c0 .514-.013.82-.037.917a.684.684 0 0 1-.264.375.716.716 0 0 1-.448.154.755.755 0 0 1-.462-.154.698.698 0 0 1-.257-.389c-.024-.088-.037-.389-.037-.903v-8.952c0-.514.013-.82.037-.917a.697.697 0 0 1 .257-.375.755.755 0 0 1 .462-.154c.166 0 .316.052.448.154.137.103.225.23.264.382.024.098.037.401.037.91Z"/></g><defs><linearGradient id="a" x1="248.856" x2="248.856" y1="11.204" y2="267.684" gradientUnits="userSpaceOnUse"><stop stop-color="#1E293B"/><stop offset="1" stop-color="#1E293B" stop-opacity="0"/></linearGradient></defs></svg>