<svg xmlns="http://www.w3.org/2000/svg" width="15" height="15"  viewBox="0 0 15 15" fill="none"><script xmlns=""/>
<path d="M13.2668 0.773184C13.5164 0.523657 13.9322 0.523657 14.1818 0.773184L14.4036 0.994986C14.6531 1.24451 14.6531 1.66039 14.4036 1.90992L12.0469 4.57154C11.9638 4.65471 11.936 4.76561 11.936 4.87651V5.45874C11.936 5.70827 11.7142 5.90235 11.4924 5.90235H11.0488C10.9102 5.90235 10.7993 5.9578 10.7161 6.0687L3.17487 14.4694C3.00852 14.6635 2.75899 14.7744 2.48174 14.7744C2.25994 14.7744 2.01041 14.6912 1.84406 14.5249L0.651874 13.3327C0.485523 13.1664 0.402347 12.9168 0.402347 12.695C0.402347 12.4178 0.513248 12.1682 0.707324 12.0019L3.78482 9.22937C3.89572 9.1462 3.95117 9.0353 3.95117 8.89667V8.12036C3.95117 7.89856 4.14525 7.67676 4.39478 7.67676H5.33743C5.44833 7.67676 5.55924 7.64904 5.64241 7.56586L13.2668 0.773184ZM12.3796 8.56397C12.4628 8.56397 12.546 8.64714 12.5737 8.73032L12.9896 10.172L14.4313 10.5879C14.5145 10.6156 14.5977 10.6988 14.5977 10.782C14.5977 10.8929 14.5145 10.9761 14.4313 11.0038L12.9896 11.4197L12.5737 12.8614C12.546 12.9445 12.4628 13 12.3796 13C12.2687 13 12.1856 12.9445 12.1578 12.8614L11.742 11.4197L10.3002 11.0038C10.2171 10.9761 10.1616 10.8929 10.1616 10.782C10.1616 10.6988 10.2171 10.6156 10.3002 10.5879L11.742 10.172L12.1578 8.73032C12.1856 8.64714 12.2687 8.56397 12.3796 8.56397ZM2.81444 2.51987L3.23032 3.96158L4.67203 4.37746C4.7552 4.40519 4.83838 4.48836 4.83838 4.57154C4.83838 4.68244 4.7552 4.76561 4.67203 4.79334L3.23032 5.20922L2.81444 6.65093C2.78671 6.7341 2.70354 6.78955 2.62036 6.78955C2.50946 6.78955 2.42629 6.7341 2.39856 6.65093L1.98268 5.20922L0.540973 4.79334C0.457798 4.76561 0.402347 4.68244 0.402347 4.57154C0.402347 4.48836 0.457798 4.40519 0.540973 4.37746L1.98268 3.96158L2.39856 2.51987C2.42629 2.4367 2.50946 2.35352 2.62036 2.35352C2.70354 2.35352 2.78671 2.4367 2.81444 2.51987ZM6.61279 0.579107C6.69597 0.579107 6.77914 0.662283 6.80687 0.773184L7.00095 1.52176L7.74953 1.71584C7.86043 1.74357 7.9436 1.82674 7.9436 1.90992C7.9436 2.02082 7.86043 2.10399 7.74953 2.13172L7.00095 2.3258L6.80687 3.07438C6.77914 3.18528 6.69597 3.24073 6.61279 3.24073C6.50189 3.24073 6.41872 3.18528 6.39099 3.07438L6.19692 2.3258L5.44833 2.13172C5.33743 2.10399 5.28198 2.02082 5.28198 1.90992C5.28198 1.82674 5.33743 1.74357 5.44833 1.71584L6.19692 1.52176L6.39099 0.773184C6.41872 0.662283 6.50189 0.579107 6.61279 0.579107Z" fill="url(#paint0_linear_1099_3299)"/>
<defs>
<linearGradient id="paint0_linear_1099_3299" x1="7.5" y1="1" x2="7.5" y2="15" gradientUnits="userSpaceOnUse">
<stop stop-color="#88B5FF"/>
<stop offset="1" stop-color="#7A6AFF"/>
</linearGradient>
</defs>
<script xmlns=""/></svg>
