<svg xmlns="http://www.w3.org/2000/svg" width="14" height="16" viewBox="0 0 14 16" fill="none"><script xmlns=""/>
<path d="M14 2.5V4C14 5.40625 10.8438 6.5 7 6.5C3.125 6.5 0 5.40625 0 4V2.5C0 1.125 3.125 0 7 0C10.8438 0 14 1.125 14 2.5ZM12.2812 6.71875C12.9375 6.5 13.5312 6.1875 14 5.84375V9C14 10.4062 10.8438 11.5 7 11.5C3.125 11.5 0 10.4062 0 9V5.84375C0.4375 6.1875 1.0625 6.5 1.6875 6.71875C3.09375 7.21875 4.96875 7.5 7 7.5C9 7.5 10.875 7.21875 12.2812 6.71875ZM0 10.8438C0.4375 11.1875 1.0625 11.5 1.6875 11.7188C3.09375 12.2188 4.96875 12.5 7 12.5C9 12.5 10.875 12.2188 12.2812 11.7188C12.9375 11.5 13.5312 11.1875 14 10.8438V13.5C14 14.9062 10.8438 16 7 16C3.125 16 0 14.9062 0 13.5V10.8438Z" fill="#933DC9"/>
<script xmlns=""/></svg>
