<svg xmlns="http://www.w3.org/2000/svg" width="16" height="16" viewBox="0 0 16 16" fill="none"><script xmlns=""/>
<path d="M8 0C12.4062 0 16 3.59375 16 8C16 12.4375 12.4062 16 8 16C3.5625 16 0 12.4375 0 8C0 5.78125 0.90625 3.75 2.375 2.3125C2.78125 1.90625 3.40625 1.90625 3.8125 2.3125C4.1875 2.71875 4.1875 3.34375 3.78125 3.71875C2.6875 4.8125 2 6.34375 2 8C2 11.3125 4.6875 14 8 14C11.3125 14 14 11.3125 14 8C14 5.03125 11.8125 2.5625 9 2.09375V3C9 3.5625 8.53125 4 8 4C7.4375 4 7 3.5625 7 3V1C7 0.46875 7.4375 0 8 0ZM6.03125 4.96875L8.53125 7.46875C8.8125 7.78125 8.8125 8.25 8.53125 8.53125C8.21875 8.84375 7.75 8.84375 7.46875 8.53125L4.96875 6.03125C4.65625 5.75 4.65625 5.28125 4.96875 4.96875C5.25 4.6875 5.71875 4.6875 6.03125 4.96875Z" fill="#D77580"/>
<script xmlns=""/></svg>
