<svg xmlns="http://www.w3.org/2000/svg" width="14" height="16" viewBox="0 0 14 16" fill="none"><script xmlns=""/>
<path d="M9 0H10C10.5312 0 11 0.46875 11 1C11 1.5625 10.5312 2 10 2V6.15625C10 6.53125 10.0938 6.90625 10.2812 7.21875L13.6562 12.7188C13.875 13.0625 14 13.4375 14 13.8438C14 15.0312 13 16 11.8125 16H2.15625C0.96875 16 0 15.0312 0 13.8438C0 13.4375 0.09375 13.0625 0.3125 12.7188L3.6875 7.21875C3.875 6.90625 4 6.53125 4 6.15625V2C3.4375 2 3 1.5625 3 1C3 0.46875 3.4375 0 4 0H5H9ZM6 6.15625C6 6.90625 5.78125 7.625 5.40625 8.25L4.3125 10H9.65625L8.59375 8.25C8.1875 7.625 8 6.90625 8 6.15625V2H6V6.15625Z" fill="#822580"/>
<script xmlns=""/></svg>
