<svg width="30" height="25" viewBox="0 0 30 25" fill="none" xmlns="http://www.w3.org/2000/svg">
<path d="M3.33957 4.96691C3.33957 2.55284 5.29816 0.594249 7.71223 0.594249H9.16979C9.94411 0.594249 10.6273 1.27748 10.6273 2.0518C10.6273 2.87168 9.94411 3.50936 9.16979 3.50936H7.71223C6.89236 3.50936 6.25468 4.19258 6.25468 4.96691V9.33957H7.71223C8.48656 9.33957 9.16979 10.0228 9.16979 10.7971C9.16979 11.617 8.48656 12.2547 7.71223 12.2547H6.25468V18.0849C6.25468 20.2712 4.56938 22.1387 2.38305 22.412L2.06421 22.4576C1.24434 22.5487 0.51556 22.0021 0.424463 21.1822C0.333366 20.4079 0.879949 19.6791 1.69982 19.588L2.01866 19.5424C2.74744 19.4513 3.29402 18.8137 3.29402 18.0849V12.2547H1.88202C1.06214 12.2547 0.424463 11.617 0.424463 10.7971C0.424463 10.0228 1.06214 9.33957 1.88202 9.33957H3.33957V4.96691ZM15.4555 8.70189C14.2257 10.5694 13.5424 12.8013 13.5424 15.1698C13.5424 17.5839 14.2257 19.8157 15.4555 21.6832C15.911 22.3209 15.7288 23.2319 15.0455 23.6874C14.4079 24.1429 13.4969 23.9607 13.0414 23.2774C11.4928 20.9545 10.6273 18.176 10.6273 15.1698C10.6273 12.2091 11.4928 9.43067 13.0414 7.10769C13.4969 6.42446 14.3623 6.24227 15.0455 6.69776C15.7288 7.15324 15.911 8.01866 15.4555 8.70189ZM24.7018 8.70189C24.2464 8.01866 24.4285 7.15324 25.1118 6.69776C25.795 6.24227 26.6604 6.42446 27.1159 7.10769C28.6646 9.43067 29.5755 12.2091 29.5755 15.1698C29.5755 18.176 28.6646 20.9545 27.1159 23.2774C26.6604 23.9607 25.795 24.1429 25.1118 23.6874C24.4285 23.2319 24.2464 22.3665 24.7018 21.6832C25.9317 19.8157 26.6604 17.5839 26.6604 15.2153C26.6604 12.8013 25.9317 10.5694 24.7018 8.70189ZM18.5528 11.617L20.1014 13.1201L21.6045 11.617C22.1511 11.0249 23.1076 11.0249 23.6542 11.617C24.2464 12.1636 24.2464 13.1201 23.6542 13.6667L22.1511 15.1698L23.6542 16.7184C24.2464 17.265 24.2464 18.2215 23.6542 18.7681C23.1076 19.3603 22.1511 19.3603 21.6045 18.7681L20.1014 17.265L18.5528 18.7681C18.0062 19.3603 17.0497 19.3603 16.5031 18.7681C15.911 18.2215 15.911 17.265 16.5031 16.7184L18.0062 15.1698L16.5031 13.6667C15.911 13.1201 15.911 12.1636 16.5031 11.617C17.0497 11.0249 18.0062 11.0249 18.5528 11.617Z" fill="url(#paint0_linear_1370_4696)"></path>
<defs>
<linearGradient id="paint0_linear_1370_4696" x1="15" y1="4.5" x2="15" y2="21" gradientUnits="userSpaceOnUse">
<stop offset="0.0572917" stop-color="#7A6AFF"></stop>
<stop offset="0.244792" stop-color="#F356D6"></stop>
<stop offset="0.448917" stop-color="#FF629F"></stop>
<stop offset="0.615965" stop-color="#FF926F"></stop>
<stop offset="0.796875" stop-color="#FFC858"></stop>
<stop offset="1" stop-color="#F9F871"></stop>
</linearGradient>
</defs>
</svg>
