<svg width="26" height="25" viewBox="0 0 26 25" fill="none" xmlns="http://www.w3.org/2000/svg">
<path d="M6.66875 6.42446H10.7681C14.3665 0.457604 19.9689 0.229861 23.3395 0.867541C23.8861 0.958638 24.296 1.36857 24.3871 1.91516C25.0248 5.28575 24.7971 10.8882 18.8302 14.4866V18.5859C18.8302 19.7246 18.1925 20.8178 17.1905 21.4099L13.1822 23.7785C12.8178 24.0062 12.4079 24.0062 12.089 23.7785C11.7246 23.5963 11.5424 23.2319 11.5424 22.8219V17.6294C11.5424 16.5818 11.1325 15.5797 10.4037 14.8509C9.67496 14.1222 8.67289 13.7122 7.62527 13.7122H2.43274C2.0228 13.7122 1.65841 13.53 1.47622 13.1656C1.24847 12.8468 1.24847 12.4369 1.47622 12.0725L3.84474 8.06421C4.43687 7.06214 5.53004 6.42446 6.66875 6.42446ZM20.6522 6.42446C20.6522 5.4224 19.8323 4.60252 18.8302 4.60252C17.7826 4.60252 17.0083 5.4224 17.0083 6.42446C17.0083 7.47208 17.7826 8.24641 18.8302 8.24641C19.8323 8.24641 20.6522 7.47208 20.6522 6.42446ZM8.90063 22.0021C6.66875 24.2795 1.33957 23.9151 1.33957 23.9151C1.33957 23.9151 0.975183 18.5859 3.25261 16.354C4.80126 14.8054 7.35198 14.8054 8.90063 16.354C10.4493 17.9027 10.4493 20.4534 8.90063 22.0021ZM6.75985 20.3623C7.30643 19.8613 7.30643 18.9959 6.75985 18.4948C6.25881 17.9482 5.39339 17.9482 4.89236 18.4948C4.11803 19.2236 4.25468 21 4.25468 21C4.25468 21 6.03107 21.1366 6.75985 20.3623Z" fill="url(#paint0_linear_1099_3079)"/>
<defs>
<linearGradient id="paint0_linear_1099_3079" x1="13" y1="1" x2="13" y2="24" gradientUnits="userSpaceOnUse">
<stop stop-color="#88B5FF"/>
<stop offset="1" stop-color="#7A6AFF"/>
</linearGradient>
</defs>
</svg>
