<svg width="24" height="24" viewBox="0 0 24 24" fill="none" xmlns="http://www.w3.org/2000/svg">
<path d="M21.4741 0.913089C21.884 0.503152 22.5673 0.503152 22.9772 0.913089L23.3416 1.27748C23.7515 1.68741 23.7515 2.37064 23.3416 2.78058L19.47 7.15324C19.3333 7.28989 19.2878 7.47208 19.2878 7.65427V8.61079C19.2878 9.02073 18.9234 9.33957 18.559 9.33957H17.8302C17.6025 9.33957 17.4203 9.43067 17.2836 9.61286L4.89443 23.4141C4.62113 23.7329 4.2112 23.9151 3.75571 23.9151C3.39132 23.9151 2.98139 23.7785 2.7081 23.5052L0.749508 21.5466C0.476217 21.2733 0.339571 20.8634 0.339571 20.499C0.339571 20.0435 0.521765 19.6335 0.840605 19.3603L5.89649 14.8054C6.07869 14.6688 6.16979 14.4866 6.16979 14.2588V12.9835C6.16979 12.6191 6.48863 12.2547 6.89856 12.2547H8.44721C8.62941 12.2547 8.8116 12.2091 8.94825 12.0725L21.4741 0.913089ZM20.0165 13.7122C20.1532 13.7122 20.2898 13.8489 20.3354 13.9855L21.0186 16.354L23.3871 17.0373C23.5238 17.0828 23.6604 17.2195 23.6604 17.3561C23.6604 17.5383 23.5238 17.675 23.3871 17.7205L21.0186 18.4037L20.3354 20.7723C20.2898 20.9089 20.1532 21 20.0165 21C19.8344 21 19.6977 20.9089 19.6522 20.7723L18.9689 18.4037L16.6004 17.7205C16.4638 17.675 16.3727 17.5383 16.3727 17.3561C16.3727 17.2195 16.4638 17.0828 16.6004 17.0373L18.9689 16.354L19.6522 13.9855C19.6977 13.8489 19.8344 13.7122 20.0165 13.7122ZM4.30229 3.78265L4.98552 6.15117L7.35405 6.8344C7.49069 6.87995 7.62734 7.01659 7.62734 7.15324C7.62734 7.33543 7.49069 7.47208 7.35405 7.51763L4.98552 8.20086L4.30229 10.5694C4.25675 10.706 4.1201 10.7971 3.98346 10.7971C3.80126 10.7971 3.66462 10.706 3.61907 10.5694L2.93584 8.20086L0.567314 7.51763C0.430668 7.47208 0.339571 7.33543 0.339571 7.15324C0.339571 7.01659 0.430668 6.87995 0.567314 6.8344L2.93584 6.15117L3.61907 3.78265C3.66462 3.646 3.80126 3.50936 3.98346 3.50936C4.1201 3.50936 4.25675 3.646 4.30229 3.78265ZM10.5424 0.594249C10.6791 0.594249 10.8157 0.730895 10.8613 0.913089L11.1801 2.1429L12.4099 2.46174C12.5921 2.50729 12.7288 2.64393 12.7288 2.78058C12.7288 2.96277 12.5921 3.09942 12.4099 3.14497L11.1801 3.46381L10.8613 4.69362C10.8157 4.87581 10.6791 4.96691 10.5424 4.96691C10.3603 4.96691 10.2236 4.87581 10.1781 4.69362L9.85922 3.46381L8.62941 3.14497C8.44721 3.09942 8.35612 2.96277 8.35612 2.78058C8.35612 2.64393 8.44721 2.50729 8.62941 2.46174L9.85922 2.1429L10.1781 0.913089C10.2236 0.730895 10.3603 0.594249 10.5424 0.594249Z" fill="url(#paint0_linear_1099_3121)"/>
<defs>
<linearGradient id="paint0_linear_1099_3121" x1="12" y1="1" x2="12" y2="24" gradientUnits="userSpaceOnUse">
<stop stop-color="#88B5FF"/>
<stop offset="1" stop-color="#7A6AFF"/>
</linearGradient>
</defs>
</svg>
