<svg width="24" height="23" viewBox="0 0 24 23" fill="none" xmlns="http://www.w3.org/2000/svg">
<path d="M1.1139 12.8944C0.521765 11.8924 0.521765 10.6625 1.1139 9.61493L5.12217 2.69155C5.7143 1.64393 6.80747 1.0518 7.94618 1.0518H16.0083C17.1925 1.0518 18.2402 1.64393 18.8323 2.69155L22.8406 9.61493C23.4327 10.6625 23.4327 11.8924 22.8406 12.8944L18.8323 19.8634C18.2402 20.911 17.1925 21.5031 16.0083 21.5031H7.94618C6.80747 21.5031 5.7143 20.911 5.12217 19.8634L1.1139 12.8944ZM10.9068 15.263C10.9068 15.9006 11.3623 16.3561 12 16.3561C12.5921 16.3561 13.0932 15.9006 13.0932 15.263V12.3478H16.0083C16.6004 12.3478 17.1014 11.8924 17.1014 11.2547C17.1014 10.6625 16.6004 10.1615 16.0083 10.1615H13.0932V7.24641C13.0932 6.65427 12.5921 6.15324 12 6.15324C11.3623 6.15324 10.9068 6.65427 10.9068 7.24641V10.1615H7.99173C7.35405 10.1615 6.89856 10.6625 6.89856 11.2547C6.89856 11.8924 7.35405 12.3478 7.99173 12.3478H10.9068V15.263Z" fill="url(#paint0_linear_1099_3120)"/>
<defs>
<linearGradient id="paint0_linear_1099_3120" x1="12" y1="0" x2="12" y2="23" gradientUnits="userSpaceOnUse">
<stop stop-color="#88B5FF"/>
<stop offset="1" stop-color="#7A6AFF"/>
</linearGradient>
</defs>
</svg>
