<svg width="26" height="23" viewBox="0 0 26 23" fill="none" xmlns="http://www.w3.org/2000/svg">
<path d="M4.07145 0.869609L24.2039 9.61493C25.6615 10.2526 25.6615 12.3023 24.2039 12.94L4.07145 21.6853C2.5228 22.3685 0.9286 20.6377 1.74847 19.1346L4.93687 13.2588C5.11907 12.8944 5.48345 12.6211 5.93894 12.5756L13.9555 11.5735C14.0921 11.5735 14.2288 11.4369 14.2288 11.2547C14.2288 11.118 14.0921 10.9814 13.9555 10.9814L5.93894 9.97932C5.48345 9.93377 5.11907 9.66048 4.93687 9.29609L1.74847 3.42033C0.9286 1.91723 2.5228 0.18638 4.07145 0.869609Z" fill="url(#paint0_linear_1202_829)"/>
<defs>
<linearGradient id="paint0_linear_1202_829" x1="13.5" y1="0" x2="13.5" y2="39" gradientUnits="userSpaceOnUse">
<stop stop-color="#7A6AFF"/>
<stop offset="1" stop-color="#F356D6"/>
</linearGradient>
</defs>
</svg>
