<svg width="24" height="25" viewBox="0 0 24 25" fill="none" xmlns="http://www.w3.org/2000/svg">
<path d="M19.2878 10.0683C19.2878 12.1636 18.6045 14.1222 17.4658 15.6708L23.2049 21.4555C23.7971 22.0021 23.7971 22.9586 23.2049 23.5052C22.6584 24.0973 21.7018 24.0973 21.1553 23.5052L15.3706 17.7205C13.8219 18.9048 11.8634 19.5424 9.81367 19.5424C4.57559 19.5424 0.339571 15.3064 0.339571 10.0683C0.339571 4.87581 4.57559 0.594249 9.81367 0.594249C15.0062 0.594249 19.2878 4.87581 19.2878 10.0683ZM9.81367 16.6273C13.412 16.6273 16.3727 13.7122 16.3727 10.0683C16.3727 6.47001 13.412 3.50936 9.81367 3.50936C6.16979 3.50936 3.25468 6.47001 3.25468 10.0683C3.25468 13.7122 6.16979 16.6273 9.81367 16.6273Z" fill="url(#paint0_linear_1099_3187)"/>
<defs>
<linearGradient id="paint0_linear_1099_3187" x1="12" y1="1" x2="12" y2="40" gradientUnits="userSpaceOnUse">
<stop stop-color="#7A6AFF"/>
<stop offset="1" stop-color="#F356D6"/>
</linearGradient>
</defs>
</svg>
