<svg width="30" height="25" viewBox="0 0 30 25" fill="none" xmlns="http://www.w3.org/2000/svg">
<path d="M2.15531 0.867541L11.3561 8.01866C11.675 7.92757 12.0393 7.88202 12.4493 7.88202H17.5507C18.325 7.88202 19.0538 8.10976 19.6915 8.4286C19.737 8.38305 19.737 8.3375 19.7826 8.3375L22.6977 5.4224C23.2443 4.83026 24.2008 4.83026 24.7474 5.4224C25.3395 5.96898 25.3395 6.9255 24.7474 7.47208L21.8323 10.3872C21.8323 10.4327 21.7867 10.4327 21.7412 10.4783C22.0145 11.0249 22.1967 11.617 22.2422 12.2547H25.2029C25.9772 12.2547 26.6604 12.9379 26.6604 13.7122C26.6604 14.5321 25.9772 15.1698 25.2029 15.1698H22.2878C22.2878 15.6253 22.2422 16.0808 22.1511 16.4907L29.1201 22.0021C29.6211 22.3665 29.7122 23.0497 29.3022 23.5052C28.9379 24.0062 28.2546 24.0973 27.7991 23.6874L0.8344 2.55284C0.333366 2.18845 0.242269 1.50522 0.652206 1.04973C1.01659 0.548701 1.69982 0.457604 2.15531 0.867541ZM15 0.594249C17.4141 0.594249 19.3727 2.55284 19.3727 4.96691V5.1491C19.3727 5.87788 18.7805 6.42446 18.0518 6.42446H11.9027C11.1739 6.42446 10.6273 5.87788 10.6273 5.1491V4.96691C10.6273 2.55284 12.5859 0.594249 15 0.594249ZM7.71223 12.2547C7.75778 11.7992 7.84888 11.3893 7.98552 10.9793L14.2712 15.8986V22.4576C12.677 22.2754 11.265 21.6377 10.1263 20.6356L7.25675 23.5052C6.71016 24.0973 5.75364 24.0973 5.20706 23.5052C4.61493 22.9586 4.61493 22.0021 5.20706 21.4555L8.12217 18.5404C8.21327 18.4493 8.30436 18.3582 8.39546 18.3126C7.93997 17.3561 7.71223 16.3085 7.71223 15.1698H4.79712C3.97725 15.1698 3.33957 14.5321 3.33957 13.7122C3.33957 12.9379 3.97725 12.2547 4.79712 12.2547H7.71223ZM15.7288 22.4576V17.0373L20.0103 20.4534C18.8716 21.5466 17.3685 22.2754 15.7288 22.4576Z" fill="url(#paint0_linear_1099_3173)"/>
<defs>
<linearGradient id="paint0_linear_1099_3173" x1="15" y1="1" x2="15" y2="40" gradientUnits="userSpaceOnUse">
<stop stop-color="#7A6AFF"/>
<stop offset="1" stop-color="#F356D6"/>
</linearGradient>
</defs>
</svg>
