<svg width="31" height="24" viewBox="0 0 31 24" fill="none" xmlns="http://www.w3.org/2000/svg">
<path d="M18.7466 0.28788C19.5224 0.51605 19.9787 1.29183 19.7505 2.0676L13.9094 22.5116C13.6812 23.2874 12.9054 23.7437 12.1297 23.5156C11.3539 23.2874 10.8975 22.5116 11.1257 21.7358L16.9669 1.29183C17.195 0.51605 17.9708 0.0597105 18.7466 0.28788ZM22.4429 5.76396C22.9905 5.17071 23.9489 5.17071 24.4965 5.76396L29.6075 10.875C30.2007 11.4226 30.2007 12.3809 29.6075 12.9285L24.4965 18.0395C23.9489 18.6327 22.9905 18.6327 22.4429 18.0395C21.8497 17.4919 21.8497 16.5336 22.4429 15.986L26.5044 11.8789L22.4429 7.81748C21.8497 7.26988 21.8497 6.31156 22.4429 5.76396ZM8.43331 5.76396C9.02655 6.31156 9.02655 7.26988 8.43331 7.81748L4.37189 11.8789L8.43331 15.986C9.02655 16.5336 9.02655 17.4919 8.43331 18.0395C7.8857 18.6327 6.92739 18.6327 6.37978 18.0395L1.26878 12.9285C0.675536 12.3809 0.675536 11.4226 1.26878 10.875L6.37978 5.76396C6.92739 5.17071 7.8857 5.17071 8.43331 5.76396Z" fill="url(#paint0_linear_1370_4512)"></path>
<defs>
<linearGradient id="paint0_linear_1370_4512" x1="15.4609" y1="4.14062" x2="15.4609" y2="20.6406" gradientUnits="userSpaceOnUse">
<stop stop-color="#FF926F"></stop>
<stop offset="0.552083" stop-color="#FFC858"></stop>
<stop offset="1" stop-color="#F9F871"></stop>
</linearGradient>
</defs>
</svg>
