<svg width="25" height="25" viewBox="0 0 25 25" fill="none" xmlns="http://www.w3.org/2000/svg">
<path d="M16.1273 7.35164C16.1273 6.57587 16.7662 5.89136 17.5876 5.89136C18.3633 5.89136 19.0479 6.57587 19.0479 7.35164C19.0479 8.17305 18.3633 8.81193 17.5876 8.81193C16.7662 8.81193 16.1273 8.17305 16.1273 7.35164ZM16.1273 16.8435C15.6709 16.8435 15.2602 16.8435 14.8495 16.7522L13.5718 17.9844C13.3892 18.2125 13.1154 18.3038 12.8416 18.3038H11.0163V20.1292C11.0163 20.768 10.5143 21.2244 9.92106 21.2244H8.0957V23.0497C8.0957 23.6886 7.59373 24.1449 7.00049 24.1449H1.88948C1.25061 24.1449 0.79427 23.6886 0.79427 23.0497V17.9387C0.79427 17.6649 0.885537 17.3911 1.11371 17.1629L8.18697 10.0897C8.0957 9.67897 8.0957 9.26827 8.0957 8.81193C8.0957 4.38544 11.6552 0.780353 16.1273 0.780353C20.5538 0.780353 24.1589 4.38544 24.1589 8.81193C24.1589 13.2841 20.5538 16.8435 16.1273 16.8435ZM16.1273 14.6531C19.3217 14.6531 21.9684 12.0519 21.9684 8.81193C21.9684 5.61755 19.3217 2.97078 16.1273 2.97078C12.8873 2.97078 10.2861 5.61755 10.2861 8.81193C10.2861 9.13137 10.2861 9.4508 10.3318 9.77024L10.5143 10.8655L2.93907 18.3951V21.9545H5.85964V19.0339H8.78021V16.1134H12.3853L14.0738 14.4249L15.169 14.6074C15.4884 14.6531 15.8078 14.6531 16.1273 14.6531Z" fill="url(#paint0_linear_1370_4588)"></path>
<defs>
<linearGradient id="paint0_linear_1370_4588" x1="12.4766" y1="4.72437" x2="12.4766" y2="21.2244" gradientUnits="userSpaceOnUse">
<stop stop-color="#FF926F"></stop>
<stop offset="0.520833" stop-color="#FFC858"></stop>
<stop offset="1" stop-color="#F9F871"></stop>
</linearGradient>
</defs>
</svg>
