<svg xmlns="http://www.w3.org/2000/svg" width="451" height="326" fill="none" viewBox="0 0 451 326"><mask id="b" width="451" height="326" x="0" y="0" maskUnits="userSpaceOnUse" style="mask-type:alpha"><path fill="url(#a)" d="M.555.53h449.842v324.608H.555z"/></mask><g mask="url(#b)"><path fill="#27262A" stroke="#3B3A3F" stroke-width=".092" d="M29.273 22.587c0-6.07 4.92-10.99 10.99-10.99H421.68v287.492c0 6.061-4.914 10.974-10.975 10.974H29.272V22.587Z"/></g><g clip-path="url(#c)"><g clip-path="url(#d)"><g clip-path="url(#e)"><g filter="url(#f)"><path fill="#8B8F98" d="M230.242 97.953c1.879 0 3.405.869 4.509 1.902 1.103 1.01 1.831 2.231 2.183 3.076a.835.835 0 0 1 0 .587c-.352.822-1.08 2.043-2.183 3.076-1.104 1.033-2.63 1.879-4.509 1.879-1.902 0-3.428-.846-4.532-1.879-1.103-1.033-1.831-2.254-2.184-3.076a.847.847 0 0 1 0-.587 9.176 9.176 0 0 1 2.184-3.076c1.104-1.033 2.63-1.902 4.532-1.902Zm3.382 5.26a3.398 3.398 0 0 0-3.382-3.382 3.382 3.382 0 0 0-3.381 3.382 3.367 3.367 0 0 0 3.381 3.381 3.383 3.383 0 0 0 3.382-3.381Zm-3.382-1.503a1.55 1.55 0 0 0-.211-.728c.07 0 .141-.023.211-.023a2.254 2.254 0 1 1-2.254 2.254v-.188c.211.117.47.188.751.188.822 0 1.503-.658 1.503-1.503Z"/></g><path fill="#8B8F98" d="M253.191 105.418a1.83 1.83 0 0 1-1.323-.541 1.79 1.79 0 0 1-.541-1.311c0-.497.181-.925.541-1.286.369-.361.81-.541 1.323-.541.505 0 .937.18 1.298.541.361.353.541.781.541 1.286 0 .513-.18.95-.541 1.311-.353.36-.785.541-1.298.541Zm5.8 0a1.83 1.83 0 0 1-1.323-.541 1.785 1.785 0 0 1-.541-1.311c0-.497.18-.925.541-1.286.369-.361.81-.541 1.323-.541.505 0 .937.18 1.298.541.361.353.541.781.541 1.286 0 .513-.18.95-.541 1.311-.353.36-.785.541-1.298.541Zm5.8 0a1.83 1.83 0 0 1-1.323-.541 1.785 1.785 0 0 1-.541-1.311c0-.497.18-.925.541-1.286.369-.361.81-.541 1.323-.541.504 0 .937.18 1.298.541.361.353.541.781.541 1.286 0 .513-.18.95-.541 1.311-.353.36-.786.541-1.298.541Zm5.799 0c-.513 0-.953-.181-1.322-.541a1.785 1.785 0 0 1-.541-1.311c0-.497.18-.925.541-1.286a1.823 1.823 0 0 1 1.322-.541c.505 0 .938.18 1.299.541.361.353.541.781.541 1.286 0 .513-.18.95-.541 1.311a1.75 1.75 0 0 1-1.299.541Zm5.8 0c-.513 0-.953-.181-1.322-.541a1.785 1.785 0 0 1-.541-1.311c0-.497.18-.925.541-1.286a1.823 1.823 0 0 1 1.322-.541c.505 0 .938.18 1.299.541.36.353.541.781.541 1.286 0 .513-.181.95-.541 1.311a1.75 1.75 0 0 1-1.299.541Zm5.8 0c-.513 0-.954-.181-1.322-.541a1.785 1.785 0 0 1-.541-1.311c0-.497.18-.925.541-1.286a1.821 1.821 0 0 1 1.322-.541c.505 0 .938.18 1.299.541.36.353.541.781.541 1.286 0 .513-.181.95-.541 1.311a1.75 1.75 0 0 1-1.299.541Zm5.8 0c-.513 0-.954-.181-1.322-.541a1.785 1.785 0 0 1-.541-1.311c0-.497.18-.925.541-1.286a1.821 1.821 0 0 1 1.322-.541c.505 0 .938.18 1.299.541.36.353.541.781.541 1.286 0 .513-.181.95-.541 1.311a1.75 1.75 0 0 1-1.299.541Zm5.8 0c-.513 0-.954-.181-1.322-.541a1.785 1.785 0 0 1-.541-1.311c0-.497.18-.925.541-1.286a1.821 1.821 0 0 1 1.322-.541c.505 0 .938.18 1.299.541.36.353.541.781.541 1.286 0 .513-.181.95-.541 1.311a1.75 1.75 0 0 1-1.299.541Zm5.8 0c-.513 0-.954-.181-1.322-.541a1.785 1.785 0 0 1-.541-1.311c0-.497.18-.925.541-1.286a1.821 1.821 0 0 1 1.322-.541c.505 0 .938.18 1.298.541.361.353.541.781.541 1.286 0 .513-.18.95-.541 1.311-.352.36-.785.541-1.298.541Zm5.8 0a1.83 1.83 0 0 1-1.323-.541 1.79 1.79 0 0 1-.541-1.311c0-.497.181-.925.541-1.286.369-.361.81-.541 1.323-.541.505 0 .938.18 1.298.541.361.353.541.781.541 1.286 0 .513-.18.95-.541 1.311-.352.36-.785.541-1.298.541Zm5.8 0a1.83 1.83 0 0 1-1.323-.541 1.79 1.79 0 0 1-.541-1.311c0-.497.181-.925.541-1.286.369-.361.81-.541 1.323-.541.505 0 .938.18 1.298.541.361.353.541.781.541 1.286 0 .513-.18.95-.541 1.311-.352.36-.785.541-1.298.541Zm5.8 0a1.83 1.83 0 0 1-1.323-.541 1.79 1.79 0 0 1-.541-1.311c0-.497.181-.925.541-1.286.369-.361.81-.541 1.323-.541.505 0 .938.18 1.298.541.361.353.541.781.541 1.286 0 .513-.18.95-.541 1.311-.352.36-.785.541-1.298.541Zm5.8 0a1.83 1.83 0 0 1-1.323-.541 1.79 1.79 0 0 1-.541-1.311c0-.497.181-.925.541-1.286.369-.361.81-.541 1.323-.541.505 0 .937.18 1.298.541.361.353.541.781.541 1.286 0 .513-.18.95-.541 1.311-.353.36-.785.541-1.298.541Zm5.8 0a1.83 1.83 0 0 1-1.323-.541 1.785 1.785 0 0 1-.541-1.311c0-.497.18-.925.541-1.286.369-.361.81-.541 1.323-.541.505 0 .937.18 1.298.541.361.353.541.781.541 1.286 0 .513-.18.95-.541 1.311-.353.36-.785.541-1.298.541Z"/></g><rect width="71.034" height="22.015" x="56.914" y="91.701" fill="#313236" rx="4.008"/><path fill="#8B8F98" d="M69.987 104.83c-.371 0-.724-.039-1.056-.157l-.646.646a.458.458 0 0 1-.333.137h-.782v.783a.463.463 0 0 1-.47.469h-.783v.783c0 .274-.215.47-.47.47h-1.565a.452.452 0 0 1-.47-.47v-1.565c0-.118.04-.235.138-.333l3.15-3.151a3.136 3.136 0 0 1-.157-1.056 3.437 3.437 0 0 1 3.444-3.444 3.45 3.45 0 0 1 3.444 3.444 3.437 3.437 0 0 1-3.444 3.444Zm.783-3.444c.43 0 .783-.333.783-.783a.785.785 0 0 0-.783-.783.773.773 0 0 0-.783.783c0 .45.333.783.783.783ZM83.575 106.708h-1.356a9.09 9.09 0 0 1-.055-.441 4.44 4.44 0 0 1-.022-.44 1.468 1.468 0 0 1-.694.738c-.324.176-.713.264-1.168.264-.566 0-1.022-.146-1.367-.44-.345-.294-.518-.687-.518-1.18 0-.492.169-.881.507-1.168.338-.286.841-.47 1.51-.551l1.675-.187v-.265c0-.323-.092-.573-.276-.749-.183-.176-.444-.265-.782-.265-.301 0-.544.078-.727.232a.878.878 0 0 0-.309.628h-1.356c.06-.595.305-1.062.739-1.4.433-.337.999-.506 1.697-.506.779 0 1.37.183 1.774.551.412.367.618.907.618 1.62v2.16c0 .301.007.562.022.782.022.213.051.419.088.617Zm-3.78-1.576c0 .228.077.404.231.529.154.125.367.188.64.188.41 0 .749-.118 1.013-.353.272-.242.408-.562.408-.959v-.341l-1.245.143c-.397.051-.673.139-.827.264-.147.118-.22.294-.22.529Zm8.521 1.708c-.39 0-.742-.091-1.058-.275a1.898 1.898 0 0 1-.716-.749v2.854H85.13v-7.56h1.389v.926c.147-.316.382-.57.705-.761.33-.198.694-.297 1.091-.297.735 0 1.33.271 1.785.815.456.544.684 1.249.684 2.116s-.228 1.572-.684 2.116c-.455.544-1.05.815-1.785.815Zm-.397-4.827c-.44 0-.786.162-1.036.485-.25.316-.374.753-.374 1.312v.198c0 .559.124.999.374 1.323.25.316.595.474 1.036.474.448 0 .801-.169 1.058-.507.257-.338.386-.801.386-1.389s-.129-1.051-.386-1.389c-.257-.338-.61-.507-1.058-.507Zm5.651-1.851h-1.498v-1.378h1.498v1.378Zm-.044 6.546h-1.41v-5.598h1.41v5.598Zm3.22 0h-1.465V98.84h1.465v3.306h4.034V98.84h1.455v7.868h-1.455v-3.416h-4.034v3.416Zm9.687-5.73c.845 0 1.528.268 2.05.804.522.536.782 1.245.782 2.127 0 .889-.26 1.602-.782 2.138-.514.529-1.198.793-2.05.793-.852 0-1.539-.264-2.061-.793-.514-.536-.771-1.249-.771-2.138 0-.882.261-1.591.782-2.127.522-.536 1.205-.804 2.05-.804Zm0 1.046c-.448 0-.797.166-1.047.496-.25.331-.374.794-.374 1.389s.124 1.058.374 1.389c.25.33.599.496 1.047.496.448 0 .797-.166 1.047-.496.25-.331.375-.794.375-1.389 0-.588-.125-1.047-.375-1.378-.25-.338-.599-.507-1.047-.507Zm6.333 4.816c-.772 0-1.389-.157-1.852-.473-.455-.324-.712-.776-.771-1.356h1.344c.03.265.158.474.386.628.235.147.525.221.871.221.316 0 .569-.063.76-.188.198-.125.298-.294.298-.507a.443.443 0 0 0-.199-.396c-.125-.096-.345-.173-.661-.232l-.992-.176c-.543-.096-.948-.276-1.212-.54-.265-.265-.397-.617-.397-1.058 0-.522.213-.948.639-1.279.427-.337.97-.506 1.631-.506.713 0 1.275.15 1.687.451.418.294.657.717.716 1.268h-1.289a.734.734 0 0 0-.342-.529c-.198-.132-.452-.199-.761-.199-.293 0-.532.059-.716.177a.543.543 0 0 0-.264.474.48.48 0 0 0 .187.407c.125.089.349.162.672.221l1.091.187c.507.088.889.272 1.146.551.258.272.386.632.386 1.08 0 .522-.224.948-.672 1.279-.441.33-1.003.495-1.686.495Zm5.953-1.179c.124 0 .246-.007.363-.022.118-.022.243-.051.375-.088v1.08a3.226 3.226 0 0 1-.551.121c-.176.03-.364.044-.562.044-.595 0-1.036-.132-1.323-.396-.279-.265-.418-.673-.418-1.224v-3.052h-.772v-1.014h.772v-1.4h1.399v1.4h1.334v1.014h-1.345v2.832c0 .242.055.422.166.54.117.11.304.165.562.165Z"/></g></g><path stroke="#313236" stroke-linecap="round" stroke-width="1.002" d="M57.415 125.263h329.617"/><g clip-path="url(#g)"><g clip-path="url(#h)"><g clip-path="url(#i)"><g filter="url(#j)"><path fill="#8B8F98" d="m223.62 143.429 2.63 2.042c1.057-.798 2.372-1.432 3.992-1.432 1.879 0 3.405.869 4.509 1.902 1.103 1.01 1.831 2.231 2.183 3.076a.835.835 0 0 1 0 .587c-.305.752-.939 1.832-1.878 2.771l2.465 1.949c.259.188.306.54.094.775a.52.52 0 0 1-.775.094l-13.901-10.896a.518.518 0 0 1-.093-.775.517.517 0 0 1 .774-.093Zm4.344 3.381 2.114 1.667c.094-.211.164-.423.164-.681 0-.258-.094-.516-.211-.728.07 0 .141-.023.211-.023a2.254 2.254 0 0 1 2.254 2.254c0 .329-.07.634-.187.916l.892.704a3.395 3.395 0 0 0 .423-1.62 3.398 3.398 0 0 0-3.382-3.381c-.892 0-1.69.352-2.278.892Zm5.237 6.997a6.144 6.144 0 0 1-2.959.752c-1.902 0-3.428-.846-4.532-1.879-1.103-1.033-1.831-2.254-2.184-3.076a.847.847 0 0 1 0-.587 9.381 9.381 0 0 1 1.151-1.925l2.207 1.737c-.023.165-.023.329-.023.47a3.367 3.367 0 0 0 3.381 3.381c.423 0 .846-.07 1.245-.235l1.714 1.362Z"/></g><path fill="#8B8F98" d="M252.21 146.735h-1.653v-.639c.632 0 1.098-.088 1.399-.265.309-.176.515-.485.618-.925h.584v7.901h-.948v-6.072Zm5.369-1.929c.75 0 1.352.217 1.808.651.455.433.683.98.683 1.642 0 .338-.066.65-.198.936a2.68 2.68 0 0 1-.595.816 5.91 5.91 0 0 1-.419.353c-.154.117-.551.382-1.19.793-.757.5-1.264.896-1.521 1.19-.257.287-.386.562-.386.827h4.386v.793h-5.4v-.429c0-.522.191-1.029.573-1.521.39-.493 1.04-1.022 1.951-1.587.771-.5 1.278-.9 1.521-1.201.25-.309.374-.632.374-.97 0-.456-.139-.82-.418-1.091-.28-.272-.673-.408-1.18-.408-.499 0-.911.165-1.234.496-.323.323-.503.746-.54 1.267h-.893c.045-.757.309-1.37.794-1.84.485-.478 1.113-.717 1.884-.717Zm9.944 5.797c0 .706-.239 1.249-.716 1.631-.478.382-1.161.573-2.05.573h-3.119v-7.868h2.766c.889 0 1.572.183 2.05.551.478.36.716.878.716 1.554 0 .36-.121.705-.363 1.036-.235.323-.522.536-.86.639.485.125.867.356 1.146.694.287.331.43.727.43 1.19Zm-4.948-4.893v2.7h1.884c.573 0 1.007-.114 1.301-.341.301-.236.452-.574.452-1.014 0-.441-.147-.776-.441-1.003-.294-.228-.728-.342-1.301-.342h-1.895Zm2.116 3.439h-2.116v2.887h2.138c.595 0 1.054-.125 1.377-.375.324-.25.485-.602.485-1.058 0-.455-.165-.812-.496-1.069-.33-.257-.793-.385-1.388-.385Zm10.258 1.454c0 .706-.239 1.249-.716 1.631-.478.382-1.161.573-2.05.573h-3.119v-7.868h2.766c.889 0 1.572.183 2.05.551.478.36.716.878.716 1.554 0 .36-.121.705-.363 1.036-.235.323-.522.536-.86.639.485.125.867.356 1.146.694.287.331.43.727.43 1.19Zm-4.948-4.893v2.7h1.884c.573 0 1.007-.114 1.301-.341.301-.236.452-.574.452-1.014 0-.441-.147-.776-.441-1.003-.294-.228-.728-.342-1.301-.342h-1.895Zm2.116 3.439h-2.116v2.887h2.138c.595 0 1.054-.125 1.377-.375.324-.25.485-.602.485-1.058 0-.455-.165-.812-.496-1.069-.33-.257-.793-.385-1.388-.385Zm8.142-3.406h-4.496v-.804h5.532v.672c-.874 1.058-1.517 2.16-1.929 3.306-.411 1.146-.624 2.443-.639 3.89h-.992c.015-1.285.235-2.523.662-3.714a11.785 11.785 0 0 1 1.862-3.35Zm3.475 7.064h-.948v-7.868h5.036v.793h-4.088v2.877h3.714v.793h-3.714v3.405Zm6.725-6.072h-1.653v-.639c.632 0 1.098-.088 1.4-.265.308-.176.514-.485.617-.925h.584v7.901h-.948v-6.072Zm6.891-.992h-4.497v-.804h5.533v.672c-.875 1.058-1.518 2.16-1.929 3.306-.411 1.146-.625 2.443-.639 3.89h-.992c.015-1.285.235-2.523.661-3.714a11.764 11.764 0 0 1 1.863-3.35Zm9.139 7.064h-.992l-.871-2.193h-3.769l-.87 2.193h-.948l3.185-7.868h1.069l3.196 7.868Zm-3.725-6.921h-.033l-1.565 3.946h3.152l-1.554-3.946Zm8.408 2.91c.47.073.853.283 1.146.628.302.345.452.76.452 1.245 0 .662-.253 1.205-.76 1.631-.5.427-1.161.64-1.984.64-.837 0-1.513-.217-2.028-.651-.514-.44-.8-1.036-.859-1.785h.925c.037.514.228.922.574 1.223.352.294.815.441 1.388.441s1.025-.136 1.356-.408c.33-.271.496-.646.496-1.124 0-.448-.155-.797-.463-1.047-.309-.257-.728-.385-1.257-.385h-.859v-.772h.826c.493 0 .871-.117 1.135-.352.272-.243.408-.585.408-1.025 0-.449-.143-.805-.43-1.069-.286-.272-.679-.408-1.179-.408-.521 0-.948.158-1.278.474-.323.316-.5.731-.529 1.245h-.893c.052-.749.316-1.352.794-1.807.485-.456 1.12-.684 1.906-.684.764 0 1.374.21 1.83.629.462.418.694.955.694 1.609 0 .462-.132.856-.397 1.179a1.55 1.55 0 0 1-1.014.573Zm9.108 1.807c0 .706-.239 1.249-.716 1.631-.478.382-1.161.573-2.05.573h-3.119v-7.868h2.766c.889 0 1.572.183 2.05.551.478.36.716.878.716 1.554 0 .36-.121.705-.363 1.036-.235.323-.522.536-.86.639.485.125.867.356 1.146.694.287.331.43.727.43 1.19Zm-4.948-4.893v2.7h1.884c.573 0 1.007-.114 1.301-.341.301-.236.452-.574.452-1.014 0-.441-.147-.776-.441-1.003-.294-.228-.728-.342-1.301-.342h-1.895Zm2.116 3.439h-2.116v2.887h2.138c.595 0 1.054-.125 1.377-.375.324-.25.485-.602.485-1.058 0-.455-.165-.812-.496-1.069-.33-.257-.793-.385-1.388-.385Zm4.373-4.21h2.788c1.146 0 2.072.363 2.777 1.091.706.72 1.058 1.667 1.058 2.843s-.352 2.127-1.058 2.854c-.705.72-1.631 1.08-2.777 1.08h-2.788v-7.868Zm5.643 3.934c0-.977-.254-1.745-.761-2.303-.507-.559-1.205-.838-2.094-.838h-1.851v6.282h1.851c.897 0 1.594-.279 2.094-.838.507-.558.761-1.326.761-2.303Z"/></g><rect width="87.034" height="22.015" x="56.914" y="137.787" fill="#313236" rx="4.008"/><path fill="#8B8F98" d="M69.987 150.916c-.371 0-.724-.039-1.056-.157l-.646.646a.458.458 0 0 1-.333.137h-.782v.783a.463.463 0 0 1-.47.469h-.783v.783c0 .274-.215.47-.47.47h-1.565a.452.452 0 0 1-.47-.47v-1.565c0-.118.04-.235.138-.333l3.15-3.15a3.146 3.146 0 0 1-.157-1.057 3.437 3.437 0 0 1 3.444-3.444 3.45 3.45 0 0 1 3.444 3.444 3.436 3.436 0 0 1-3.444 3.444Zm.783-3.444c.43 0 .783-.333.783-.783a.785.785 0 0 0-.783-.782.772.772 0 0 0-.783.782c0 .45.333.783.783.783ZM83.869 152.794h-1.356a9.05 9.05 0 0 1-.055-.44 4.43 4.43 0 0 1-.022-.441 1.468 1.468 0 0 1-.694.738c-.323.176-.713.265-1.168.265-.566 0-1.022-.147-1.367-.441-.345-.294-.518-.687-.518-1.179 0-.493.17-.882.507-1.169.338-.286.841-.47 1.51-.551l1.675-.187v-.264c0-.324-.092-.574-.275-.75-.184-.176-.445-.264-.783-.264-.301 0-.544.077-.727.231a.879.879 0 0 0-.309.628h-1.355c.058-.595.305-1.061.738-1.399.433-.338 1-.507 1.697-.507.779 0 1.37.183 1.774.551.412.367.618.907.618 1.62v2.16c0 .301.007.562.022.782.022.213.051.419.088.617Zm-3.78-1.576c0 .228.077.405.231.529.155.125.368.188.64.188.41 0 .749-.118 1.013-.353.272-.242.408-.562.408-.959v-.341l-1.245.143c-.397.051-.672.14-.827.264-.147.118-.22.294-.22.529Zm8.521 1.709c-.39 0-.742-.092-1.058-.276a1.897 1.897 0 0 1-.716-.749v2.854h-1.41v-7.56h1.388v.926c.147-.316.382-.57.705-.761.33-.198.694-.297 1.091-.297.735 0 1.33.272 1.785.815.456.544.684 1.249.684 2.116s-.228 1.572-.683 2.116c-.456.544-1.051.816-1.786.816Zm-.397-4.827c-.44 0-.786.161-1.035.485-.25.315-.375.753-.375 1.311v.198c0 .559.125 1 .374 1.323.25.316.596.474 1.036.474.449 0 .801-.169 1.058-.507.257-.338.386-.801.386-1.389s-.129-1.05-.386-1.388c-.257-.338-.61-.507-1.058-.507Zm5.652-1.852h-1.5v-1.377h1.5v1.377Zm-.044 6.546H92.41v-5.598h1.41v5.598Zm5.721 0h-1.63l-3.109-7.868h1.554l2.392 6.304h.022l2.402-6.304h1.488l-3.119 7.868Zm7.171-1.741h1.3a2.194 2.194 0 0 1-.859 1.378c-.448.33-1.003.496-1.664.496-.845 0-1.529-.265-2.05-.794-.522-.536-.783-1.245-.783-2.127 0-.881.261-1.59.783-2.127.521-.543 1.194-.815 2.017-.815.793 0 1.421.261 1.884.782.47.522.705 1.201.705 2.039v.452h-4.022c.044.499.191.885.441 1.157.25.264.591.397 1.025.397.308 0 .565-.07.771-.21.206-.139.356-.349.452-.628Zm-1.256-2.942c-.375 0-.684.114-.926.341-.235.221-.39.544-.463.97h2.634c0-.389-.114-.705-.342-.948-.22-.242-.521-.363-.903-.363Zm7.033-1.014c.081 0 .158.003.231.011.074.007.136.018.188.033v1.3a2.482 2.482 0 0 0-.254-.033 3.603 3.603 0 0 0-.286-.011c-.478 0-.86.162-1.146.485-.287.323-.43.764-.43 1.323v2.589h-1.411v-5.598h1.389v1.256c.132-.426.349-.756.65-.992a1.655 1.655 0 0 1 1.069-.363Zm3.669 5.83c-.771 0-1.388-.158-1.851-.474-.456-.323-.713-.775-.771-1.356h1.344a.838.838 0 0 0 .386.628c.235.147.525.221.87.221.316 0 .57-.063.761-.188.198-.124.297-.293.297-.506a.445.445 0 0 0-.198-.397c-.125-.096-.345-.173-.661-.232l-.992-.176c-.544-.095-.948-.275-1.212-.54-.265-.264-.397-.617-.397-1.058 0-.522.213-.948.639-1.278.426-.338.97-.507 1.631-.507.713 0 1.275.15 1.686.452.419.293.658.716.717 1.267h-1.29a.731.731 0 0 0-.341-.529c-.199-.132-.452-.198-.761-.198-.294 0-.532.058-.716.176a.544.544 0 0 0-.265.474c0 .176.063.312.188.408.125.088.349.161.672.22l1.091.187c.507.088.889.272 1.146.551.257.272.386.632.386 1.08 0 .522-.224.948-.672 1.279-.441.33-1.003.496-1.687.496Zm5.182-6.679h-1.499v-1.377h1.499v1.377Zm-.044 6.546h-1.411v-5.598h1.411v5.598Zm4.168-5.73c.844 0 1.528.268 2.049.804.522.537.783 1.246.783 2.127 0 .889-.261 1.602-.783 2.138-.514.529-1.197.794-2.049.794-.853 0-1.54-.265-2.061-.794-.515-.536-.772-1.249-.772-2.138 0-.881.261-1.59.783-2.127.521-.536 1.205-.804 2.05-.804Zm0 1.047c-.449 0-.798.165-1.047.496-.25.33-.375.793-.375 1.388 0 .595.125 1.058.375 1.389.249.33.598.496 1.047.496.448 0 .797-.166 1.047-.496.249-.331.374-.794.374-1.389 0-.588-.125-1.047-.374-1.377-.25-.338-.599-.507-1.047-.507Zm4.161-.915h1.389v.948c.139-.331.363-.592.672-.783.316-.198.68-.297 1.091-.297.639 0 1.139.191 1.499.573.367.374.551.896.551 1.565v3.592h-1.411v-3.262c0-.448-.095-.786-.286-1.014-.191-.227-.471-.341-.838-.341-.397 0-.705.136-.926.408-.22.271-.33.661-.33 1.168v3.041h-1.411v-5.598Z"/></g></g><g clip-path="url(#k)"><path stroke="#313236" stroke-linecap="round" stroke-width="1.002" d="M57.415 172.352h329.617"/></g><g clip-path="url(#l)"><g clip-path="url(#m)"><g clip-path="url(#n)"><g filter="url(#o)"><path fill="#8B8F98" d="M230.242 191.127c1.879 0 3.405.869 4.509 1.902 1.103 1.01 1.831 2.231 2.183 3.076a.835.835 0 0 1 0 .587c-.352.822-1.08 2.043-2.183 3.076-1.104 1.034-2.63 1.879-4.509 1.879-1.902 0-3.428-.845-4.532-1.879-1.103-1.033-1.831-2.254-2.184-3.076a.847.847 0 0 1 0-.587 9.175 9.175 0 0 1 2.184-3.076c1.104-1.033 2.63-1.902 4.532-1.902Zm3.382 5.26a3.398 3.398 0 0 0-3.382-3.381 3.382 3.382 0 0 0-3.381 3.381 3.367 3.367 0 0 0 3.381 3.381 3.382 3.382 0 0 0 3.382-3.381Zm-3.382-1.503c0-.258-.094-.516-.211-.728.07 0 .141-.023.211-.023a2.254 2.254 0 1 1-2.254 2.254v-.188c.211.118.47.188.751.188.822 0 1.503-.657 1.503-1.503Z"/></g><path fill="#8B8F98" d="M253.191 198.592c-.513 0-.954-.18-1.323-.541a1.787 1.787 0 0 1-.541-1.31c0-.497.181-.926.541-1.287a1.83 1.83 0 0 1 1.323-.541c.505 0 .937.181 1.298.541.361.353.541.782.541 1.287 0 .513-.18.949-.541 1.31a1.744 1.744 0 0 1-1.298.541Zm5.8 0c-.513 0-.954-.18-1.323-.541a1.783 1.783 0 0 1-.541-1.31c0-.497.18-.926.541-1.287a1.83 1.83 0 0 1 1.323-.541c.505 0 .937.181 1.298.541.361.353.541.782.541 1.287 0 .513-.18.949-.541 1.31a1.744 1.744 0 0 1-1.298.541Zm5.8 0c-.513 0-.954-.18-1.323-.541a1.783 1.783 0 0 1-.541-1.31c0-.497.18-.926.541-1.287a1.83 1.83 0 0 1 1.323-.541c.504 0 .937.181 1.298.541.361.353.541.782.541 1.287 0 .513-.18.949-.541 1.31a1.745 1.745 0 0 1-1.298.541Zm5.799 0c-.513 0-.953-.18-1.322-.541a1.783 1.783 0 0 1-.541-1.31c0-.497.18-.926.541-1.287.369-.36.809-.541 1.322-.541.505 0 .938.181 1.299.541.361.353.541.782.541 1.287 0 .513-.18.949-.541 1.31a1.746 1.746 0 0 1-1.299.541Zm5.8 0c-.513 0-.953-.18-1.322-.541a1.783 1.783 0 0 1-.541-1.31c0-.497.18-.926.541-1.287.369-.36.809-.541 1.322-.541.505 0 .938.181 1.299.541.36.353.541.782.541 1.287 0 .513-.181.949-.541 1.31a1.746 1.746 0 0 1-1.299.541Zm5.8 0c-.513 0-.954-.18-1.322-.541a1.783 1.783 0 0 1-.541-1.31c0-.497.18-.926.541-1.287.368-.36.809-.541 1.322-.541.505 0 .938.181 1.299.541.36.353.541.782.541 1.287 0 .513-.181.949-.541 1.31a1.746 1.746 0 0 1-1.299.541Zm5.8 0c-.513 0-.954-.18-1.322-.541a1.783 1.783 0 0 1-.541-1.31c0-.497.18-.926.541-1.287.368-.36.809-.541 1.322-.541.505 0 .938.181 1.299.541.36.353.541.782.541 1.287 0 .513-.181.949-.541 1.31a1.746 1.746 0 0 1-1.299.541Zm5.8 0c-.513 0-.954-.18-1.322-.541a1.783 1.783 0 0 1-.541-1.31c0-.497.18-.926.541-1.287.368-.36.809-.541 1.322-.541.505 0 .938.181 1.299.541.36.353.541.782.541 1.287 0 .513-.181.949-.541 1.31a1.746 1.746 0 0 1-1.299.541Zm5.8 0c-.513 0-.954-.18-1.322-.541a1.783 1.783 0 0 1-.541-1.31c0-.497.18-.926.541-1.287.368-.36.809-.541 1.322-.541.505 0 .938.181 1.298.541.361.353.541.782.541 1.287 0 .513-.18.949-.541 1.31a1.742 1.742 0 0 1-1.298.541Zm5.8 0c-.513 0-.954-.18-1.323-.541a1.787 1.787 0 0 1-.541-1.31c0-.497.181-.926.541-1.287a1.83 1.83 0 0 1 1.323-.541c.505 0 .938.181 1.298.541.361.353.541.782.541 1.287 0 .513-.18.949-.541 1.31a1.742 1.742 0 0 1-1.298.541Zm5.8 0c-.513 0-.954-.18-1.323-.541a1.787 1.787 0 0 1-.541-1.31c0-.497.181-.926.541-1.287a1.83 1.83 0 0 1 1.323-.541c.505 0 .938.181 1.298.541.361.353.541.782.541 1.287 0 .513-.18.949-.541 1.31a1.742 1.742 0 0 1-1.298.541Zm5.8 0c-.513 0-.954-.18-1.323-.541a1.787 1.787 0 0 1-.541-1.31c0-.497.181-.926.541-1.287a1.83 1.83 0 0 1 1.323-.541c.505 0 .938.181 1.298.541.361.353.541.782.541 1.287 0 .513-.18.949-.541 1.31a1.742 1.742 0 0 1-1.298.541Zm5.8 0c-.513 0-.954-.18-1.323-.541a1.787 1.787 0 0 1-.541-1.31c0-.497.181-.926.541-1.287a1.83 1.83 0 0 1 1.323-.541c.505 0 .937.181 1.298.541.361.353.541.782.541 1.287 0 .513-.18.949-.541 1.31a1.744 1.744 0 0 1-1.298.541Zm5.8 0c-.513 0-.954-.18-1.323-.541a1.783 1.783 0 0 1-.541-1.31c0-.497.18-.926.541-1.287a1.83 1.83 0 0 1 1.323-.541c.505 0 .937.181 1.298.541.361.353.541.782.541 1.287 0 .513-.18.949-.541 1.31a1.744 1.744 0 0 1-1.298.541Z"/></g><rect width="85.034" height="22.015" x="56.914" y="184.875" fill="#313236" rx="4.008"/><path fill="#8B8F98" d="M69.987 198.004c-.371 0-.724-.039-1.056-.156l-.646.645a.458.458 0 0 1-.333.137h-.782v.783c0 .274-.216.47-.47.47h-.783v.782c0 .274-.215.47-.47.47h-1.565a.452.452 0 0 1-.47-.47V199.1c0-.118.04-.235.138-.333l3.15-3.15a3.146 3.146 0 0 1-.157-1.057 3.437 3.437 0 0 1 3.444-3.444 3.45 3.45 0 0 1 3.444 3.444 3.436 3.436 0 0 1-3.444 3.444Zm.783-3.444c.43 0 .783-.333.783-.783a.785.785 0 0 0-.783-.782.772.772 0 0 0-.783.782c0 .45.333.783.783.783ZM82.404 200.015c-1.102 0-1.995-.375-2.678-1.124-.676-.75-1.014-1.734-1.014-2.954 0-1.205.349-2.182 1.047-2.931.705-.75 1.623-1.124 2.755-1.124.896 0 1.627.224 2.193.672.566.448.93 1.087 1.091 1.917h-1.444c-.095-.47-.3-.826-.617-1.069-.316-.242-.723-.363-1.223-.363-.72 0-1.286.257-1.697.771-.412.514-.617 1.223-.617 2.127 0 .911.202 1.628.606 2.149.404.515.966.772 1.686.772.573 0 1.04-.155 1.4-.463.367-.309.55-.706.55-1.19v-.276h-1.52v-1.058h2.975v4.012h-1.135l-.099-1.125c-.14.36-.426.662-.86.904a2.851 2.851 0 0 1-1.4.353Zm6.565-6.679h-1.5v-1.377h1.5v1.377Zm-.044 6.547h-1.411v-5.599h1.41v5.599Zm3.947-1.047c.125 0 .246-.008.364-.022.117-.022.242-.052.374-.089v1.08c-.19.059-.374.1-.55.122a3.462 3.462 0 0 1-.563.044c-.595 0-1.036-.133-1.322-.397-.28-.265-.419-.672-.419-1.223v-3.053h-.771v-1.014h.771v-1.4h1.4v1.4h1.333v1.014h-1.344v2.832c0 .243.055.423.165.54.117.111.305.166.562.166Zm3.468-7.065v3.461c.147-.338.37-.603.672-.794a1.989 1.989 0 0 1 1.07-.286c.638 0 1.138.191 1.498.573.367.375.551.896.551 1.565v3.593h-1.41v-3.263c0-.448-.096-.786-.287-1.013-.191-.228-.47-.342-.838-.342-.397 0-.705.136-.925.408-.22.272-.331.661-.331 1.168v3.042h-1.41v-8.112h1.41Zm10.514 2.513v5.599h-1.388v-.937c-.14.33-.364.591-.673.782a1.986 1.986 0 0 1-1.069.287c-.631 0-1.124-.184-1.476-.551-.346-.375-.518-.9-.518-1.576v-3.604h1.421v3.295c0 .448.089.786.265 1.014.184.221.455.331.815.331.382 0 .676-.136.882-.408.213-.279.32-.676.32-1.19v-3.042h1.421Zm4.907 5.731c-.397 0-.761-.092-1.091-.276a1.727 1.727 0 0 1-.706-.749v.893h-1.388v-8.112h1.41v3.428c.147-.316.379-.57.695-.761a2.081 2.081 0 0 1 1.08-.286c.735 0 1.33.272 1.785.815.456.544.683 1.249.683 2.116s-.227 1.573-.683 2.116c-.455.544-1.05.816-1.785.816Zm-.397-4.827c-.441 0-.786.161-1.036.485-.25.316-.375.753-.375 1.311v.199c0 .558.125.999.375 1.322.25.316.595.474 1.036.474.448 0 .801-.169 1.058-.507.257-.338.386-.801.386-1.389 0-.587-.129-1.05-.386-1.388-.257-.338-.61-.507-1.058-.507Zm11.426 4.695h-1.499l-.738-1.929h-3.549l-.749 1.929h-1.433l3.163-7.869h1.642l3.163 7.869Zm-3.978-6.459h-.033l-1.323 3.395h2.656l-1.3-3.395Zm11.198 1.081c0 .8-.254 1.414-.761 1.84-.499.426-1.223.639-2.171.639h-1.829v2.899h-1.433v-7.869h3.251c.948 0 1.675.213 2.182.639.507.426.761 1.043.761 1.852Zm-4.761-1.334v2.667h1.697c.544 0 .948-.11 1.212-.331.272-.22.408-.554.408-1.002 0-.449-.136-.783-.408-1.003-.264-.221-.668-.331-1.212-.331h-1.697Zm7.47 6.712h-1.466v-7.869h1.466v7.869Z"/></g></g><defs><clipPath id="c"><path fill="#fff" d="M56.914 79.678h330.62v46.086H56.913z"/></clipPath><clipPath id="d"><path fill="#fff" d="M56.914 79.678h651.22v46.086H56.913z"/></clipPath><clipPath id="e"><path fill="#fff" d="M218.219 79.678h498.934v46.086H218.219z"/></clipPath><clipPath id="g"><path fill="#fff" d="M56.914 125.764h330.62v46.086H56.913z"/></clipPath><clipPath id="h"><path fill="#fff" d="M56.914 125.764h651.22v46.086H56.913z"/></clipPath><clipPath id="i"><path fill="#fff" d="M218.219 125.764h498.934v46.086H218.219z"/></clipPath><clipPath id="k"><path fill="#fff" d="M56.914 171.851h330.62v1.002H56.913z"/></clipPath><clipPath id="l"><path fill="#fff" d="M56.914 172.853h330.62v46.086H56.913z"/></clipPath><clipPath id="m"><path fill="#fff" d="M56.914 172.853h651.22v46.086H56.913z"/></clipPath><clipPath id="n"><path fill="#fff" d="M218.219 172.853h498.934v46.086H218.219z"/></clipPath><filter id="f" width="26.051" height="26.049" x="217.217" y="90.699" color-interpolation-filters="sRGB" filterUnits="userSpaceOnUse"><feFlood flood-opacity="0" result="BackgroundImageFix"/><feColorMatrix in="SourceAlpha" result="hardAlpha" values="0 0 0 0 0 0 0 0 0 0 0 0 0 0 0 0 0 0 127 0"/><feOffset dy="1.002"/><feGaussianBlur stdDeviation=".501"/><feComposite in2="hardAlpha" operator="out"/><feColorMatrix values="0 0 0 0 0 0 0 0 0 0 0 0 0 0 0 0 0 0 0.06 0"/><feBlend in2="BackgroundImageFix" result="effect1_dropShadow_1370_4518"/><feBlend in="SourceGraphic" in2="effect1_dropShadow_1370_4518" result="shape"/></filter><filter id="j" width="26.051" height="26.049" x="217.217" y="136.785" color-interpolation-filters="sRGB" filterUnits="userSpaceOnUse"><feFlood flood-opacity="0" result="BackgroundImageFix"/><feColorMatrix in="SourceAlpha" result="hardAlpha" values="0 0 0 0 0 0 0 0 0 0 0 0 0 0 0 0 0 0 127 0"/><feOffset dy="1.002"/><feGaussianBlur stdDeviation=".501"/><feComposite in2="hardAlpha" operator="out"/><feColorMatrix values="0 0 0 0 0 0 0 0 0 0 0 0 0 0 0 0 0 0 0.06 0"/><feBlend in2="BackgroundImageFix" result="effect1_dropShadow_1370_4518"/><feBlend in="SourceGraphic" in2="effect1_dropShadow_1370_4518" result="shape"/></filter><filter id="o" width="26.051" height="26.049" x="217.217" y="183.873" color-interpolation-filters="sRGB" filterUnits="userSpaceOnUse"><feFlood flood-opacity="0" result="BackgroundImageFix"/><feColorMatrix in="SourceAlpha" result="hardAlpha" values="0 0 0 0 0 0 0 0 0 0 0 0 0 0 0 0 0 0 127 0"/><feOffset dy="1.002"/><feGaussianBlur stdDeviation=".501"/><feComposite in2="hardAlpha" operator="out"/><feColorMatrix values="0 0 0 0 0 0 0 0 0 0 0 0 0 0 0 0 0 0 0.06 0"/><feBlend in2="BackgroundImageFix" result="effect1_dropShadow_1370_4518"/><feBlend in="SourceGraphic" in2="effect1_dropShadow_1370_4518" result="shape"/></filter><linearGradient id="a" x1="160.718" x2="415.368" y1="105.727" y2="302.819" gradientUnits="userSpaceOnUse"><stop stop-color="#1E293B"/><stop offset="1" stop-color="#1E293B" stop-opacity="0"/></linearGradient></defs></svg>