<?xml version="1.0" encoding="utf-8"?>
<!-- Generator: Adobe Illustrator 26.0.3, SVG Export Plug-In . SVG Version: 6.00 Build 0)  -->
<svg version="1.1" width="14" height="16" xmlns="http://www.w3.org/2000/svg" xmlns:xlink="http://www.w3.org/1999/xlink" x="0px" y="0px"
	 viewBox="0 0 1025.86 719" style="enable-background:new 0 0 1025.86 719;" xml:space="preserve">
<style type="text/css">
	.st0{fill:#FFFFFF;}
</style>
<g id="Layer_1">
	<g>
		<rect x="304.2" y="322.53" class="st0" width="18.26" height="107.15"/>
		<rect x="674.23" y="322.53" class="st0" width="18.26" height="107.15"/>
		<path class="st0" d="M346.18,328.73c8.71-5.92,21.37-8.93,38.22-8.93c22.88,0,36.91,7.8,45.16,16.8c3.3,3.57,5.95,7.69,7.84,12.18
			c0.58,1.38,1.08,2.79,1.49,4.23c0.16,0.54,0.27,1,0.34,1.35c0.07,0.35,0.07,0.32,0.1,0.45v0.16v0.1l-9,1.57
			c-9,1.56-9,1.57-8.99,1.57v0.11c0,0,0-0.19-0.1-0.41c-0.21-0.69-0.45-1.38-0.73-2.05c-1.09-2.53-2.6-4.86-4.47-6.88
			c-4.44-4.87-13.39-10.89-31.66-10.89c-15.11,0-23.56,2.78-28,5.77c-3.91,2.65-5.11,5.75-5.11,9.12c0,2.58,1.22,5.49,6.99,8.27
			c5.97,2.9,15.44,4.76,28,4.76c10.23,0,22.84,0.47,33.07,4.48c5.61,2.05,10.55,5.6,14.28,10.26c3.99,5.39,6.05,11.95,5.87,18.65
			c0,8.1-3.47,16.95-12.68,23.4c-8.77,6.16-21.92,9.59-40.55,9.59c-23.13,0-38.07-9.18-47.1-18.9c-3.64-3.92-6.71-8.33-9.12-13.11
			c-0.74-1.45-1.4-2.94-1.98-4.47c-0.22-0.57-0.38-1.03-0.5-1.39c-0.12-0.35-0.1-0.33-0.13-0.44c0-0.05,0-0.11,0-0.16
			c0,0,0,0,8.77-2.54l8.77-2.54v0.1c0,0.12,0.11,0.34,0.23,0.65c0.23,0.61,0.63,1.57,1.22,2.76c1.66,3.18,3.76,6.11,6.22,8.71
			c5.82,6.27,15.99,13.06,33.72,13.06c16.75,0,25.57-3.17,30.05-6.28c4.02-2.81,4.87-5.89,4.87-8.45c0.17-2.69-0.58-5.35-2.12-7.56
			c-1.7-2.01-3.92-3.51-6.42-4.35c-6.67-2.61-16.11-3.23-26.42-3.23c-13.89,0-26.47-2-35.93-6.59c-9.74-4.7-17.29-12.86-17.29-24.71
			c-0.04-4.82,1.13-9.57,3.42-13.81C338.8,334.93,342.13,331.34,346.18,328.73z"/>
		<path class="st0" d="M516.91,342.06c-6.82-3.4-14.51-4.66-22.06-3.64c-7.55,1.03-14.62,4.3-20.29,9.39
			c-5.67,5.09-9.68,11.77-11.51,19.17c-1.83,7.4-1.39,15.18,1.25,22.32c2.65,7.15,7.38,13.33,13.58,17.76s13.6,6.88,21.21,7.06
			c7.62,0.17,15.11-1.95,21.51-6.08c6.4-4.14,11.41-10.1,14.38-17.12l16.83,7.11c-5.03,11.9-14.01,21.71-25.42,27.78
			c-11.41,6.07-24.56,8.03-37.24,5.54c-12.68-2.48-24.12-9.25-32.41-19.17c-8.28-9.92-12.9-22.39-13.07-35.31
			c-0.17-12.92,4.1-25.51,12.11-35.65c8.01-10.14,19.27-17.22,31.88-20.04c12.61-2.82,25.81-1.22,37.38,4.54s20.8,15.32,26.15,27.09
			l-16.63,7.56C530.96,352.42,524.72,345.96,516.91,342.06z"/>
		<polygon class="st0" points="645.03,322.53 645.03,367.57 579.59,367.57 579.59,322.53 561.32,322.53 561.32,429.66 
			579.59,429.66 579.59,385.84 645.03,385.84 645.03,429.66 663.3,429.66 663.3,322.53 		"/>
		<polygon class="st0" points="790.17,340.8 790.17,322.53 703.42,322.53 703.42,429.05 790.17,429.05 790.17,410.79 721.68,410.79 
			721.68,385.84 790.17,385.84 790.17,367.57 721.68,367.57 721.68,340.8 		"/>
		<polygon class="st0" points="887.85,340.8 887.85,322.53 801.1,322.53 801.1,429.66 819.36,429.66 819.36,385.84 887.85,385.84 
			887.85,367.57 819.36,367.57 819.36,340.8 		"/>
		<polygon class="st0" points="172.78,334.47 196.31,429.66 228.64,429.66 252.3,333.95 275.95,429.66 294.77,429.66 268.28,322.53 
			252.44,322.53 252.3,322.57 252.15,322.53 236.31,322.53 212.47,418.94 188.64,322.53 172.8,322.53 172.78,322.53 172.75,322.53 
			156.91,322.53 130.43,429.66 149.24,429.66 		"/>
	</g>
</g>
<g id="Layer_2">
</g>
</svg>
