<svg width="39" height="29" viewBox="0 0 39 29" fill="none" xmlns="http://www.w3.org/2000/svg">
<g filter="url(#filter0_d_1370_4517)">
<path d="M31.1354 5.90519H7.77083V17.5875H31.1354V5.90519ZM7.77083 2.98462H31.1354C32.7326 2.98462 34.056 4.308 34.056 5.90519V17.5875C34.056 19.2303 32.7326 20.5081 31.1354 20.5081H7.77083C6.12801 20.5081 4.85026 19.2303 4.85026 17.5875V5.90519C4.85026 4.308 6.12801 2.98462 7.77083 2.98462ZM9.59619 8.46069C9.59619 7.86745 10.0525 7.36548 10.6914 7.36548H12.1517C12.7449 7.36548 13.2469 7.86745 13.2469 8.46069V13.9368H13.9771C14.5703 13.9368 15.0723 14.4387 15.0723 15.032C15.0723 15.6709 14.5703 16.1272 13.9771 16.1272H10.3263C9.68746 16.1272 9.23112 15.6709 9.23112 15.032C9.23112 14.4387 9.68746 13.9368 10.3263 13.9368H11.0565V9.55591H10.6914C10.0525 9.55591 9.59619 9.09957 9.59619 8.46069ZM18.2666 9.87534L17.7647 10.5599C17.3996 11.0618 16.7151 11.1987 16.2587 10.8337C15.7568 10.4686 15.6199 9.78408 15.9849 9.32774L16.4869 8.59759C17.5821 7.09167 19.7726 6.95477 21.0047 8.36942C22.0086 9.46464 21.963 11.1531 20.959 12.2483L19.3619 13.9368H20.9134C21.5067 13.9368 22.0086 14.4387 22.0086 15.032C22.0086 15.6709 21.5067 16.1272 20.9134 16.1272H16.8976C16.4413 16.1272 16.0306 15.899 15.8937 15.4883C15.7111 15.0776 15.7568 14.6213 16.0762 14.3018L19.3619 10.7424C19.59 10.4686 19.59 10.1035 19.3619 9.82971C19.0881 9.46464 18.5404 9.51027 18.2666 9.87534Z" fill="url(#paint0_linear_1370_4517)"></path>
</g>
<defs>
<filter id="filter0_d_1370_4517" x="0.445625" y="0.508057" width="38.015" height="31.015" filterUnits="userSpaceOnUse" color-interpolation-filters="sRGB">
<feFlood flood-opacity="0" result="BackgroundImageFix"></feFlood>
<feColorMatrix in="SourceAlpha" type="matrix" values="0 0 0 0 0 0 0 0 0 0 0 0 0 0 0 0 0 0 127 0" result="hardAlpha"></feColorMatrix>
<feOffset dy="4.0075"></feOffset>
<feGaussianBlur stdDeviation="2.00375"></feGaussianBlur>
<feComposite in2="hardAlpha" operator="out"></feComposite>
<feColorMatrix type="matrix" values="0 0 0 0 0 0 0 0 0 0 0 0 0 0 0 0 0 0 0.25 0"></feColorMatrix>
<feBlend mode="normal" in2="BackgroundImageFix" result="effect1_dropShadow_1370_4517"></feBlend>
<feBlend mode="normal" in="SourceGraphic" in2="effect1_dropShadow_1370_4517" result="shape"></feBlend>
</filter>
<linearGradient id="paint0_linear_1370_4517" x1="19.4531" y1="4.00806" x2="19.4531" y2="20.5081" gradientUnits="userSpaceOnUse">
<stop stop-color="#FF926F"></stop>
<stop offset="0.5" stop-color="#FFC858"></stop>
<stop offset="1" stop-color="#F9F871"></stop>
</linearGradient>
</defs>
</svg>
